<svg width="222" height="277" viewBox="0 0 222 277" fill="none" xmlns="http://www.w3.org/2000/svg">
<path d="M219.884 276.431H2.11719C3.09045 260.827 8.30369 245.784 17.1951 232.924C31.9799 210.844 68.3883 211.463 76.3994 205.536C76.5539 205.446 76.6962 205.337 76.8228 205.21C78.7699 203.163 80.2089 200.686 81.0237 197.981C84.0178 187.585 85.5307 176.819 85.5178 166.001C85.5178 162.386 85.2898 160.498 85.2898 158.088C84.7688 143.368 83.6941 115.069 87.4066 108.295C92.3892 99.2417 129.449 99.7627 132.51 107.578C134.92 113.831 136.092 148.383 136.45 162.419C136.45 163.331 136.45 164.406 136.45 166.001C136.45 167.597 136.45 170.235 136.711 173.068C137.091 180.99 138.358 188.844 140.489 196.483C141.276 199.674 142.83 202.625 145.015 205.08C151.952 211.365 189.565 210.291 204.643 232.793C213.614 245.674 218.886 260.766 219.884 276.431Z" fill="#645486"/>
<path d="M219.884 276.431H2.11719C3.09045 260.827 8.30369 245.784 17.1951 232.924C31.9799 210.844 68.3883 211.463 76.3994 205.536C76.5539 205.446 76.6962 205.337 76.8228 205.21C78.7699 203.163 80.2089 200.686 81.0237 197.981C84.0178 187.585 85.5307 176.819 85.5178 166.001C85.5178 162.386 85.2898 160.498 85.2898 158.088C84.7688 143.368 83.6941 115.069 87.4066 108.295C92.3892 99.2417 129.449 99.7627 132.51 107.578C134.92 113.831 136.092 148.383 136.45 162.419C136.45 163.331 136.45 164.406 136.45 166.001C136.45 167.597 136.45 170.235 136.711 173.068C137.091 180.99 138.358 188.844 140.489 196.483C141.276 199.674 142.83 202.625 145.015 205.08C151.952 211.365 189.565 210.291 204.643 232.793C213.614 245.674 218.886 260.766 219.884 276.431Z" fill="#9478BF"/>
<path d="M219.884 276.431H2.11719C3.09045 260.827 8.30369 245.784 17.1951 232.924C31.9799 210.844 68.3883 211.463 76.3994 205.536C76.5539 205.446 76.6962 205.337 76.8228 205.21C78.7699 203.163 80.2089 200.686 81.0237 197.981C84.0178 187.585 85.5307 176.819 85.5178 166.001C85.5178 162.386 85.2898 160.498 85.2898 158.088C84.7688 143.368 83.6941 115.069 87.4066 108.295C92.3892 99.2417 129.449 99.7627 132.51 107.578C134.92 113.831 136.092 148.383 136.45 162.419C136.45 163.331 136.45 164.406 136.45 166.001C136.45 167.597 136.45 170.235 136.711 173.068C137.091 180.99 138.358 188.844 140.489 196.483C141.276 199.674 142.83 202.625 145.015 205.08C151.952 211.365 189.565 210.291 204.643 232.793C213.614 245.674 218.886 260.766 219.884 276.431Z" fill="#8779BF"/>
<path d="M89.7188 195.473V276.431H2.11719C3.09045 260.827 8.30369 245.784 17.1951 232.924C31.9799 210.844 68.3883 211.463 76.432 205.536C76.5701 205.437 76.7007 205.328 76.8228 205.21C78.7699 203.163 80.2089 200.686 81.0237 197.981C81.7725 195.854 82.371 193.678 82.8149 191.468C82.652 193.161 83.4336 195.441 89.7188 195.473Z" fill="#645486"/>
<path d="M89.7188 195.473V276.431H2.11719C3.09045 260.827 8.30369 245.784 17.1951 232.924C31.9799 210.844 68.3883 211.463 76.432 205.536C76.5701 205.437 76.7007 205.328 76.8228 205.21C78.7699 203.163 80.2089 200.686 81.0237 197.981C81.7725 195.854 82.371 193.678 82.8149 191.468C82.652 193.161 83.4336 195.441 89.7188 195.473Z" fill="#9478BF"/>
<path d="M89.7188 195.473V276.431H2.11719C3.09045 260.827 8.30369 245.784 17.1951 232.924C31.9799 210.844 68.3883 211.463 76.432 205.536C76.5701 205.437 76.7007 205.328 76.8228 205.21C78.7699 203.163 80.2089 200.686 81.0237 197.981C81.7725 195.854 82.371 193.678 82.8149 191.468C82.652 193.161 83.4336 195.441 89.7188 195.473Z" fill="#8779BF"/>
<path d="M222 276.431H0C1.0263 264.582 4.2278 253.024 9.44404 242.335C17.6506 227.029 24.3917 219.018 39.6975 214.817C55.0034 210.616 76.8224 205.992 76.8224 199.446C76.8224 199.446 86.9503 207.262 87.8947 213.124C88.8391 218.986 92.0631 244.875 103.135 250.379C105.97 252.272 108.6 254.455 110.984 256.892C113.375 254.463 116.004 252.281 118.832 250.379C129.904 244.875 133.128 219.018 134.073 213.124C135.017 207.229 145.145 199.446 145.145 199.446C145.145 205.959 166.964 210.616 182.27 214.817C197.576 219.018 204.317 227.029 212.523 242.335C217.759 253.018 220.972 264.579 222 276.431Z" fill="#393542"/>
<path d="M222 276.431H0C1.0263 264.582 4.2278 253.024 9.44404 242.335C17.6506 227.029 24.3917 219.018 39.6975 214.817C55.0034 210.616 76.8224 205.992 76.8224 199.446C76.8224 199.446 86.9503 207.262 87.8947 213.124C88.8391 218.986 92.0631 244.875 103.135 250.379C105.97 252.272 108.6 254.455 110.984 256.892C113.375 254.463 116.004 252.281 118.832 250.379C129.904 244.875 133.128 219.018 134.073 213.124C135.017 207.229 145.145 199.446 145.145 199.446C145.145 205.959 166.964 210.616 182.27 214.817C197.576 219.018 204.317 227.029 212.523 242.335C217.759 253.018 220.972 264.579 222 276.431Z" fill="#423D4D"/>
<path d="M222 276.431H0C1.0263 264.582 4.2278 253.024 9.44404 242.335C17.6506 227.029 24.3917 219.018 39.6975 214.817C55.0034 210.616 76.8224 205.992 76.8224 199.446C76.8224 199.446 86.9503 207.262 87.8947 213.124C88.8391 218.986 92.0631 244.875 103.135 250.379C105.97 252.272 108.6 254.455 110.984 256.892C113.375 254.463 116.004 252.281 118.832 250.379C129.904 244.875 133.128 219.018 134.073 213.124C135.017 207.229 145.145 199.446 145.145 199.446C145.145 205.959 166.964 210.616 182.27 214.817C197.576 219.018 204.317 227.029 212.523 242.335C217.759 253.018 220.972 264.579 222 276.431Z" fill="#4C4759"/>
<path d="M0 276.334H32.5656C32.5656 263.991 34.7475 236.538 52.105 224.229C74.0217 208.793 76.5293 208.499 76.6595 199.479C76.2687 205.992 54.7103 210.486 39.5673 214.654C24.4242 218.823 17.6831 226.932 9.4766 242.237C4.24067 252.921 1.02766 264.481 0 276.334Z" fill="#454251"/>
<path d="M0 276.334H32.5656C32.5656 263.991 34.7475 236.538 52.105 224.229C74.0217 208.793 76.5293 208.499 76.6595 199.479C76.2687 205.992 54.7103 210.486 39.5673 214.654C24.4242 218.823 17.6831 226.932 9.4766 242.237C4.24067 252.921 1.02766 264.481 0 276.334Z" fill="#575366"/>
<path d="M152.798 118.781C161.01 111.235 166.157 100.929 167.257 89.8302C169.406 70.7142 155.826 87.0621 155.826 87.0621L152.798 118.781Z" fill="#645486"/>
<path d="M152.798 118.781C161.01 111.235 166.157 100.929 167.257 89.8302C169.406 70.7142 155.826 87.0621 155.826 87.0621L152.798 118.781Z" fill="#9478BF"/>
<path d="M152.798 118.781C161.01 111.235 166.157 100.929 167.257 89.8302C169.406 70.7142 155.826 87.0621 155.826 87.0621L152.798 118.781Z" fill="#8779BF"/>
<path d="M67.9645 115.199C60.1126 107.945 55.1988 98.0593 54.1567 87.4203C52.1051 69.151 65.1313 84.7825 65.1313 84.7825L67.9645 115.199Z" fill="#645486"/>
<path d="M67.9645 115.199C60.1126 107.945 55.1988 98.0593 54.1567 87.4203C52.1051 69.151 65.1313 84.7825 65.1313 84.7825L67.9645 115.199Z" fill="#9478BF"/>
<path d="M67.9645 115.199C60.1126 107.945 55.1988 98.0593 54.1567 87.4203C52.1051 69.151 65.1313 84.7825 65.1313 84.7825L67.9645 115.199Z" fill="#8779BF"/>
<path d="M152.57 119.465C161.071 111.618 166.391 100.921 167.518 89.4069C169.732 69.6069 155.697 86.5411 155.697 86.5411L152.57 119.465Z" fill="#645486"/>
<path d="M152.57 119.465C161.071 111.618 166.391 100.921 167.518 89.4069C169.732 69.6069 155.697 86.5411 155.697 86.5411L152.57 119.465Z" fill="#9478BF"/>
<path d="M152.57 119.465C161.071 111.618 166.391 100.921 167.518 89.4069C169.732 69.6069 155.697 86.5411 155.697 86.5411L152.57 119.465Z" fill="#8779BF"/>
<path d="M159.995 105.266C159.92 109.375 159.506 113.47 158.758 117.511C153.678 146.332 129.449 175.054 111.701 175.054C93.2033 175.054 61.3867 142.912 61.3867 103.41C61.3867 55.4734 82.4241 41.9912 110.235 41.9912C133.292 41.9912 153.092 53.4218 158.563 84.3265C159.71 91.2444 160.19 98.2566 159.995 105.266Z" fill="#726099"/>
<path d="M159.995 105.266C159.92 109.375 159.506 113.47 158.758 117.511C153.678 146.332 129.449 175.054 111.701 175.054C93.2033 175.054 61.3867 142.912 61.3867 103.41C61.3867 55.4734 82.4241 41.9912 110.235 41.9912C133.292 41.9912 153.092 53.4218 158.563 84.3265C159.71 91.2444 160.19 98.2566 159.995 105.266Z" fill="#AA8ADB"/>
<path d="M159.995 105.266C159.92 109.375 159.506 113.47 158.758 117.511C153.678 146.332 129.449 175.054 111.701 175.054C93.2033 175.054 61.3867 142.912 61.3867 103.41C61.3867 55.4734 82.4241 41.9912 110.235 41.9912C133.292 41.9912 153.092 53.4218 158.563 84.3265C159.71 91.2444 160.19 98.2566 159.995 105.266Z" fill="#9A8ADB"/>
<path d="M78.5481 96.8644C78.5481 96.8644 80.4695 97.646 96.2312 100.935C102.744 102.303 101.442 100.349 110.821 100.349V103.019C110.821 103.019 102.256 102.498 97.5013 106.276C94.6681 108.588 77.9619 101.489 77.9619 101.489L78.5481 96.8644Z" fill="#393542"/>
<path d="M78.5481 96.8644C78.5481 96.8644 80.4695 97.646 96.2312 100.935C102.744 102.303 101.442 100.349 110.821 100.349V103.019C110.821 103.019 102.256 102.498 97.5013 106.276C94.6681 108.588 77.9619 101.489 77.9619 101.489L78.5481 96.8644Z" fill="#423D4D"/>
<path d="M78.5481 96.8644C78.5481 96.8644 80.4695 97.646 96.2312 100.935C102.744 102.303 101.442 100.349 110.821 100.349V103.019C110.821 103.019 102.256 102.498 97.5013 106.276C94.6681 108.588 77.9619 101.489 77.9619 101.489L78.5481 96.8644Z" fill="#4C4759"/>
<path d="M63.5355 84.0986C63.5355 84.0986 74.5427 93.6729 78.0924 100.609L77.9295 102.661L62.6562 84.5871L62.8516 83.4799L63.5355 84.0986Z" fill="#393542"/>
<path d="M63.5355 84.0986C63.5355 84.0986 74.5427 93.6729 78.0924 100.609L77.9295 102.661L62.6562 84.5871L62.8516 83.4799L63.5355 84.0986Z" fill="#423D4D"/>
<path d="M63.5355 84.0986C63.5355 84.0986 74.5427 93.6729 78.0924 100.609L77.9295 102.661L62.6562 84.5871L62.8516 83.4799L63.5355 84.0986Z" fill="#4C4759"/>
<path d="M158.53 84.0009C158.53 84.0009 147.229 93.7706 143.68 100.74L143.875 102.824L158.725 84.9778L158.53 84.0009Z" fill="#393542"/>
<path d="M158.53 84.0009C158.53 84.0009 147.229 93.7706 143.68 100.74L143.875 102.824L158.725 84.9778L158.53 84.0009Z" fill="#423D4D"/>
<path d="M158.53 84.0009C158.53 84.0009 147.229 93.7706 143.68 100.74L143.875 102.824L158.725 84.9778L158.53 84.0009Z" fill="#4C4759"/>
<path d="M142.996 96.8644C137.173 98.5167 131.272 99.8753 125.313 100.935C118.8 102.303 120.135 100.349 110.756 100.349V103.019C110.756 103.019 119.288 102.498 124.043 106.276C126.908 108.588 143.582 101.489 143.582 101.489L142.996 96.8644Z" fill="#393542"/>
<path d="M142.996 96.8644C137.173 98.5167 131.272 99.8753 125.313 100.935C118.8 102.303 120.135 100.349 110.756 100.349V103.019C110.756 103.019 119.288 102.498 124.043 106.276C126.908 108.588 143.582 101.489 143.582 101.489L142.996 96.8644Z" fill="#423D4D"/>
<path d="M142.996 96.8644C137.173 98.5167 131.272 99.8753 125.313 100.935C118.8 102.303 120.135 100.349 110.756 100.349V103.019C110.756 103.019 119.288 102.498 124.043 106.276C126.908 108.588 143.582 101.489 143.582 101.489L142.996 96.8644Z" fill="#4C4759"/>
<path d="M101.344 103.605C102.256 95.6919 95.6451 90.7745 87.7316 89.8627C79.8182 88.9508 73.6633 92.4353 72.784 100.316C72.3521 104.104 73.4425 107.907 75.8151 110.891C78.1878 113.874 81.6484 115.793 85.4357 116.225C89.223 116.656 93.0268 115.566 96.0102 113.193C98.9935 110.821 100.912 107.36 101.344 103.573V103.605Z" fill="#393542"/>
<path d="M101.344 103.605C102.256 95.6919 95.6451 90.7745 87.7316 89.8627C79.8182 88.9508 73.6633 92.4353 72.784 100.316C72.3521 104.104 73.4425 107.907 75.8151 110.891C78.1878 113.874 81.6484 115.793 85.4357 116.225C89.223 116.656 93.0268 115.566 96.0102 113.193C98.9935 110.821 100.912 107.36 101.344 103.573V103.605Z" fill="#423D4D"/>
<path d="M101.344 103.605C102.256 95.6919 95.6451 90.7745 87.7316 89.8627C79.8182 88.9508 73.6633 92.4353 72.784 100.316C72.3521 104.104 73.4425 107.907 75.8151 110.891C78.1878 113.874 81.6484 115.793 85.4357 116.225C89.223 116.656 93.0268 115.566 96.0102 113.193C98.9935 110.821 100.912 107.36 101.344 103.573V103.605Z" fill="#4C4759"/>
<path d="M120.2 103.605C119.321 95.6919 125.931 90.7745 133.812 89.8627C141.693 88.9508 147.881 92.4353 148.792 100.316C149.116 104.052 147.968 107.767 145.594 110.67C143.22 113.573 139.807 115.435 136.081 115.859C132.355 116.284 128.61 115.237 125.644 112.942C122.678 110.648 120.725 107.286 120.2 103.573V103.605Z" fill="#393542"/>
<path d="M120.2 103.605C119.321 95.6919 125.931 90.7745 133.812 89.8627C141.693 88.9508 147.881 92.4353 148.792 100.316C149.116 104.052 147.968 107.767 145.594 110.67C143.22 113.573 139.807 115.435 136.081 115.859C132.355 116.284 128.61 115.237 125.644 112.942C122.678 110.648 120.725 107.286 120.2 103.573V103.605Z" fill="#423D4D"/>
<path d="M120.2 103.605C119.321 95.6919 125.931 90.7745 133.812 89.8627C141.693 88.9508 147.881 92.4353 148.792 100.316C149.116 104.052 147.968 107.767 145.594 110.67C143.22 113.573 139.807 115.435 136.081 115.859C132.355 116.284 128.61 115.237 125.644 112.942C122.678 110.648 120.725 107.286 120.2 103.573V103.605Z" fill="#4C4759"/>
<path d="M83.5964 89.8302L77.0833 112.17C75.5316 110.642 74.3494 108.78 73.627 106.726C72.9045 104.671 72.661 102.479 72.9149 100.316C73.0888 97.5589 74.2757 94.963 76.2473 93.0275C78.2189 91.0919 80.8363 89.9532 83.5964 89.8302Z" fill="#454251"/>
<path d="M83.5964 89.8302L77.0833 112.17C75.5316 110.642 74.3494 108.78 73.627 106.726C72.9045 104.671 72.661 102.479 72.9149 100.316C73.0888 97.5589 74.2757 94.963 76.2473 93.0275C78.2189 91.0919 80.8363 89.9532 83.5964 89.8302Z" fill="#575366"/>
<path d="M163.154 29.7466C164.485 32.25 166.3 34.464 168.495 36.2597C172.468 39.3209 178.004 50.2955 174.682 71.3655C172.272 86.769 169.537 88.5601 167.615 88.2996C168.136 81.4608 166.15 79.9302 163.838 80.549C163.676 80.521 163.511 80.521 163.349 80.549L160.386 82.4052L158.53 83.773C158.53 83.4148 156.706 81.8842 156.217 81.1677L151.105 76.5434C149.607 75.1431 153.808 62.8333 145.113 57.004C136.418 51.1748 124.629 52.282 106.848 62.5727C106.848 62.5727 89.1974 52.2494 74.5754 62.5727C70.7326 65.2757 72.9797 69.7372 68.681 74.85C66.1734 77.3558 64.3948 80.4965 63.5356 83.9358C60.1162 80.6792 52.8215 75.3059 54.1893 87.4529C54.1893 88.2019 54.3847 89.0486 54.5149 89.7651C52.2826 86.5847 50.8627 82.9063 50.3791 79.051C48.5823 67.1319 48.1997 55.0422 49.2393 43.0334C54.4172 10.4677 67.4761 7.21114 87.048 10.0769C101.442 12.1611 115.022 1.77268 129.383 6.03878C140.13 9.29534 156.966 5.55029 156.966 18.7394L163.154 29.7466Z" fill="#36323F"/>
<path d="M163.154 29.7466C164.485 32.25 166.3 34.464 168.495 36.2597C172.468 39.3209 178.004 50.2955 174.682 71.3655C172.272 86.769 169.537 88.5601 167.615 88.2996C168.136 81.4608 166.15 79.9302 163.838 80.549C163.676 80.521 163.511 80.521 163.349 80.549L160.386 82.4052L158.53 83.773C158.53 83.4148 156.706 81.8842 156.217 81.1677L151.105 76.5434C149.607 75.1431 153.808 62.8333 145.113 57.004C136.418 51.1748 124.629 52.282 106.848 62.5727C106.848 62.5727 89.1974 52.2494 74.5754 62.5727C70.7326 65.2757 72.9797 69.7372 68.681 74.85C66.1734 77.3558 64.3948 80.4965 63.5356 83.9358C60.1162 80.6792 52.8215 75.3059 54.1893 87.4529C54.1893 88.2019 54.3847 89.0486 54.5149 89.7651C52.2826 86.5847 50.8627 82.9063 50.3791 79.051C48.5823 67.1319 48.1997 55.0422 49.2393 43.0334C54.4172 10.4677 67.4761 7.21114 87.048 10.0769C101.442 12.1611 115.022 1.77268 129.383 6.03878C140.13 9.29534 156.966 5.55029 156.966 18.7394L163.154 29.7466Z" fill="#403B4A"/>
<path d="M128.569 5.97367C122.007 7.20334 115.566 9.01239 109.323 11.3796C105.155 13.4638 82.8471 16.9157 72.6866 20.3677C62.5261 23.8196 61.3863 47.7228 61.3863 47.7228C59.3998 52.0215 62.9169 78.0414 63.5356 84.0987C60.1162 80.8421 52.8541 75.6316 54.1893 87.6157C54.1893 88.3648 54.3847 89.2115 54.5149 89.9279C52.2826 86.7476 50.8627 83.0692 50.3791 79.2138C48.5823 67.2947 48.1997 55.2051 49.2393 43.1962C54.4172 10.6306 67.4761 7.37399 87.0806 10.2398C101.149 12.2914 114.468 2.39145 128.569 5.97367Z" fill="#393542"/>
<path d="M128.569 5.97367C122.007 7.20334 115.566 9.01239 109.323 11.3796C105.155 13.4638 82.8471 16.9157 72.6866 20.3677C62.5261 23.8196 61.3863 47.7228 61.3863 47.7228C59.3998 52.0215 62.9169 78.0414 63.5356 84.0987C60.1162 80.8421 52.8541 75.6316 54.1893 87.6157C54.1893 88.3648 54.3847 89.2115 54.5149 89.9279C52.2826 86.7476 50.8627 83.0692 50.3791 79.2138C48.5823 67.2947 48.1997 55.2051 49.2393 43.1962C54.4172 10.6306 67.4761 7.37399 87.0806 10.2398C101.149 12.2914 114.468 2.39145 128.569 5.97367Z" fill="#423D4D"/>
<path d="M128.569 5.97367C122.007 7.20334 115.566 9.01239 109.323 11.3796C105.155 13.4638 82.8471 16.9157 72.6866 20.3677C62.5261 23.8196 61.3863 47.7228 61.3863 47.7228C59.3998 52.0215 62.9169 78.0414 63.5356 84.0987C60.1162 80.8421 52.8541 75.6316 54.1893 87.6157C54.1893 88.3648 54.3847 89.2115 54.5149 89.9279C52.2826 86.7476 50.8627 83.0692 50.3791 79.2138C48.5823 67.2947 48.1997 55.2051 49.2393 43.1962C54.4172 10.6306 67.4761 7.37399 87.0806 10.2398C101.149 12.2914 114.468 2.39145 128.569 5.97367Z" fill="#4C4759"/>
<path d="M174.682 71.4306C174.454 72.8309 174.227 74.1335 173.999 75.3059C174.212 67.9925 173.972 60.673 173.282 53.3892C171.523 47.7308 168.778 42.4279 165.173 37.7251C161.635 32.9298 158.457 27.8792 155.664 22.6147C154.436 19.7718 153.487 16.8161 152.831 13.7894C152.082 11.9006 143.061 9.13249 137.558 7.56934C147.034 8.54631 157.097 8.7417 157.097 18.9022L163.154 29.7465C164.485 32.25 166.301 34.464 168.495 36.2597C172.598 39.386 178.037 50.3606 174.682 71.4306Z" fill="#393542"/>
<path d="M174.682 71.4306C174.454 72.8309 174.227 74.1335 173.999 75.3059C174.212 67.9925 173.972 60.673 173.282 53.3892C171.523 47.7308 168.778 42.4279 165.173 37.7251C161.635 32.9298 158.457 27.8792 155.664 22.6147C154.436 19.7718 153.487 16.8161 152.831 13.7894C152.082 11.9006 143.061 9.13249 137.558 7.56934C147.034 8.54631 157.097 8.7417 157.097 18.9022L163.154 29.7465C164.485 32.25 166.301 34.464 168.495 36.2597C172.598 39.386 178.037 50.3606 174.682 71.4306Z" fill="#423D4D"/>
<path d="M174.682 71.4306C174.454 72.8309 174.227 74.1335 173.999 75.3059C174.212 67.9925 173.972 60.673 173.282 53.3892C171.523 47.7308 168.778 42.4279 165.173 37.7251C161.635 32.9298 158.457 27.8792 155.664 22.6147C154.436 19.7718 153.487 16.8161 152.831 13.7894C152.082 11.9006 143.061 9.13249 137.558 7.56934C147.034 8.54631 157.097 8.7417 157.097 18.9022L163.154 29.7465C164.485 32.25 166.301 34.464 168.495 36.2597C172.598 39.386 178.037 50.3606 174.682 71.4306Z" fill="#4C4759"/>
<path d="M95.5146 146.462C99.8002 149.961 105.192 151.819 110.723 151.705C116.402 151.723 121.883 149.621 126.094 145.81C121.494 144.179 116.697 143.171 111.83 142.814C106.263 143.358 100.783 144.583 95.5146 146.462Z" fill="#393542"/>
<path d="M95.5146 146.462C99.8002 149.961 105.192 151.819 110.723 151.705C116.402 151.723 121.883 149.621 126.094 145.81C121.494 144.179 116.697 143.171 111.83 142.814C106.263 143.358 100.783 144.583 95.5146 146.462Z" fill="#423D4D"/>
<path d="M95.5146 146.462C99.8002 149.961 105.192 151.819 110.723 151.705C116.402 151.723 121.883 149.621 126.094 145.81C121.494 144.179 116.697 143.171 111.83 142.814C106.263 143.358 100.783 144.583 95.5146 146.462Z" fill="#4C4759"/>
</svg>
