<svg width="331" height="275" viewBox="0 0 331 275" fill="none" xmlns="http://www.w3.org/2000/svg">
<path d="M322.428 240.273C321.852 241.392 321.277 242.511 320.605 243.47C317.888 248.249 314.59 252.674 310.788 256.645C309.797 257.732 308.709 258.756 307.59 259.843L305.863 261.378C304.68 262.401 303.465 263.392 302.186 264.384C300.907 265.375 299.564 266.302 298.189 267.262C296.814 268.221 295.343 269.116 293.808 270.012C290.702 271.826 287.5 273.47 284.215 274.936H120.491L117.741 273.625L116.238 272.858C111.689 270.504 107.336 267.788 103.223 264.735C100.084 262.405 97.0637 259.918 94.1739 257.285C93.2465 256.453 92.3192 255.558 91.3599 254.63C85.334 248.801 79.8041 242.479 74.8276 235.732C73.8043 234.325 72.7491 232.886 71.6299 231.383C70.031 229.113 68.4321 226.746 66.8652 224.252C65.2984 221.758 64.2431 220.063 62.932 217.857C55.5694 205.181 49.2182 191.944 43.9375 178.269C41.6778 172.406 39.8231 166.895 38.3735 161.736C38.0217 160.585 37.702 159.434 37.3822 158.315C37.0624 157.196 36.7107 155.757 36.3589 154.542C21.5215 96.9825 42.3387 63.6301 41.2195 28.4551C40.5799 8.05362 116.75 -9.21411 151.605 5.49544C194.774 23.8504 208.589 53.2056 233.115 166.277C248.656 237.683 282.904 229.272 305.927 213.508C309.453 211.057 312.837 208.409 316.064 205.577L317.695 204.138L319.23 202.731C320.381 201.676 321.436 200.653 322.428 199.694L324.602 197.487C325.434 196.624 326.169 195.856 326.745 195.185C327.32 194.513 327.32 194.545 327.544 194.289L328.216 193.522L328.887 192.754C331.78 208.879 329.52 225.505 322.428 240.273Z" fill="#393542"/>
<path d="M322.428 240.273C321.852 241.392 321.277 242.511 320.605 243.47C317.888 248.249 314.59 252.674 310.788 256.645C309.797 257.732 308.709 258.756 307.59 259.843L305.863 261.378C304.68 262.401 303.465 263.392 302.186 264.384C300.907 265.375 299.564 266.302 298.189 267.262C296.814 268.221 295.343 269.116 293.808 270.012C290.702 271.826 287.5 273.47 284.215 274.936H120.491L117.741 273.625L116.238 272.858C111.689 270.504 107.336 267.788 103.223 264.735C100.084 262.405 97.0637 259.918 94.1739 257.285C93.2465 256.453 92.3192 255.558 91.3599 254.63C85.334 248.801 79.8041 242.479 74.8276 235.732C73.8043 234.325 72.7491 232.886 71.6299 231.383C70.031 229.113 68.4321 226.746 66.8652 224.252C65.2984 221.758 64.2431 220.063 62.932 217.857C55.5694 205.181 49.2182 191.944 43.9375 178.269C41.6778 172.406 39.8231 166.895 38.3735 161.736C38.0217 160.585 37.702 159.434 37.3822 158.315C37.0624 157.196 36.7107 155.757 36.3589 154.542C21.5215 96.9825 42.3387 63.6301 41.2195 28.4551C40.5799 8.05362 116.75 -9.21411 151.605 5.49544C194.774 23.8504 208.589 53.2056 233.115 166.277C248.656 237.683 282.904 229.272 305.927 213.508C309.453 211.057 312.837 208.409 316.064 205.577L317.695 204.138L319.23 202.731C320.381 201.676 321.436 200.653 322.428 199.694L324.602 197.487C325.434 196.624 326.169 195.856 326.745 195.185C327.32 194.513 327.32 194.545 327.544 194.289L328.216 193.522L328.887 192.754C331.78 208.879 329.52 225.505 322.428 240.273Z" fill="#423D4D"/>
<path d="M322.428 240.273C321.852 241.392 321.277 242.511 320.605 243.47C317.888 248.249 314.59 252.674 310.788 256.645C309.797 257.732 308.709 258.756 307.59 259.843L305.863 261.378C304.68 262.401 303.465 263.392 302.186 264.384C300.907 265.375 299.564 266.302 298.189 267.262C296.814 268.221 295.343 269.116 293.808 270.012C290.702 271.826 287.5 273.47 284.215 274.936H120.491L117.741 273.625L116.238 272.858C111.689 270.504 107.336 267.788 103.223 264.735C100.084 262.405 97.0637 259.918 94.1739 257.285C93.2465 256.453 92.3192 255.558 91.3599 254.63C85.334 248.801 79.8041 242.479 74.8276 235.732C73.8043 234.325 72.7491 232.886 71.6299 231.383C70.031 229.113 68.4321 226.746 66.8652 224.252C65.2984 221.758 64.2431 220.063 62.932 217.857C55.5694 205.181 49.2182 191.944 43.9375 178.269C41.6778 172.406 39.8231 166.895 38.3735 161.736C38.0217 160.585 37.702 159.434 37.3822 158.315C37.0624 157.196 36.7107 155.757 36.3589 154.542C21.5215 96.9825 42.3387 63.6301 41.2195 28.4551C40.5799 8.05362 116.75 -9.21411 151.605 5.49544C194.774 23.8504 208.589 53.2056 233.115 166.277C248.656 237.683 282.904 229.272 305.927 213.508C309.453 211.057 312.837 208.409 316.064 205.577L317.695 204.138L319.23 202.731C320.381 201.676 321.436 200.653 322.428 199.694L324.602 197.487C325.434 196.624 326.169 195.856 326.745 195.185C327.32 194.513 327.32 194.545 327.544 194.289L328.216 193.522L328.887 192.754C331.78 208.879 329.52 225.505 322.428 240.273Z" fill="#4C4759"/>
<path d="M322.427 240.273C321.852 241.381 321.244 242.447 320.605 243.471C317.887 248.25 314.59 252.675 310.788 256.645C309.796 257.7 308.741 258.724 307.59 259.843L305.863 261.378C304.68 262.401 303.465 263.392 302.186 264.384C300.907 265.375 299.564 266.302 298.189 267.262C296.814 268.221 295.343 269.116 293.808 270.012C290.702 271.827 287.499 273.471 284.214 274.936H120.491L117.741 273.625L116.238 272.858C111.688 270.504 107.336 267.788 103.223 264.735C100.313 262.561 97.3072 260.099 94.1735 257.285C93.2461 256.453 92.3188 255.558 91.3595 254.631C85.3336 248.801 79.8037 242.48 74.8272 235.732C73.8039 234.325 72.7487 232.886 71.6295 231.383C70.0306 229.113 68.4318 226.746 66.8649 224.252C65.298 221.758 64.2427 220.063 62.9317 217.857C55.5691 205.181 49.2179 191.944 43.9372 178.269C41.6774 172.406 39.8227 166.896 38.3731 161.737C38.0214 160.585 37.7016 159.434 37.3818 158.315C37.062 157.196 36.7103 155.757 36.3585 154.542C22.7042 100.18 46.911 77.5085 44.8645 28.1036C44.4488 18.5104 64.7863 12.1149 85.0599 6.39099C100.01 2.25954 115.909 3.20826 130.262 9.08828C144.615 14.9683 156.609 25.4469 164.364 38.8799L173.477 54.6447C188.813 80.8008 197.702 110.232 199.411 140.504C203.728 225.467 242.388 246.636 265.252 239.314C280.626 233.883 294.583 225.063 306.087 213.508C309.612 211.057 312.997 208.41 316.224 205.578L317.855 204.139L319.389 202.732L322.587 199.694L324.762 197.487L326.904 195.185L327.704 194.29L328.375 193.522L329.047 192.755C331.89 208.896 329.574 225.523 322.427 240.273Z" fill="#36323F"/>
<path d="M322.427 240.273C321.852 241.381 321.244 242.447 320.605 243.471C317.887 248.25 314.59 252.675 310.788 256.645C309.796 257.7 308.741 258.724 307.59 259.843L305.863 261.378C304.68 262.401 303.465 263.392 302.186 264.384C300.907 265.375 299.564 266.302 298.189 267.262C296.814 268.221 295.343 269.116 293.808 270.012C290.702 271.827 287.499 273.471 284.214 274.936H120.491L117.741 273.625L116.238 272.858C111.688 270.504 107.336 267.788 103.223 264.735C100.313 262.561 97.3072 260.099 94.1735 257.285C93.2461 256.453 92.3188 255.558 91.3595 254.631C85.3336 248.801 79.8037 242.48 74.8272 235.732C73.8039 234.325 72.7487 232.886 71.6295 231.383C70.0306 229.113 68.4318 226.746 66.8649 224.252C65.298 221.758 64.2427 220.063 62.9317 217.857C55.5691 205.181 49.2179 191.944 43.9372 178.269C41.6774 172.406 39.8227 166.896 38.3731 161.737C38.0214 160.585 37.7016 159.434 37.3818 158.315C37.062 157.196 36.7103 155.757 36.3585 154.542C22.7042 100.18 46.911 77.5085 44.8645 28.1036C44.4488 18.5104 64.7863 12.1149 85.0599 6.39099C100.01 2.25954 115.909 3.20826 130.262 9.08828C144.615 14.9683 156.609 25.4469 164.364 38.8799L173.477 54.6447C188.813 80.8008 197.702 110.232 199.411 140.504C203.728 225.467 242.388 246.636 265.252 239.314C280.626 233.883 294.583 225.063 306.087 213.508C309.612 211.057 312.997 208.41 316.224 205.578L317.855 204.139L319.389 202.732L322.587 199.694L324.762 197.487L326.904 195.185L327.704 194.29L328.375 193.522L329.047 192.755C331.89 208.896 329.574 225.523 322.427 240.273Z" fill="#403B4A"/>
<path d="M215.4 275H1.56836C2.52667 259.693 7.63375 244.935 16.3419 232.31C30.8596 210.63 66.7381 211.237 74.5085 205.417C74.5085 205.417 74.7644 205.194 74.9243 205.098C76.8143 203.076 78.2147 200.647 79.0173 197.999C81.975 187.795 83.461 177.221 83.4302 166.597C83.4302 163.047 83.2384 161.193 83.2384 158.826C82.7267 144.373 81.6395 116.584 85.2849 109.933C90.2094 101.043 126.6 101.555 129.605 109.23C131.972 115.369 133.091 149.297 133.475 163.079C133.475 163.975 133.475 165.03 133.475 166.597C133.475 168.164 133.475 170.754 133.699 173.536C134.118 181.327 135.394 189.048 137.504 196.56C138.294 199.684 139.83 202.57 141.981 204.97C148.792 211.141 185.694 210.086 200.531 232.182C209.301 244.831 214.443 259.638 215.4 275Z" fill="#645486"/>
<path d="M215.4 275H1.56836C2.52667 259.693 7.63375 244.935 16.3419 232.31C30.8596 210.63 66.7381 211.237 74.5085 205.417C74.5085 205.417 74.7644 205.194 74.9243 205.098C76.8143 203.076 78.2147 200.647 79.0173 197.999C81.975 187.795 83.461 177.221 83.4302 166.597C83.4302 163.047 83.2384 161.193 83.2384 158.826C82.7267 144.373 81.6395 116.584 85.2849 109.933C90.2094 101.043 126.6 101.555 129.605 109.23C131.972 115.369 133.091 149.297 133.475 163.079C133.475 163.975 133.475 165.03 133.475 166.597C133.475 168.164 133.475 170.754 133.699 173.536C134.118 181.327 135.394 189.048 137.504 196.56C138.294 199.684 139.83 202.57 141.981 204.97C148.792 211.141 185.694 210.086 200.531 232.182C209.301 244.831 214.443 259.638 215.4 275Z" fill="#9478BF"/>
<path d="M215.4 275H1.56836C2.52667 259.693 7.63375 244.935 16.3419 232.31C30.8596 210.63 66.7381 211.237 74.5085 205.417C74.5085 205.417 74.7644 205.194 74.9243 205.098C76.8143 203.076 78.2147 200.647 79.0173 197.999C81.975 187.795 83.461 177.221 83.4302 166.597C83.4302 163.047 83.2384 161.193 83.2384 158.826C82.7267 144.373 81.6395 116.584 85.2849 109.933C90.2094 101.043 126.6 101.555 129.605 109.23C131.972 115.369 133.091 149.297 133.475 163.079C133.475 163.975 133.475 165.03 133.475 166.597C133.475 168.164 133.475 170.754 133.699 173.536C134.118 181.327 135.394 189.048 137.504 196.56C138.294 199.684 139.83 202.57 141.981 204.97C148.792 211.141 185.694 210.086 200.531 232.182C209.301 244.831 214.443 259.638 215.4 275Z" fill="#8779BF"/>
<path d="M217.989 275H0C1.01163 263.376 4.15518 252.037 9.27341 241.552C17.3317 226.522 23.951 218.656 38.9803 214.531C54.0096 210.406 75.4344 205.865 75.4344 199.438C75.4344 199.438 85.3794 207.112 86.3067 212.868C87.234 218.624 90.3998 244.046 101.272 249.418C104.055 251.277 106.638 253.421 108.979 255.814C111.327 253.429 113.908 251.286 116.685 249.418C127.557 244.014 130.723 218.624 131.65 212.836C132.578 207.048 142.523 199.406 142.523 199.406C142.523 205.801 163.948 210.374 178.977 214.499C194.006 218.624 200.626 226.49 208.684 241.52C213.825 252.01 216.98 263.361 217.989 275Z" fill="#393542"/>
<path d="M217.989 275H0C1.01163 263.376 4.15518 252.037 9.27341 241.552C17.3317 226.522 23.951 218.656 38.9803 214.531C54.0096 210.406 75.4344 205.865 75.4344 199.438C75.4344 199.438 85.3794 207.112 86.3067 212.868C87.234 218.624 90.3998 244.046 101.272 249.418C104.055 251.277 106.638 253.421 108.979 255.814C111.327 253.429 113.908 251.286 116.685 249.418C127.557 244.014 130.723 218.624 131.65 212.836C132.578 207.048 142.523 199.406 142.523 199.406C142.523 205.801 163.948 210.374 178.977 214.499C194.006 218.624 200.626 226.49 208.684 241.52C213.825 252.01 216.98 263.361 217.989 275Z" fill="#423D4D"/>
<path d="M217.989 275H0C1.01163 263.376 4.15518 252.037 9.27341 241.552C17.3317 226.522 23.951 218.656 38.9803 214.531C54.0096 210.406 75.4344 205.865 75.4344 199.438C75.4344 199.438 85.3794 207.112 86.3067 212.868C87.234 218.624 90.3998 244.046 101.272 249.418C104.055 251.277 106.638 253.421 108.979 255.814C111.327 253.429 113.908 251.286 116.685 249.418C127.557 244.014 130.723 218.624 131.65 212.836C132.578 207.048 142.523 199.406 142.523 199.406C142.523 205.801 163.948 210.374 178.977 214.499C194.006 218.624 200.626 226.49 208.684 241.52C213.825 252.01 216.98 263.361 217.989 275Z" fill="#4C4759"/>
<path d="M217.988 275H186.011C186.011 262.881 183.869 235.924 166.825 223.836C145.304 208.679 142.842 208.391 142.714 199.534C143.098 205.929 164.267 210.342 179.136 214.435C194.005 218.528 200.785 226.427 208.843 241.456C213.936 251.977 217.037 263.35 217.988 275Z" fill="#454251"/>
<path d="M217.988 275H186.011C186.011 262.881 183.869 235.924 166.825 223.836C145.304 208.679 142.842 208.391 142.714 199.534C143.098 205.929 164.267 210.342 179.136 214.435C194.005 218.528 200.785 226.427 208.843 241.456C213.936 251.977 217.037 263.35 217.988 275Z" fill="#575366"/>
<path d="M157.394 112.524C157.328 116.611 156.921 120.687 156.178 124.707C151.19 153.007 131.652 181.211 109.971 181.211C91.8082 181.211 60.5664 149.649 60.5664 110.861C60.5664 63.7902 81.2237 50.5516 108.532 50.5516C131.172 50.5516 150.614 61.7757 155.987 92.1221C157.103 98.8624 157.575 105.694 157.394 112.524Z" fill="#726099"/>
<path d="M157.394 112.524C157.328 116.611 156.921 120.687 156.178 124.707C151.19 153.007 131.652 181.211 109.971 181.211C91.8082 181.211 60.5664 149.649 60.5664 110.861C60.5664 63.7902 81.2237 50.5516 108.532 50.5516C131.172 50.5516 150.614 61.7757 155.987 92.1221C157.103 98.8624 157.575 105.694 157.394 112.524Z" fill="#AA8ADB"/>
<path d="M157.394 112.524C157.328 116.611 156.921 120.687 156.178 124.707C151.19 153.007 131.652 181.211 109.971 181.211C91.8082 181.211 60.5664 149.649 60.5664 110.861C60.5664 63.7902 81.2237 50.5516 108.532 50.5516C131.172 50.5516 150.614 61.7757 155.987 92.1221C157.103 98.8624 157.575 105.694 157.394 112.524Z" fill="#9A8ADB"/>
<path d="M124.871 150.065C120.644 153.899 115.829 157.03 110.609 159.338C109.575 159.707 108.445 159.707 107.411 159.338C102.192 157.03 97.3763 153.899 93.1494 150.065C96.168 148.822 99.0958 147.368 101.911 145.716C103.004 145.15 104.204 144.82 105.432 144.748C106.661 144.677 107.891 144.865 109.042 145.3C110.193 144.865 111.423 144.677 112.652 144.748C113.881 144.82 115.08 145.15 116.173 145.716C118.968 147.366 121.874 148.819 124.871 150.065Z" fill="#36323F"/>
<path d="M124.871 150.065C120.644 153.899 115.829 157.03 110.609 159.338C109.575 159.707 108.445 159.707 107.411 159.338C102.192 157.03 97.3763 153.899 93.1494 150.065C96.168 148.822 99.0958 147.368 101.911 145.716C103.004 145.15 104.204 144.82 105.432 144.748C106.661 144.677 107.891 144.865 109.042 145.3C110.193 144.865 111.423 144.677 112.652 144.748C113.881 144.82 115.08 145.15 116.173 145.716C118.968 147.366 121.874 148.819 124.871 150.065Z" fill="#403B4A"/>
<path d="M100.601 120.741C88.6392 120.206 76.7495 118.601 65.0741 115.945C64.3218 107.984 64.1722 99.9773 64.6265 91.9938C64.8826 89.3594 65.2991 86.7431 65.8736 84.1593C79.7757 86.9094 93.9121 88.3016 108.084 88.3164H108.467C121.206 88.0472 133.915 86.9792 146.52 85.1187C149.507 84.7297 152.381 83.7282 154.962 82.1768C156.668 89.0155 157.655 96.014 157.904 103.058C157.947 107.082 157.787 111.105 157.425 115.113C156.561 115.433 154.419 115.753 153.491 116.041C151.189 116.776 148.759 117.48 146.169 118.055C136.182 119.745 126.078 120.643 115.95 120.741H100.601Z" fill="#393542"/>
<path d="M100.601 120.741C88.6392 120.206 76.7495 118.601 65.0741 115.945C64.3218 107.984 64.1722 99.9773 64.6265 91.9938C64.8826 89.3594 65.2991 86.7431 65.8736 84.1593C79.7757 86.9094 93.9121 88.3016 108.084 88.3164H108.467C121.206 88.0472 133.915 86.9792 146.52 85.1187C149.507 84.7297 152.381 83.7282 154.962 82.1768C156.668 89.0155 157.655 96.014 157.904 103.058C157.947 107.082 157.787 111.105 157.425 115.113C156.561 115.433 154.419 115.753 153.491 116.041C151.189 116.776 148.759 117.48 146.169 118.055C136.182 119.745 126.078 120.643 115.95 120.741H100.601Z" fill="#423D4D"/>
<path d="M100.601 120.741C88.6392 120.206 76.7495 118.601 65.0741 115.945C64.3218 107.984 64.1722 99.9773 64.6265 91.9938C64.8826 89.3594 65.2991 86.7431 65.8736 84.1593C79.7757 86.9094 93.9121 88.3016 108.084 88.3164H108.467C121.206 88.0472 133.915 86.9792 146.52 85.1187C149.507 84.7297 152.381 83.7282 154.962 82.1768C156.668 89.0155 157.655 96.014 157.904 103.058C157.947 107.082 157.787 111.105 157.425 115.113C156.561 115.433 154.419 115.753 153.491 116.041C151.189 116.776 148.759 117.48 146.169 118.055C136.182 119.745 126.078 120.643 115.95 120.741H100.601Z" fill="#4C4759"/>
<path d="M143.193 156.684C143.449 154.158 148.374 110.317 147.574 101.427C146.039 84.9909 136.031 63.9499 132.961 60.7521C129.891 57.5544 113.039 58.5137 106.1 51.159C99.1608 58.4498 82.2767 57.5544 79.2389 60.7521C76.2011 63.9499 66.1602 84.927 64.6253 101.491C63.9538 110.445 68.7504 154.286 69.0062 156.684C22.3833 41.182 106.1 38.368 106.1 38.368C106.1 38.368 189.976 41.182 143.193 156.684Z" fill="#36323F"/>
<path d="M143.193 156.684C143.449 154.158 148.374 110.317 147.574 101.427C146.039 84.9909 136.031 63.9499 132.961 60.7521C129.891 57.5544 113.039 58.5137 106.1 51.159C99.1608 58.4498 82.2767 57.5544 79.2389 60.7521C76.2011 63.9499 66.1602 84.927 64.6253 101.491C63.9538 110.445 68.7504 154.286 69.0062 156.684C22.3833 41.182 106.1 38.368 106.1 38.368C106.1 38.368 189.976 41.182 143.193 156.684Z" fill="#403B4A"/>
</svg>
