<svg width="31" height="32" viewBox="0 0 31 32" fill="none" xmlns="http://www.w3.org/2000/svg">
<path d="M30.3843 17.3211C30.3926 20.009 29.7878 22.6634 28.6158 25.0824C28.6158 25.0824 24.7371 34.1575 17.2603 30.5341C17.2603 30.5341 16.4546 30.1631 16.8096 29.0116C16.8309 28.9438 16.8561 28.8786 16.8867 28.7975C17.4186 27.4772 23.4659 15.7494 24.8648 15.4316C25.7955 15.2215 27.4643 15.6896 28.4842 17.1908C28.528 16.7542 28.5498 16.3158 28.5493 15.877C28.5493 14.1415 28.2075 12.423 27.5433 10.8196C26.8792 9.21622 25.9057 7.75934 24.6785 6.53215C23.4513 5.30496 21.9945 4.3315 20.3911 3.66735C18.7877 3.0032 17.0691 2.66137 15.3336 2.66137C13.5981 2.66137 11.8796 3.0032 10.2762 3.66735C8.67281 4.3315 7.21593 5.30496 5.98874 6.53215C4.76155 7.75934 3.78809 9.21622 3.12394 10.8196C2.45979 12.423 2.11796 14.1415 2.11796 15.877C2.11748 16.3158 2.13922 16.7542 2.18311 17.1908C3.20298 15.6896 4.87571 15.2215 5.8025 15.4316C7.20132 15.7494 13.2487 27.4772 13.7806 28.7975C13.8112 28.872 13.8364 28.9438 13.8577 29.0116C14.2127 30.1631 13.4069 30.5341 13.4069 30.5341C5.93015 34.1561 2.05147 25.0824 2.05147 25.0824C0.878591 22.6636 0.272852 20.0092 0.280342 17.3211C0.280342 17.0684 0.280342 16.8171 0.297628 16.5685C0.646004 8.04923 6.89948 1.20936 14.6834 0.847687C14.7698 0.847687 14.8563 0.839709 14.9494 0.838379C15.0823 0.838379 15.2073 0.838379 15.3376 0.838379C15.4679 0.838379 15.6036 0.838379 15.7259 0.838379C15.8136 0.838379 15.9001 0.838379 15.9918 0.847687C23.7758 1.20936 30.0292 8.04923 30.3776 16.5725C30.3789 16.8211 30.3843 17.0724 30.3843 17.3211Z" fill="#D3C7C8"/>
<path d="M30.3843 17.3211C30.3926 20.009 29.7878 22.6634 28.6158 25.0824C28.6158 25.0824 24.7371 34.1575 17.2603 30.5341C17.2603 30.5341 16.4546 30.1631 16.8096 29.0116C16.8309 28.9438 16.8561 28.8786 16.8867 28.7975C17.4186 27.4772 23.4659 15.7494 24.8648 15.4316C25.7955 15.2215 27.4643 15.6896 28.4842 17.1908C28.528 16.7542 28.5498 16.3158 28.5493 15.877C28.5493 14.1415 28.2075 12.423 27.5433 10.8196C26.8792 9.21622 25.9057 7.75934 24.6785 6.53215C23.4513 5.30496 21.9945 4.3315 20.3911 3.66735C18.7877 3.0032 17.0691 2.66137 15.3336 2.66137C13.5981 2.66137 11.8796 3.0032 10.2762 3.66735C8.67281 4.3315 7.21593 5.30496 5.98874 6.53215C4.76155 7.75934 3.78809 9.21622 3.12394 10.8196C2.45979 12.423 2.11796 14.1415 2.11796 15.877C2.11748 16.3158 2.13922 16.7542 2.18311 17.1908C3.20298 15.6896 4.87571 15.2215 5.8025 15.4316C7.20132 15.7494 13.2487 27.4772 13.7806 28.7975C13.8112 28.872 13.8364 28.9438 13.8577 29.0116C14.2127 30.1631 13.4069 30.5341 13.4069 30.5341C5.93015 34.1561 2.05147 25.0824 2.05147 25.0824C0.878591 22.6636 0.272852 20.0092 0.280342 17.3211C0.280342 17.0684 0.280342 16.8171 0.297628 16.5685C0.646004 8.04923 6.89948 1.20936 14.6834 0.847687C14.7698 0.847687 14.8563 0.839709 14.9494 0.838379C15.0823 0.838379 15.2073 0.838379 15.3376 0.838379C15.4679 0.838379 15.6036 0.838379 15.7259 0.838379C15.8136 0.838379 15.9001 0.838379 15.9918 0.847687C23.7758 1.20936 30.0292 8.04923 30.3776 16.5725C30.3789 16.8211 30.3843 17.0724 30.3843 17.3211Z" fill="#FFF6F0"/>
</svg>
