<svg width="503" height="676" viewBox="0 0 503 676" fill="none" xmlns="http://www.w3.org/2000/svg">
<path d="M0.911133 611V675.4H270.911C245.911 645.29 171.571 556.6 155.161 549.82C135.381 541.65 96.0311 519.72 88.0711 519.72L84.6411 523.39C73.5911 535.26 37.3311 574 0.911133 611Z" fill="#454251"/>
<path d="M0.911133 611V675.4H270.911C245.911 645.29 171.571 556.6 155.161 549.82C135.381 541.65 96.0311 519.72 88.0711 519.72L84.6411 523.39C73.5911 535.26 37.3311 574 0.911133 611Z" fill="#575366"/>
<path d="M371.421 115.73C371.421 115.73 386.911 92.91 386.911 72.59C386.911 52.27 322.321 0 312.031 0C301.741 0 249.491 30.23 207.911 40.65C166.331 51.07 96.2014 84 83.0114 115.73C69.8214 147.46 30.7514 204.21 24.9114 218.73C19.0714 233.25 24.9114 247.9 24.9114 267.19C24.9114 286.48 -4.08861 352.93 22.3314 379.38C48.7514 405.83 81.0414 494.66 95.5614 489.38C110.081 484.1 180.731 475.51 205.891 481.32C231.051 487.13 371.421 115.73 371.421 115.73Z" fill="#36323F"/>
<path d="M371.421 115.73C371.421 115.73 386.911 92.91 386.911 72.59C386.911 52.27 322.321 0 312.031 0C301.741 0 249.491 30.23 207.911 40.65C166.331 51.07 96.2014 84 83.0114 115.73C69.8214 147.46 30.7514 204.21 24.9114 218.73C19.0714 233.25 24.9114 247.9 24.9114 267.19C24.9114 286.48 -4.08861 352.93 22.3314 379.38C48.7514 405.83 81.0414 494.66 95.5614 489.38C110.081 484.1 180.731 475.51 205.891 481.32C231.051 487.13 371.421 115.73 371.421 115.73Z" fill="#403B4A"/>
<path d="M83.0107 522.62C83.0107 522.62 83.5807 522.9 84.6407 523.39C93.4507 527.61 136.011 548.24 166.241 568.11C191.801 584.91 233.451 646.3 252.331 675.4H396.171C386.172 654.303 374.05 634.279 359.991 615.64C293.811 527.64 200.771 488 178.271 479.42C175.011 478.16 173.271 477.56 173.271 477.56C173.271 477.56 107.271 484.87 96.6007 484.87C94.5407 484.87 92.7507 486.3 91.2407 488.6C84.9107 498.12 83.0107 522.62 83.0107 522.62Z" fill="#36323F"/>
<path d="M83.0107 522.62C83.0107 522.62 83.5807 522.9 84.6407 523.39C93.4507 527.61 136.011 548.24 166.241 568.11C191.801 584.91 233.451 646.3 252.331 675.4H396.171C386.172 654.303 374.05 634.279 359.991 615.64C293.811 527.64 200.771 488 178.271 479.42C175.011 478.16 173.271 477.56 173.271 477.56C173.271 477.56 107.271 484.87 96.6007 484.87C94.5407 484.87 92.7507 486.3 91.2407 488.6C84.9107 498.12 83.0107 522.62 83.0107 522.62Z" fill="#403B4A"/>
<path d="M124.621 325.3C128.671 332.67 145.701 351.96 145.701 351.96C145.701 351.96 177.111 411.32 177.111 419.49C177.111 427.66 173.231 477.56 173.231 477.56L175.131 479.47C183.701 488.03 218.551 522.89 222.691 527.03C227.431 531.76 285.071 616.03 288.941 623.38C291.531 628.29 306.731 657.03 316.441 675.38H330.911C336.811 661 345.201 641.38 348.331 638.27C350.611 636 355.431 626.15 360.021 615.62C365.531 602.99 370.701 589.38 370.701 586.79C370.701 582.07 392.631 559.7 392.631 534.32C392.631 508.94 404.631 494.32 404.631 494.32C408.491 488.32 413.241 485.5 429.581 477.32C445.921 469.14 477.981 463.32 491.951 452.16C505.921 441 501.631 423.34 500.561 417.75C499.491 412.16 485.081 400.75 485.081 400.75L486.571 388.48C486.571 388.48 486.571 385.2 488.971 377.84L489.151 377.33C491.731 369.59 481.621 362.92 481.621 362.92C481.621 362.92 487.931 347.92 483.261 337.16C482.47 335.294 481.329 333.597 479.901 332.16C469.581 321.84 471.301 306.36 487.651 298.16C504.001 289.96 497.111 278.37 497.111 272.35C497.111 266.33 456.731 239.25 456.731 239.25V239.04L456.571 220.73V220.38C456.571 220.23 456.571 220.03 456.571 219.8C456.571 218.9 456.491 217.38 456.271 215.35C454.589 201.651 449.561 188.576 441.631 177.28C420.701 146.93 399.951 122.07 377.631 104.89C375.741 103.44 373.861 102.05 371.951 100.72C347.441 83.5101 336.691 88.25 331.101 93.84C325.511 99.43 325.101 118.78 322.101 128.25C319.101 137.72 300.601 177.72 296.731 197.5C292.861 217.28 268.331 234.07 268.331 240.94C268.331 247.81 270.911 270.2 268.761 279.66C266.611 289.12 250.231 293 246.781 296.48C243.331 299.96 204.631 284 177.111 272.39C149.591 260.78 131.991 273.23 126.341 284C119.241 297.55 122.141 320.77 124.621 325.3Z" fill="#645486"/>
<path d="M124.621 325.3C128.671 332.67 145.701 351.96 145.701 351.96C145.701 351.96 177.111 411.32 177.111 419.49C177.111 427.66 173.231 477.56 173.231 477.56L175.131 479.47C183.701 488.03 218.551 522.89 222.691 527.03C227.431 531.76 285.071 616.03 288.941 623.38C291.531 628.29 306.731 657.03 316.441 675.38H330.911C336.811 661 345.201 641.38 348.331 638.27C350.611 636 355.431 626.15 360.021 615.62C365.531 602.99 370.701 589.38 370.701 586.79C370.701 582.07 392.631 559.7 392.631 534.32C392.631 508.94 404.631 494.32 404.631 494.32C408.491 488.32 413.241 485.5 429.581 477.32C445.921 469.14 477.981 463.32 491.951 452.16C505.921 441 501.631 423.34 500.561 417.75C499.491 412.16 485.081 400.75 485.081 400.75L486.571 388.48C486.571 388.48 486.571 385.2 488.971 377.84L489.151 377.33C491.731 369.59 481.621 362.92 481.621 362.92C481.621 362.92 487.931 347.92 483.261 337.16C482.47 335.294 481.329 333.597 479.901 332.16C469.581 321.84 471.301 306.36 487.651 298.16C504.001 289.96 497.111 278.37 497.111 272.35C497.111 266.33 456.731 239.25 456.731 239.25V239.04L456.571 220.73V220.38C456.571 220.23 456.571 220.03 456.571 219.8C456.571 218.9 456.491 217.38 456.271 215.35C454.589 201.651 449.561 188.576 441.631 177.28C420.701 146.93 399.951 122.07 377.631 104.89C375.741 103.44 373.861 102.05 371.951 100.72C347.441 83.5101 336.691 88.25 331.101 93.84C325.511 99.43 325.101 118.78 322.101 128.25C319.101 137.72 300.601 177.72 296.731 197.5C292.861 217.28 268.331 234.07 268.331 240.94C268.331 247.81 270.911 270.2 268.761 279.66C266.611 289.12 250.231 293 246.781 296.48C243.331 299.96 204.631 284 177.111 272.39C149.591 260.78 131.991 273.23 126.341 284C119.241 297.55 122.141 320.77 124.621 325.3Z" fill="#9478BF"/>
<path d="M124.621 325.3C128.671 332.67 145.701 351.96 145.701 351.96C145.701 351.96 177.111 411.32 177.111 419.49C177.111 427.66 173.231 477.56 173.231 477.56L175.131 479.47C183.701 488.03 218.551 522.89 222.691 527.03C227.431 531.76 285.071 616.03 288.941 623.38C291.531 628.29 306.731 657.03 316.441 675.38H330.911C336.811 661 345.201 641.38 348.331 638.27C350.611 636 355.431 626.15 360.021 615.62C365.531 602.99 370.701 589.38 370.701 586.79C370.701 582.07 392.631 559.7 392.631 534.32C392.631 508.94 404.631 494.32 404.631 494.32C408.491 488.32 413.241 485.5 429.581 477.32C445.921 469.14 477.981 463.32 491.951 452.16C505.921 441 501.631 423.34 500.561 417.75C499.491 412.16 485.081 400.75 485.081 400.75L486.571 388.48C486.571 388.48 486.571 385.2 488.971 377.84L489.151 377.33C491.731 369.59 481.621 362.92 481.621 362.92C481.621 362.92 487.931 347.92 483.261 337.16C482.47 335.294 481.329 333.597 479.901 332.16C469.581 321.84 471.301 306.36 487.651 298.16C504.001 289.96 497.111 278.37 497.111 272.35C497.111 266.33 456.731 239.25 456.731 239.25V239.04L456.571 220.73V220.38C456.571 220.23 456.571 220.03 456.571 219.8C456.571 218.9 456.491 217.38 456.271 215.35C454.589 201.651 449.561 188.576 441.631 177.28C420.701 146.93 399.951 122.07 377.631 104.89C375.741 103.44 373.861 102.05 371.951 100.72C347.441 83.5101 336.691 88.25 331.101 93.84C325.511 99.43 325.101 118.78 322.101 128.25C319.101 137.72 300.601 177.72 296.731 197.5C292.861 217.28 268.331 234.07 268.331 240.94C268.331 247.81 270.911 270.2 268.761 279.66C266.611 289.12 250.231 293 246.781 296.48C243.331 299.96 204.631 284 177.111 272.39C149.591 260.78 131.991 273.23 126.341 284C119.241 297.55 122.141 320.77 124.621 325.3Z" fill="#8779BF"/>
<path d="M482.072 361.91C482.072 361.91 489.812 369.81 489.812 374.33C489.812 378.85 486.272 383.2 479.332 378.85C472.392 374.5 447.392 363.52 444.812 363.52C442.232 363.52 443.122 359.09 447.392 356.59C451.662 354.09 466.512 343.28 468.522 341.26C470.532 339.24 496.432 324 482.072 361.91Z" fill="#36323F"/>
<path d="M482.072 361.91C482.072 361.91 489.812 369.81 489.812 374.33C489.812 378.85 486.272 383.2 479.332 378.85C472.392 374.5 447.392 363.52 444.812 363.52C442.232 363.52 443.122 359.09 447.392 356.59C451.662 354.09 466.512 343.28 468.522 341.26C470.532 339.24 496.432 324 482.072 361.91Z" fill="#403B4A"/>
<path d="M394.911 244.47C394.911 244.47 351.261 238.23 351.261 236.94C351.261 235.65 371.261 216.51 383.091 217.37C394.921 218.23 392.301 223.39 394.911 244.47Z" fill="#36323F"/>
<path d="M394.911 244.47C394.911 244.47 351.261 238.23 351.261 236.94C351.261 235.65 371.261 216.51 383.091 217.37C394.921 218.23 392.301 223.39 394.911 244.47Z" fill="#403B4A"/>
<path d="M442.311 224.93C445.531 232.93 456.721 239.34 456.721 239.34V239.08L456.561 220.77V220.42C456.561 220.27 456.561 220.07 456.561 219.84C456.561 218.94 456.481 217.42 456.261 215.39C452.401 215.9 439.561 218.16 442.311 224.93Z" fill="#36323F"/>
<path d="M442.311 224.93C445.531 232.93 456.721 239.34 456.721 239.34V239.08L456.561 220.77V220.42C456.561 220.27 456.561 220.07 456.561 219.84C456.561 218.94 456.481 217.42 456.261 215.39C452.401 215.9 439.561 218.16 442.311 224.93Z" fill="#403B4A"/>
<path d="M171.641 274.71C171.641 274.71 134.911 123.29 178.741 48.65C178.741 48.65 155.181 61.45 132.121 68.55C132.121 68.55 105.121 165.86 129.341 266.49L171.641 274.71Z" fill="#454251"/>
<path d="M171.641 274.71C171.641 274.71 134.911 123.29 178.741 48.65C178.741 48.65 155.181 61.45 132.121 68.55C132.121 68.55 105.121 165.86 129.341 266.49L171.641 274.71Z" fill="#575366"/>
<path d="M217.757 413.163C251.782 377.621 250.021 320.718 213.824 286.067C177.627 251.416 120.702 252.139 86.6772 287.681C52.6527 323.224 54.4136 380.127 90.6104 414.778C126.807 449.428 183.733 448.706 217.757 413.163Z" fill="#3C3846"/>
<path d="M217.757 413.163C251.782 377.621 250.021 320.718 213.824 286.067C177.627 251.416 120.702 252.139 86.6772 287.681C52.6527 323.224 54.4136 380.127 90.6104 414.778C126.807 449.428 183.733 448.706 217.757 413.163Z" fill="#464152"/>
<path d="M217.757 413.163C251.782 377.621 250.021 320.718 213.824 286.067C177.627 251.416 120.702 252.139 86.6772 287.681C52.6527 323.224 54.4136 380.127 90.6104 414.778C126.807 449.428 183.733 448.706 217.757 413.163Z" fill="#464152"/>
<path d="M203.227 418.648C232.63 387.933 229.29 337.017 195.766 304.925C162.243 272.833 111.23 271.717 81.8265 302.432C52.4231 333.147 55.7633 384.063 89.2872 416.155C122.811 448.247 173.824 449.363 203.227 418.648Z" fill="#454251"/>
<path d="M203.227 418.648C232.63 387.933 229.29 337.017 195.766 304.925C162.243 272.833 111.23 271.717 81.8265 302.432C52.4231 333.147 55.7633 384.063 89.2872 416.155C122.811 448.247 173.824 449.363 203.227 418.648Z" fill="#575366"/>
</svg>
