<svg width="20" height="32" viewBox="0 0 20 32" fill="none" xmlns="http://www.w3.org/2000/svg">
<path d="M0.600811 17.7167C2.25366 21.2978 5.19453 23.8517 8.64277 24.4133V31.3891H10.8004V24.4958C14.5572 24.1941 17.7975 21.5396 19.5615 17.7156H17.6825C16.1238 20.4277 13.6392 22.2685 10.7991 22.5363C10.0773 22.6045 9.34755 22.5697 8.63885 22.4335C6.10203 21.9465 3.90128 20.1949 2.47596 17.7156L0.600811 17.7167Z" fill="#D3C7C8"/>
<path d="M0.600811 17.7167C2.25366 21.2978 5.19453 23.8517 8.64277 24.4133V31.3891H10.8004V24.4958C14.5572 24.1941 17.7975 21.5396 19.5615 17.7156H17.6825C16.1238 20.4277 13.6392 22.2685 10.7991 22.5363C10.0773 22.6045 9.34755 22.5697 8.63885 22.4335C6.10203 21.9465 3.90128 20.1949 2.47596 17.7156L0.600811 17.7167Z" fill="#FFF6F0"/>
<path d="M5.34093 4.93478C5.34093 2.6724 7.46318 0.838379 10.0811 0.838379C12.699 0.838379 14.8213 2.6724 14.8213 4.93478V14.6253C14.8213 16.8877 12.699 18.7217 10.0811 18.7217C7.46318 18.7217 5.34093 16.8877 5.34093 14.6253V4.93478Z" fill="#D3C7C8"/>
<path d="M5.34093 4.93478C5.34093 2.6724 7.46318 0.838379 10.0811 0.838379C12.699 0.838379 14.8213 2.6724 14.8213 4.93478V14.6253C14.8213 16.8877 12.699 18.7217 10.0811 18.7217C7.46318 18.7217 5.34093 16.8877 5.34093 14.6253V4.93478Z" fill="#FFF6F0"/>
</svg>
