<svg width="150" height="381" viewBox="0 0 150 381" fill="none" xmlns="http://www.w3.org/2000/svg">
<path d="M149.192 257.07C136.272 289.47 113.272 312.58 86.3121 317.66V380.77H69.4221V318.45C40.0421 315.72 14.7121 291.7 0.912109 257.07H15.6021C27.7921 281.6 47.2121 298.26 69.4221 300.69C71.2921 300.89 73.1714 300.991 75.0521 300.99C78.8399 300.997 82.6166 300.581 86.3121 299.75C106.152 295.35 123.312 279.5 134.502 257.07H149.192Z" fill="#645486"/>
<path d="M149.192 257.07C136.272 289.47 113.272 312.58 86.3121 317.66V380.77H69.4221V318.45C40.0421 315.72 14.7121 291.7 0.912109 257.07H15.6021C27.7921 281.6 47.2121 298.26 69.4221 300.69C71.2921 300.89 73.1714 300.991 75.0521 300.99C78.8399 300.997 82.6166 300.581 86.3121 299.75C106.152 295.35 123.312 279.5 134.502 257.07H149.192Z" fill="#9478BF"/>
<path d="M149.192 257.07C136.272 289.47 113.272 312.58 86.3121 317.66V380.77H69.4221V318.45C40.0421 315.72 14.7121 291.7 0.912109 257.07H15.6021C27.7921 281.6 47.2121 298.26 69.4221 300.69C71.2921 300.89 73.1714 300.991 75.0521 300.99C78.8399 300.997 82.6166 300.581 86.3121 299.75C106.152 295.35 123.312 279.5 134.502 257.07H149.192Z" fill="#8779BF"/>
<path d="M34.982 0H111.912C115.819 0 119.565 1.55191 122.328 4.31432C125.09 7.07673 126.642 10.8234 126.642 14.73V239.91C126.642 246.768 125.291 253.559 122.666 259.895C120.041 266.23 116.193 271.987 111.343 276.835C106.493 281.684 100.735 285.529 94.398 288.151C88.0613 290.774 81.27 292.123 74.412 292.12C60.0548 292.12 46.285 286.419 36.1292 276.271C25.9734 266.123 20.2626 252.357 20.252 238V14.73C20.252 10.8234 21.8039 7.07673 24.5663 4.31432C27.3287 1.55191 31.0753 0 34.982 0Z" fill="#645486"/>
<path d="M34.982 0H111.912C115.819 0 119.565 1.55191 122.328 4.31432C125.09 7.07673 126.642 10.8234 126.642 14.73V239.91C126.642 246.768 125.291 253.559 122.666 259.895C120.041 266.23 116.193 271.987 111.343 276.835C106.493 281.684 100.735 285.529 94.398 288.151C88.0613 290.774 81.27 292.123 74.412 292.12C60.0548 292.12 46.285 286.419 36.1292 276.271C25.9734 266.123 20.2626 252.357 20.252 238V14.73C20.252 10.8234 21.8039 7.07673 24.5663 4.31432C27.3287 1.55191 31.0753 0 34.982 0Z" fill="#9478BF"/>
<path d="M34.982 0H111.912C115.819 0 119.565 1.55191 122.328 4.31432C125.09 7.07673 126.642 10.8234 126.642 14.73V239.91C126.642 246.768 125.291 253.559 122.666 259.895C120.041 266.23 116.193 271.987 111.343 276.835C106.493 281.684 100.735 285.529 94.398 288.151C88.0613 290.774 81.27 292.123 74.412 292.12C60.0548 292.12 46.285 286.419 36.1292 276.271C25.9734 266.123 20.2626 252.357 20.252 238V14.73C20.252 10.8234 21.8039 7.07673 24.5663 4.31432C27.3287 1.55191 31.0753 0 34.982 0Z" fill="#8779BF"/>
<path d="M126.622 117.92V124.45C111.392 130.558 95.1312 133.685 78.7222 133.66C58.3974 133.699 38.3551 128.901 20.2522 119.66V15C20.2282 11.0611 21.7638 7.27262 24.5237 4.46213C27.2836 1.65165 31.0435 0.0474801 34.9822 0L111.912 0C115.851 0.0474801 119.611 1.65165 122.371 4.46213C125.131 7.27262 126.666 11.0611 126.642 15V117.92H126.622Z" fill="#726099"/>
<path d="M126.622 117.92V124.45C111.392 130.558 95.1312 133.685 78.7222 133.66C58.3974 133.699 38.3551 128.901 20.2522 119.66V15C20.2282 11.0611 21.7638 7.27262 24.5237 4.46213C27.2836 1.65165 31.0435 0.0474801 34.9822 0L111.912 0C115.851 0.0474801 119.611 1.65165 122.371 4.46213C125.131 7.27262 126.666 11.0611 126.642 15V117.92H126.622Z" fill="#AA8ADB"/>
<path d="M126.622 117.92V124.45C111.392 130.558 95.1312 133.685 78.7222 133.66C58.3974 133.699 38.3551 128.901 20.2522 119.66V15C20.2282 11.0611 21.7638 7.27262 24.5237 4.46213C27.2836 1.65165 31.0435 0.0474801 34.9822 0L111.912 0C115.851 0.0474801 119.611 1.65165 122.371 4.46213C125.131 7.27262 126.666 11.0611 126.642 15V117.92H126.622Z" fill="#9A8ADB"/>
</svg>
