<svg width="1921" height="495" viewBox="0 0 1921 495" fill="none" xmlns="http://www.w3.org/2000/svg">
<path d="M976.89 102.271C977.175 97.4012 973.254 91.4367 966.824 87.633C958.868 82.9265 950.042 83.2965 947.119 88.4766C944.196 93.6568 948.302 101.649 956.258 106.355C962.617 110.115 969.504 110.633 973.511 108.072V168.635H976.904L976.89 102.271Z" fill="#726099"/>
<path d="M976.89 102.271C977.175 97.4012 973.254 91.4367 966.824 87.633C958.868 82.9265 950.042 83.2965 947.119 88.4766C944.196 93.6568 948.302 101.649 956.258 106.355C962.617 110.115 969.504 110.633 973.511 108.072V168.635H976.904L976.89 102.271Z" fill="#AA8ADB"/>
<path d="M976.89 102.271C977.175 97.4012 973.254 91.4367 966.824 87.633C958.868 82.9265 950.042 83.2965 947.119 88.4766C944.196 93.6568 948.302 101.649 956.258 106.355C962.617 110.115 969.504 110.633 973.511 108.072V168.635H976.904L976.89 102.271Z" fill="#9A8ADB"/>
<path d="M1860.89 235.518C1861.17 230.649 1857.26 224.684 1850.83 220.88C1842.86 216.174 1834.03 216.544 1831.12 221.724C1828.22 226.904 1832.29 234.896 1840.26 239.603C1846.61 243.362 1853.49 243.88 1857.52 241.32V301.927H1860.91L1860.89 235.518Z" fill="#726099"/>
<path d="M1860.89 235.518C1861.17 230.649 1857.26 224.684 1850.83 220.88C1842.86 216.174 1834.03 216.544 1831.12 221.724C1828.22 226.904 1832.29 234.896 1840.26 239.603C1846.61 243.362 1853.49 243.88 1857.52 241.32V301.927H1860.91L1860.89 235.518Z" fill="#AA8ADB"/>
<path d="M1860.89 235.518C1861.17 230.649 1857.26 224.684 1850.83 220.88C1842.86 216.174 1834.03 216.544 1831.12 221.724C1828.22 226.904 1832.29 234.896 1840.26 239.603C1846.61 243.362 1853.49 243.88 1857.52 241.32V301.927H1860.91L1860.89 235.518Z" fill="#9A8ADB"/>
<path d="M338.333 66.7495C344.678 70.5088 351.579 71.0268 355.585 68.4663V129.029H358.979V121.452C360.405 119.113 362.543 116.02 365.124 115.221L367.591 109.863C364.41 111.678 361.523 114.001 359.036 116.745V109.434C360.462 107.095 362.6 104.002 365.181 103.203L367.648 97.845C364.469 99.6585 361.583 101.975 359.093 104.712V62.6646C359.364 57.7953 355.457 51.8307 349.027 48.0271C341.057 43.3205 332.231 43.6906 329.322 48.8707C326.414 54.0508 330.363 62.043 338.333 66.7495Z" fill="#726099"/>
<path d="M338.333 66.7495C344.678 70.5088 351.579 71.0268 355.585 68.4663V129.029H358.979V121.452C360.405 119.113 362.543 116.02 365.124 115.221L367.591 109.863C364.41 111.678 361.523 114.001 359.036 116.745V109.434C360.462 107.095 362.6 104.002 365.181 103.203L367.648 97.845C364.469 99.6585 361.583 101.975 359.093 104.712V62.6646C359.364 57.7953 355.457 51.8307 349.027 48.0271C341.057 43.3205 332.231 43.6906 329.322 48.8707C326.414 54.0508 330.363 62.043 338.333 66.7495Z" fill="#AA8ADB"/>
<path d="M338.333 66.7495C344.678 70.5088 351.579 71.0268 355.585 68.4663V129.029H358.979V121.452C360.405 119.113 362.543 116.02 365.124 115.221L367.591 109.863C364.41 111.678 361.523 114.001 359.036 116.745V109.434C360.462 107.095 362.6 104.002 365.181 103.203L367.648 97.845C364.469 99.6585 361.583 101.975 359.093 104.712V62.6646C359.364 57.7953 355.457 51.8307 349.027 48.0271C341.057 43.3205 332.231 43.6906 329.322 48.8707C326.414 54.0508 330.363 62.043 338.333 66.7495Z" fill="#9A8ADB"/>
<path d="M1342.65 106.355C1348.99 110.115 1355.89 110.633 1359.9 108.072V168.635H1363.29V161.058C1364.72 158.719 1366.86 155.626 1369.44 154.827L1371.91 149.469C1368.73 151.284 1365.84 153.607 1363.35 156.351V149.04C1364.78 146.701 1366.92 143.608 1369.5 142.809L1371.96 137.451C1368.78 139.264 1365.9 141.581 1363.41 144.318V102.271C1363.68 97.4012 1359.77 91.4367 1353.34 87.633C1345.37 82.9265 1336.55 83.2965 1333.64 88.4766C1330.73 93.6568 1334.68 101.649 1342.65 106.355Z" fill="#726099"/>
<path d="M1342.65 106.355C1348.99 110.115 1355.89 110.633 1359.9 108.072V168.635H1363.29V161.058C1364.72 158.719 1366.86 155.626 1369.44 154.827L1371.91 149.469C1368.73 151.284 1365.84 153.607 1363.35 156.351V149.04C1364.78 146.701 1366.92 143.608 1369.5 142.809L1371.96 137.451C1368.78 139.264 1365.9 141.581 1363.41 144.318V102.271C1363.68 97.4012 1359.77 91.4367 1353.34 87.633C1345.37 82.9265 1336.55 83.2965 1333.64 88.4766C1330.73 93.6568 1334.68 101.649 1342.65 106.355Z" fill="#AA8ADB"/>
<path d="M1342.65 106.355C1348.99 110.115 1355.89 110.633 1359.9 108.072V168.635H1363.29V161.058C1364.72 158.719 1366.86 155.626 1369.44 154.827L1371.91 149.469C1368.73 151.284 1365.84 153.607 1363.35 156.351V149.04C1364.78 146.701 1366.92 143.608 1369.5 142.809L1371.96 137.451C1368.78 139.264 1365.9 141.581 1363.41 144.318V102.271C1363.68 97.4012 1359.77 91.4367 1353.34 87.633C1345.37 82.9265 1336.55 83.2965 1333.64 88.4766C1330.73 93.6568 1334.68 101.649 1342.65 106.355Z" fill="#9A8ADB"/>
<path d="M679.013 379.792C685.358 383.551 692.258 384.069 696.265 381.509V442.072H699.658V434.494C701.013 432.155 703.223 429.062 705.803 428.263L708.27 422.905C705.089 424.721 702.202 427.043 699.715 429.787V422.476C701.07 420.138 703.28 417.044 705.86 416.245L708.327 410.887C705.149 412.701 702.263 415.018 699.772 417.755V375.707C700.043 370.838 696.137 364.873 689.706 361.069C681.736 356.363 672.91 356.733 670.002 361.913C667.093 367.093 671.028 375.085 679.013 379.792Z" fill="#726099"/>
<path d="M679.013 379.792C685.358 383.551 692.258 384.069 696.265 381.509V442.072H699.658V434.494C701.013 432.155 703.223 429.062 705.803 428.263L708.27 422.905C705.089 424.721 702.202 427.043 699.715 429.787V422.476C701.07 420.138 703.28 417.044 705.86 416.245L708.327 410.887C705.149 412.701 702.263 415.018 699.772 417.755V375.707C700.043 370.838 696.137 364.873 689.706 361.069C681.736 356.363 672.91 356.733 670.002 361.913C667.093 367.093 671.028 375.085 679.013 379.792Z" fill="#AA8ADB"/>
<path d="M679.013 379.792C685.358 383.551 692.258 384.069 696.265 381.509V442.072H699.658V434.494C701.013 432.155 703.223 429.062 705.803 428.263L708.27 422.905C705.089 424.721 702.202 427.043 699.715 429.787V422.476C701.07 420.138 703.28 417.044 705.86 416.245L708.327 410.887C705.149 412.701 702.263 415.018 699.772 417.755V375.707C700.043 370.838 696.137 364.873 689.706 361.069C681.736 356.363 672.91 356.733 670.002 361.913C667.093 367.093 671.028 375.085 679.013 379.792Z" fill="#9A8ADB"/>
<path d="M1296.07 278.838C1296.35 283.708 1292.43 289.672 1286 293.476C1278.05 298.197 1269.22 297.813 1266.3 292.647C1263.37 287.482 1267.48 279.46 1275.44 274.754C1281.8 271.009 1288.68 270.476 1292.69 273.037V212.489H1296.08L1296.07 278.838Z" fill="#726099"/>
<path d="M1296.07 278.838C1296.35 283.708 1292.43 289.672 1286 293.476C1278.05 298.197 1269.22 297.813 1266.3 292.647C1263.37 287.482 1267.48 279.46 1275.44 274.754C1281.8 271.009 1288.68 270.476 1292.69 273.037V212.489H1296.08L1296.07 278.838Z" fill="#AA8ADB"/>
<path d="M1296.07 278.838C1296.35 283.708 1292.43 289.672 1286 293.476C1278.05 298.197 1269.22 297.813 1266.3 292.647C1263.37 287.482 1267.48 279.46 1275.44 274.754C1281.8 271.009 1288.68 270.476 1292.69 273.037V212.489H1296.08L1296.07 278.838Z" fill="#9A8ADB"/>
<path d="M294.248 173.756V176.716L294.163 240.077C294.448 244.946 290.541 250.91 284.096 254.714C276.141 259.435 267.315 259.051 264.392 253.871C261.469 248.69 265.575 240.698 273.531 235.992C279.89 232.247 286.777 231.714 290.783 234.275V177.456L240.71 188.394V252.583C240.995 257.452 237.088 263.417 230.644 267.22C222.688 271.942 213.862 271.557 210.939 266.377C208.016 261.197 212.108 253.205 220.078 248.498C226.437 244.754 233.324 244.221 237.33 246.781V186.233L290.755 174.511L294.248 173.756Z" fill="#726099"/>
<path d="M294.248 173.756V176.716L294.163 240.077C294.448 244.946 290.541 250.91 284.096 254.714C276.141 259.435 267.315 259.051 264.392 253.871C261.469 248.69 265.575 240.698 273.531 235.992C279.89 232.247 286.777 231.714 290.783 234.275V177.456L240.71 188.394V252.583C240.995 257.452 237.088 263.417 230.644 267.22C222.688 271.942 213.862 271.557 210.939 266.377C208.016 261.197 212.108 253.205 220.078 248.498C226.437 244.754 233.324 244.221 237.33 246.781V186.233L290.755 174.511L294.248 173.756Z" fill="#AA8ADB"/>
<path d="M294.248 173.756V176.716L294.163 240.077C294.448 244.946 290.541 250.91 284.096 254.714C276.141 259.435 267.315 259.051 264.392 253.871C261.469 248.69 265.575 240.698 273.531 235.992C279.89 232.247 286.777 231.714 290.783 234.275V177.456L240.71 188.394V252.583C240.995 257.452 237.088 263.417 230.644 267.22C222.688 271.942 213.862 271.557 210.939 266.377C208.016 261.197 212.108 253.205 220.078 248.498C226.437 244.754 233.324 244.221 237.33 246.781V186.233L290.755 174.511L294.248 173.756Z" fill="#9A8ADB"/>
<path d="M1491.04 162.345V228.71C1491.33 233.594 1487.42 239.544 1480.98 243.347C1473.02 248.069 1464.2 247.684 1461.29 242.519C1458.38 237.353 1462.46 229.331 1470.41 224.625C1476.77 220.866 1483.66 220.348 1487.68 222.908V164.832L1443.02 152.281V214.916C1443.31 219.785 1439.4 225.75 1432.96 229.553C1425 234.26 1416.18 233.89 1413.27 228.725C1410.36 223.559 1414.44 215.538 1422.39 210.831C1428.75 207.087 1435.64 206.554 1439.66 209.114V148.566H1442.01L1443.04 148.862L1491.04 162.345Z" fill="#726099"/>
<path d="M1491.04 162.345V228.71C1491.33 233.594 1487.42 239.544 1480.98 243.347C1473.02 248.069 1464.2 247.684 1461.29 242.519C1458.38 237.353 1462.46 229.331 1470.41 224.625C1476.77 220.866 1483.66 220.348 1487.68 222.908V164.832L1443.02 152.281V214.916C1443.31 219.785 1439.4 225.75 1432.96 229.553C1425 234.26 1416.18 233.89 1413.27 228.725C1410.36 223.559 1414.44 215.538 1422.39 210.831C1428.75 207.087 1435.64 206.554 1439.66 209.114V148.566H1442.01L1443.04 148.862L1491.04 162.345Z" fill="#AA8ADB"/>
<path d="M1491.04 162.345V228.71C1491.33 233.594 1487.42 239.544 1480.98 243.347C1473.02 248.069 1464.2 247.684 1461.29 242.519C1458.38 237.353 1462.46 229.331 1470.41 224.625C1476.77 220.866 1483.66 220.348 1487.68 222.908V164.832L1443.02 152.281V214.916C1443.31 219.785 1439.4 225.75 1432.96 229.553C1425 234.26 1416.18 233.89 1413.27 228.725C1410.36 223.559 1414.44 215.538 1422.39 210.831C1428.75 207.087 1435.64 206.554 1439.66 209.114V148.566H1442.01L1443.04 148.862L1491.04 162.345Z" fill="#9A8ADB"/>
<path d="M528.664 200.278C528.949 205.162 525.028 211.112 518.598 214.916C510.642 219.637 501.816 219.252 498.893 214.087C495.97 208.922 500.062 200.9 508.032 196.193C514.377 192.434 521.264 191.916 525.284 194.477V136.4L480.643 123.849V186.484C480.65 186.588 480.65 186.692 480.643 186.795C480.65 186.899 480.65 187.002 480.643 187.106C480.643 191.842 476.736 197.466 470.563 201.122C462.607 205.828 453.781 205.458 450.858 200.293C450.744 200.099 450.644 199.896 450.559 199.686C450.473 199.52 450.401 199.347 450.345 199.168C450.337 199.09 450.337 199.01 450.345 198.931C450.345 198.769 450.245 198.606 450.202 198.443C450.146 198.219 450.103 197.992 450.074 197.762C450.074 197.451 450.003 197.155 449.988 196.845V196.756C449.988 191.99 453.881 186.396 460.069 182.71C466.257 179.025 473.3 178.433 477.321 180.993V122.917L432.679 110.351V172.986C432.964 177.871 429.058 183.835 422.613 187.639C414.657 192.345 405.832 191.975 402.909 186.81C399.986 181.645 404.078 173.608 412.048 168.916C418.407 165.157 425.279 164.624 429.3 167.199V106.651H431.667L432.694 106.932L479.745 120.134L480.771 120.416L528.806 133.914L528.664 200.278Z" fill="#726099"/>
<path d="M528.664 200.278C528.949 205.162 525.028 211.112 518.598 214.916C510.642 219.637 501.816 219.252 498.893 214.087C495.97 208.922 500.062 200.9 508.032 196.193C514.377 192.434 521.264 191.916 525.284 194.477V136.4L480.643 123.849V186.484C480.65 186.588 480.65 186.692 480.643 186.795C480.65 186.899 480.65 187.002 480.643 187.106C480.643 191.842 476.736 197.466 470.563 201.122C462.607 205.828 453.781 205.458 450.858 200.293C450.744 200.099 450.644 199.896 450.559 199.686C450.473 199.52 450.401 199.347 450.345 199.168C450.337 199.09 450.337 199.01 450.345 198.931C450.345 198.769 450.245 198.606 450.202 198.443C450.146 198.219 450.103 197.992 450.074 197.762C450.074 197.451 450.003 197.155 449.988 196.845V196.756C449.988 191.99 453.881 186.396 460.069 182.71C466.257 179.025 473.3 178.433 477.321 180.993V122.917L432.679 110.351V172.986C432.964 177.871 429.058 183.835 422.613 187.639C414.657 192.345 405.832 191.975 402.909 186.81C399.986 181.645 404.078 173.608 412.048 168.916C418.407 165.157 425.279 164.624 429.3 167.199V106.651H431.667L432.694 106.932L479.745 120.134L480.771 120.416L528.806 133.914L528.664 200.278Z" fill="#AA8ADB"/>
<path d="M528.664 200.278C528.949 205.162 525.028 211.112 518.598 214.916C510.642 219.637 501.816 219.252 498.893 214.087C495.97 208.922 500.062 200.9 508.032 196.193C514.377 192.434 521.264 191.916 525.284 194.477V136.4L480.643 123.849V186.484C480.65 186.588 480.65 186.692 480.643 186.795C480.65 186.899 480.65 187.002 480.643 187.106C480.643 191.842 476.736 197.466 470.563 201.122C462.607 205.828 453.781 205.458 450.858 200.293C450.744 200.099 450.644 199.896 450.559 199.686C450.473 199.52 450.401 199.347 450.345 199.168C450.337 199.09 450.337 199.01 450.345 198.931C450.345 198.769 450.245 198.606 450.202 198.443C450.146 198.219 450.103 197.992 450.074 197.762C450.074 197.451 450.003 197.155 449.988 196.845V196.756C449.988 191.99 453.881 186.396 460.069 182.71C466.257 179.025 473.3 178.433 477.321 180.993V122.917L432.679 110.351V172.986C432.964 177.871 429.058 183.835 422.613 187.639C414.657 192.345 405.832 191.975 402.909 186.81C399.986 181.645 404.078 173.608 412.048 168.916C418.407 165.157 425.279 164.624 429.3 167.199V106.651H431.667L432.694 106.932L479.745 120.134L480.771 120.416L528.806 133.914L528.664 200.278Z" fill="#9A8ADB"/>
<path d="M898.344 437.75C898.629 442.634 894.708 448.584 888.278 452.388C880.322 457.109 871.496 456.724 868.573 451.559C865.65 446.394 869.743 438.372 877.713 433.665C884.058 429.906 890.944 429.388 894.965 431.948V373.872L850.323 361.321V423.956C850.33 424.06 850.33 424.164 850.323 424.267C850.33 424.37 850.33 424.474 850.323 424.578C850.323 429.314 846.417 434.938 840.243 438.594C832.287 443.3 823.461 442.93 820.538 437.765C820.425 437.57 820.325 437.368 820.239 437.158C820.153 436.992 820.082 436.819 820.025 436.64C820.017 436.561 820.017 436.482 820.025 436.403C820.025 436.24 819.925 436.078 819.883 435.915C819.826 435.691 819.783 435.464 819.754 435.234C819.754 434.923 819.754 434.627 819.669 434.316V434.228C819.669 429.462 823.561 423.867 829.749 420.182C835.937 416.497 842.98 415.905 847.001 418.465V360.389L802.274 347.808V410.443C802.559 415.328 798.653 421.292 792.208 425.096C784.252 429.802 775.426 429.432 772.504 424.267C769.581 419.102 773.673 411.065 781.643 406.373C788.002 402.614 794.874 402.081 798.895 404.657V344.123H801.262L802.288 344.404L849.339 357.606L850.366 357.887L898.401 371.385L898.344 437.75Z" fill="#726099"/>
<path d="M898.344 437.75C898.629 442.634 894.708 448.584 888.278 452.388C880.322 457.109 871.496 456.724 868.573 451.559C865.65 446.394 869.743 438.372 877.713 433.665C884.058 429.906 890.944 429.388 894.965 431.948V373.872L850.323 361.321V423.956C850.33 424.06 850.33 424.164 850.323 424.267C850.33 424.37 850.33 424.474 850.323 424.578C850.323 429.314 846.417 434.938 840.243 438.594C832.287 443.3 823.461 442.93 820.538 437.765C820.425 437.57 820.325 437.368 820.239 437.158C820.153 436.992 820.082 436.819 820.025 436.64C820.017 436.561 820.017 436.482 820.025 436.403C820.025 436.24 819.925 436.078 819.883 435.915C819.826 435.691 819.783 435.464 819.754 435.234C819.754 434.923 819.754 434.627 819.669 434.316V434.228C819.669 429.462 823.561 423.867 829.749 420.182C835.937 416.497 842.98 415.905 847.001 418.465V360.389L802.274 347.808V410.443C802.559 415.328 798.653 421.292 792.208 425.096C784.252 429.802 775.426 429.432 772.504 424.267C769.581 419.102 773.673 411.065 781.643 406.373C788.002 402.614 794.874 402.081 798.895 404.657V344.123H801.262L802.288 344.404L849.339 357.606L850.366 357.887L898.401 371.385L898.344 437.75Z" fill="#AA8ADB"/>
<path d="M898.344 437.75C898.629 442.634 894.708 448.584 888.278 452.388C880.322 457.109 871.496 456.724 868.573 451.559C865.65 446.394 869.743 438.372 877.713 433.665C884.058 429.906 890.944 429.388 894.965 431.948V373.872L850.323 361.321V423.956C850.33 424.06 850.33 424.164 850.323 424.267C850.33 424.37 850.33 424.474 850.323 424.578C850.323 429.314 846.417 434.938 840.243 438.594C832.287 443.3 823.461 442.93 820.538 437.765C820.425 437.57 820.325 437.368 820.239 437.158C820.153 436.992 820.082 436.819 820.025 436.64C820.017 436.561 820.017 436.482 820.025 436.403C820.025 436.24 819.925 436.078 819.883 435.915C819.826 435.691 819.783 435.464 819.754 435.234C819.754 434.923 819.754 434.627 819.669 434.316V434.228C819.669 429.462 823.561 423.867 829.749 420.182C835.937 416.497 842.98 415.905 847.001 418.465V360.389L802.274 347.808V410.443C802.559 415.328 798.653 421.292 792.208 425.096C784.252 429.802 775.426 429.432 772.504 424.267C769.581 419.102 773.673 411.065 781.643 406.373C788.002 402.614 794.874 402.081 798.895 404.657V344.123H801.262L802.288 344.404L849.339 357.606L850.366 357.887L898.401 371.385L898.344 437.75Z" fill="#9A8ADB"/>
<path d="M1103.48 97.9191V31.5543C1103.77 26.6702 1099.86 20.7205 1093.42 16.9168C1085.46 12.1955 1076.64 12.5803 1073.71 17.7456C1070.79 22.9109 1074.9 30.9475 1082.85 35.6392C1089.21 39.3985 1096.1 39.9165 1100.11 37.3561V95.4327L1055.44 108.043V45.3631C1055.72 40.4789 1051.81 34.5144 1045.37 30.7107C1037.41 26.0042 1028.59 26.3742 1025.66 31.5395C1022.74 36.7048 1026.85 44.7266 1034.8 49.4332C1041.16 53.1924 1048.05 53.7253 1052.06 51.15V111.698H1054.42L1055.45 111.417L1103.48 97.9191Z" fill="#726099"/>
<path d="M1103.48 97.9191V31.5543C1103.77 26.6702 1099.86 20.7205 1093.42 16.9168C1085.46 12.1955 1076.64 12.5803 1073.71 17.7456C1070.79 22.9109 1074.9 30.9475 1082.85 35.6392C1089.21 39.3985 1096.1 39.9165 1100.11 37.3561V95.4327L1055.44 108.043V45.3631C1055.72 40.4789 1051.81 34.5144 1045.37 30.7107C1037.41 26.0042 1028.59 26.3742 1025.66 31.5395C1022.74 36.7048 1026.85 44.7266 1034.8 49.4332C1041.16 53.1924 1048.05 53.7253 1052.06 51.15V111.698H1054.42L1055.45 111.417L1103.48 97.9191Z" fill="#AA8ADB"/>
<path d="M1103.48 97.9191V31.5543C1103.77 26.6702 1099.86 20.7205 1093.42 16.9168C1085.46 12.1955 1076.64 12.5803 1073.71 17.7456C1070.79 22.9109 1074.9 30.9475 1082.85 35.6392C1089.21 39.3985 1096.1 39.9165 1100.11 37.3561V95.4327L1055.44 108.043V45.3631C1055.72 40.4789 1051.81 34.5144 1045.37 30.7107C1037.41 26.0042 1028.59 26.3742 1025.66 31.5395C1022.74 36.7048 1026.85 44.7266 1034.8 49.4332C1041.16 53.1924 1048.05 53.7253 1052.06 51.15V111.698H1054.42L1055.45 111.417L1103.48 97.9191Z" fill="#9A8ADB"/>
<path d="M511.054 456.221V389.856C511.339 384.987 507.432 379.037 500.988 375.219C493.032 370.497 484.206 370.882 481.297 376.062C478.389 381.242 482.467 389.249 490.437 393.941C496.781 397.7 503.668 398.218 507.689 395.658V453.734L463.033 466.3V403.665C463.304 398.781 459.397 392.816 452.953 389.013C444.997 384.306 436.171 384.676 433.262 389.841C430.354 395.007 434.432 403.043 442.402 407.735C448.747 411.494 455.633 412.027 459.654 409.452V470H462.021L463.033 469.719L511.054 456.221Z" fill="#726099"/>
<path d="M511.054 456.221V389.856C511.339 384.987 507.432 379.037 500.988 375.219C493.032 370.497 484.206 370.882 481.297 376.062C478.389 381.242 482.467 389.249 490.437 393.941C496.781 397.7 503.668 398.218 507.689 395.658V453.734L463.033 466.3V403.665C463.304 398.781 459.397 392.816 452.953 389.013C444.997 384.306 436.171 384.676 433.262 389.841C430.354 395.007 434.432 403.043 442.402 407.735C448.747 411.494 455.633 412.027 459.654 409.452V470H462.021L463.033 469.719L511.054 456.221Z" fill="#AA8ADB"/>
<path d="M511.054 456.221V389.856C511.339 384.987 507.432 379.037 500.988 375.219C493.032 370.497 484.206 370.882 481.297 376.062C478.389 381.242 482.467 389.249 490.437 393.941C496.781 397.7 503.668 398.218 507.689 395.658V453.734L463.033 466.3V403.665C463.304 398.781 459.397 392.816 452.953 389.013C444.997 384.306 436.171 384.676 433.262 389.841C430.354 395.007 434.432 403.043 442.402 407.735C448.747 411.494 455.633 412.027 459.654 409.452V470H462.021L463.033 469.719L511.054 456.221Z" fill="#9A8ADB"/>
<path d="M1273.27 91.6585V100.287C1275.53 98.1359 1278.03 96.2682 1280.71 94.7222L1278.22 100.095C1276.17 100.973 1274.44 102.494 1273.27 104.446V115.235L1225.23 128.763L1224.21 129.044H1221.84V68.4811C1217.82 71.0564 1210.95 70.5236 1204.59 66.7643C1196.62 62.0578 1192.54 54.0508 1195.45 48.8707C1198.36 43.6906 1207.2 43.3353 1215.15 48.0419C1221.6 51.8455 1225.5 57.8101 1225.22 62.6942V98.2151C1227.73 95.4535 1230.65 93.1208 1233.86 91.3033L1231.36 96.735C1228.77 97.5342 1226.56 100.657 1225.21 103.01V112.69C1227.72 109.927 1230.63 107.594 1233.85 105.778L1231.36 111.136C1228.77 111.935 1226.56 115.058 1225.21 117.411V125.329L1269.86 112.764V54.7612C1265.84 57.3217 1258.97 56.8037 1252.61 53.0444C1244.64 48.3527 1240.56 40.3309 1243.47 35.1655C1246.38 30.0002 1255.22 29.6006 1263.17 34.3219C1269.62 38.1404 1273.53 44.0902 1273.24 48.9595V73.0989C1275.5 70.9452 1278 69.0772 1280.68 67.5339L1278.19 72.9212C1276.14 73.7979 1274.42 75.3136 1273.24 77.2578V87.4996C1275.5 85.346 1278 83.478 1280.68 81.9347L1278.22 87.322C1276.17 88.1986 1274.44 89.7144 1273.27 91.6585Z" fill="#726099"/>
<path d="M1273.27 91.6585V100.287C1275.53 98.1359 1278.03 96.2682 1280.71 94.7222L1278.22 100.095C1276.17 100.973 1274.44 102.494 1273.27 104.446V115.235L1225.23 128.763L1224.21 129.044H1221.84V68.4811C1217.82 71.0564 1210.95 70.5236 1204.59 66.7643C1196.62 62.0578 1192.54 54.0508 1195.45 48.8707C1198.36 43.6906 1207.2 43.3353 1215.15 48.0419C1221.6 51.8455 1225.5 57.8101 1225.22 62.6942V98.2151C1227.73 95.4535 1230.65 93.1208 1233.86 91.3033L1231.36 96.735C1228.77 97.5342 1226.56 100.657 1225.21 103.01V112.69C1227.72 109.927 1230.63 107.594 1233.85 105.778L1231.36 111.136C1228.77 111.935 1226.56 115.058 1225.21 117.411V125.329L1269.86 112.764V54.7612C1265.84 57.3217 1258.97 56.8037 1252.61 53.0444C1244.64 48.3527 1240.56 40.3309 1243.47 35.1655C1246.38 30.0002 1255.22 29.6006 1263.17 34.3219C1269.62 38.1404 1273.53 44.0902 1273.24 48.9595V73.0989C1275.5 70.9452 1278 69.0772 1280.68 67.5339L1278.19 72.9212C1276.14 73.7979 1274.42 75.3136 1273.24 77.2578V87.4996C1275.5 85.346 1278 83.478 1280.68 81.9347L1278.22 87.322C1276.17 88.1986 1274.44 89.7144 1273.27 91.6585Z" fill="#AA8ADB"/>
<path d="M1273.27 91.6585V100.287C1275.53 98.1359 1278.03 96.2682 1280.71 94.7222L1278.22 100.095C1276.17 100.973 1274.44 102.494 1273.27 104.446V115.235L1225.23 128.763L1224.21 129.044H1221.84V68.4811C1217.82 71.0564 1210.95 70.5236 1204.59 66.7643C1196.62 62.0578 1192.54 54.0508 1195.45 48.8707C1198.36 43.6906 1207.2 43.3353 1215.15 48.0419C1221.6 51.8455 1225.5 57.8101 1225.22 62.6942V98.2151C1227.73 95.4535 1230.65 93.1208 1233.86 91.3033L1231.36 96.735C1228.77 97.5342 1226.56 100.657 1225.21 103.01V112.69C1227.72 109.927 1230.63 107.594 1233.85 105.778L1231.36 111.136C1228.77 111.935 1226.56 115.058 1225.21 117.411V125.329L1269.86 112.764V54.7612C1265.84 57.3217 1258.97 56.8037 1252.61 53.0444C1244.64 48.3527 1240.56 40.3309 1243.47 35.1655C1246.38 30.0002 1255.22 29.6006 1263.17 34.3219C1269.62 38.1404 1273.53 44.0902 1273.24 48.9595V73.0989C1275.5 70.9452 1278 69.0772 1280.68 67.5339L1278.19 72.9212C1276.14 73.7979 1274.42 75.3136 1273.24 77.2578V87.4996C1275.5 85.346 1278 83.478 1280.68 81.9347L1278.22 87.322C1276.17 88.1986 1274.44 89.7144 1273.27 91.6585Z" fill="#9A8ADB"/>
<path d="M1166.89 269.514L1118.84 282.998L1117.79 283.294L1070.74 296.481L1069.72 296.777H1067.4V236.214C1063.38 238.789 1056.49 238.256 1050.15 234.512C1042.18 229.805 1038.08 221.783 1041.01 216.618C1043.93 211.453 1052.76 211.068 1060.7 215.789C1066.93 219.474 1070.79 225.158 1070.79 229.938C1070.79 230.101 1070.79 230.264 1070.79 230.427V293.047L1115.45 280.496V222.435C1111.43 224.995 1104.54 224.462 1098.2 220.718C1092.35 217.269 1088.6 212.059 1088.22 207.471C1088.2 207.269 1088.2 207.067 1088.22 206.865C1088.2 205.556 1088.52 204.267 1089.16 203.135C1092.01 197.97 1100.9 197.585 1108.86 202.306C1114.71 205.755 1118.46 210.964 1118.84 215.538C1118.84 215.745 1118.84 215.937 1118.84 216.144C1118.86 216.411 1118.86 216.677 1118.84 216.944V279.579L1163.48 267.028V208.951C1159.48 211.512 1152.59 210.994 1146.23 207.235C1138.27 202.528 1134.18 194.506 1137.09 189.341C1140 184.176 1148.84 183.791 1156.8 188.512C1163.24 192.316 1167.15 198.266 1166.86 203.15V269.514H1166.89Z" fill="#726099"/>
<path d="M1166.89 269.514L1118.84 282.998L1117.79 283.294L1070.74 296.481L1069.72 296.777H1067.4V236.214C1063.38 238.789 1056.49 238.256 1050.15 234.512C1042.18 229.805 1038.08 221.783 1041.01 216.618C1043.93 211.453 1052.76 211.068 1060.7 215.789C1066.93 219.474 1070.79 225.158 1070.79 229.938C1070.79 230.101 1070.79 230.264 1070.79 230.427V293.047L1115.45 280.496V222.435C1111.43 224.995 1104.54 224.462 1098.2 220.718C1092.35 217.269 1088.6 212.059 1088.22 207.471C1088.2 207.269 1088.2 207.067 1088.22 206.865C1088.2 205.556 1088.52 204.267 1089.16 203.135C1092.01 197.97 1100.9 197.585 1108.86 202.306C1114.71 205.755 1118.46 210.964 1118.84 215.538C1118.84 215.745 1118.84 215.937 1118.84 216.144C1118.86 216.411 1118.86 216.677 1118.84 216.944V279.579L1163.48 267.028V208.951C1159.48 211.512 1152.59 210.994 1146.23 207.235C1138.27 202.528 1134.18 194.506 1137.09 189.341C1140 184.176 1148.84 183.791 1156.8 188.512C1163.24 192.316 1167.15 198.266 1166.86 203.15V269.514H1166.89Z" fill="#AA8ADB"/>
<path d="M1166.89 269.514L1118.84 282.998L1117.79 283.294L1070.74 296.481L1069.72 296.777H1067.4V236.214C1063.38 238.789 1056.49 238.256 1050.15 234.512C1042.18 229.805 1038.08 221.783 1041.01 216.618C1043.93 211.453 1052.76 211.068 1060.7 215.789C1066.93 219.474 1070.79 225.158 1070.79 229.938C1070.79 230.101 1070.79 230.264 1070.79 230.427V293.047L1115.45 280.496V222.435C1111.43 224.995 1104.54 224.462 1098.2 220.718C1092.35 217.269 1088.6 212.059 1088.22 207.471C1088.2 207.269 1088.2 207.067 1088.22 206.865C1088.2 205.556 1088.52 204.267 1089.16 203.135C1092.01 197.97 1100.9 197.585 1108.86 202.306C1114.71 205.755 1118.46 210.964 1118.84 215.538C1118.84 215.745 1118.84 215.937 1118.84 216.144C1118.86 216.411 1118.86 216.677 1118.84 216.944V279.579L1163.48 267.028V208.951C1159.48 211.512 1152.59 210.994 1146.23 207.235C1138.27 202.528 1134.18 194.506 1137.09 189.341C1140 184.176 1148.84 183.791 1156.8 188.512C1163.24 192.316 1167.15 198.266 1166.86 203.15V269.514H1166.89Z" fill="#9A8ADB"/>
<path d="M786.162 126.499L783.667 131.856C781.043 132.67 778.805 135.852 777.45 138.206V155.004L729.487 168.487L728.432 168.783L681.381 181.97L680.368 182.266H678.001V121.703C673.981 124.279 667.094 123.746 660.749 120.001C652.779 115.295 648.687 107.273 651.61 102.108C654.533 96.9423 663.358 96.5575 671.3 101.279C677.531 104.964 681.395 110.647 681.395 115.428C681.395 115.591 681.395 115.754 681.395 115.916V142.735C684.104 138.96 690.021 135.571 690.391 135.334L687.911 140.692C685.059 141.58 682.678 145.236 681.395 147.619V158.112C684.104 154.323 690.021 150.934 690.391 150.712L687.911 156.084C685.059 156.973 682.678 160.628 681.395 162.996V178.507L726.051 165.956V107.924C722.03 110.485 715.143 109.952 708.798 106.207C702.953 102.759 699.203 97.5491 698.818 92.887C698.804 92.685 698.804 92.4822 698.818 92.2802C698.801 90.9715 699.126 89.6825 699.759 88.5505C702.682 83.3852 711.507 83.0004 719.463 87.7217C725.309 91.1701 729.059 96.3799 729.444 100.953C729.444 101.16 729.444 101.353 729.444 101.56C729.458 101.826 729.458 102.093 729.444 102.359V142.305C731.799 139.993 734.43 138.004 737.272 136.385L734.776 141.773C732.666 142.424 730.798 144.629 729.444 146.686V165.113L774.086 152.562V94.441C770.079 97.0015 763.192 96.4835 756.833 92.7242C748.877 88.0177 744.785 79.9959 747.694 74.8306C750.603 69.6652 759.428 69.2804 767.399 74.0017C773.843 77.8054 777.75 83.7552 777.465 88.6393V119.069C779.981 116.278 782.913 113.925 786.148 112.098L783.667 117.456C781.043 118.27 778.805 121.452 777.45 123.805V133.47C779.976 130.676 782.917 128.323 786.162 126.499Z" fill="#726099"/>
<path d="M786.162 126.499L783.667 131.856C781.043 132.67 778.805 135.852 777.45 138.206V155.004L729.487 168.487L728.432 168.783L681.381 181.97L680.368 182.266H678.001V121.703C673.981 124.279 667.094 123.746 660.749 120.001C652.779 115.295 648.687 107.273 651.61 102.108C654.533 96.9423 663.358 96.5575 671.3 101.279C677.531 104.964 681.395 110.647 681.395 115.428C681.395 115.591 681.395 115.754 681.395 115.916V142.735C684.104 138.96 690.021 135.571 690.391 135.334L687.911 140.692C685.059 141.58 682.678 145.236 681.395 147.619V158.112C684.104 154.323 690.021 150.934 690.391 150.712L687.911 156.084C685.059 156.973 682.678 160.628 681.395 162.996V178.507L726.051 165.956V107.924C722.03 110.485 715.143 109.952 708.798 106.207C702.953 102.759 699.203 97.5491 698.818 92.887C698.804 92.685 698.804 92.4822 698.818 92.2802C698.801 90.9715 699.126 89.6825 699.759 88.5505C702.682 83.3852 711.507 83.0004 719.463 87.7217C725.309 91.1701 729.059 96.3799 729.444 100.953C729.444 101.16 729.444 101.353 729.444 101.56C729.458 101.826 729.458 102.093 729.444 102.359V142.305C731.799 139.993 734.43 138.004 737.272 136.385L734.776 141.773C732.666 142.424 730.798 144.629 729.444 146.686V165.113L774.086 152.562V94.441C770.079 97.0015 763.192 96.4835 756.833 92.7242C748.877 88.0177 744.785 79.9959 747.694 74.8306C750.603 69.6652 759.428 69.2804 767.399 74.0017C773.843 77.8054 777.75 83.7552 777.465 88.6393V119.069C779.981 116.278 782.913 113.925 786.148 112.098L783.667 117.456C781.043 118.27 778.805 121.452 777.45 123.805V133.47C779.976 130.676 782.917 128.323 786.162 126.499Z" fill="#AA8ADB"/>
<path d="M786.162 126.499L783.667 131.856C781.043 132.67 778.805 135.852 777.45 138.206V155.004L729.487 168.487L728.432 168.783L681.381 181.97L680.368 182.266H678.001V121.703C673.981 124.279 667.094 123.746 660.749 120.001C652.779 115.295 648.687 107.273 651.61 102.108C654.533 96.9423 663.358 96.5575 671.3 101.279C677.531 104.964 681.395 110.647 681.395 115.428C681.395 115.591 681.395 115.754 681.395 115.916V142.735C684.104 138.96 690.021 135.571 690.391 135.334L687.911 140.692C685.059 141.58 682.678 145.236 681.395 147.619V158.112C684.104 154.323 690.021 150.934 690.391 150.712L687.911 156.084C685.059 156.973 682.678 160.628 681.395 162.996V178.507L726.051 165.956V107.924C722.03 110.485 715.143 109.952 708.798 106.207C702.953 102.759 699.203 97.5491 698.818 92.887C698.804 92.685 698.804 92.4822 698.818 92.2802C698.801 90.9715 699.126 89.6825 699.759 88.5505C702.682 83.3852 711.507 83.0004 719.463 87.7217C725.309 91.1701 729.059 96.3799 729.444 100.953C729.444 101.16 729.444 101.353 729.444 101.56C729.458 101.826 729.458 102.093 729.444 102.359V142.305C731.799 139.993 734.43 138.004 737.272 136.385L734.776 141.773C732.666 142.424 730.798 144.629 729.444 146.686V165.113L774.086 152.562V94.441C770.079 97.0015 763.192 96.4835 756.833 92.7242C748.877 88.0177 744.785 79.9959 747.694 74.8306C750.603 69.6652 759.428 69.2804 767.399 74.0017C773.843 77.8054 777.75 83.7552 777.465 88.6393V119.069C779.981 116.278 782.913 113.925 786.148 112.098L783.667 117.456C781.043 118.27 778.805 121.452 777.45 123.805V133.47C779.976 130.676 782.917 128.323 786.162 126.499Z" fill="#9A8ADB"/>
<path d="M1570.7 399.935L1568.24 405.293C1565.61 406.107 1563.37 409.289 1562.02 411.642V428.441L1513.97 441.924L1512.92 442.22L1465.86 455.407L1464.85 455.703H1462.49V395.169C1458.46 397.745 1451.58 397.212 1445.23 393.467C1437.26 388.761 1433.17 380.739 1436.09 375.574C1439.02 370.408 1447.84 370.024 1455.78 374.745C1462.02 378.43 1465.88 384.114 1465.88 388.894C1465.88 389.057 1465.88 389.22 1465.88 389.382V416.201C1468.59 412.427 1474.43 409.037 1474.88 408.801L1472.4 414.158C1469.54 415.046 1467.16 418.702 1465.88 421.085V431.578C1468.59 427.789 1474.43 424.4 1474.88 424.178L1472.4 429.551C1469.54 430.439 1467.16 434.094 1465.88 436.462V451.973L1510.53 439.422V381.361C1506.51 383.921 1499.63 383.388 1493.28 379.644C1487.44 376.195 1483.69 370.986 1483.3 366.398C1483.29 366.196 1483.29 365.993 1483.3 365.791C1483.29 364.482 1483.61 363.193 1484.24 362.061C1487.09 356.896 1495.99 356.511 1503.95 361.232C1509.79 364.681 1513.54 369.89 1513.93 374.464C1513.93 374.671 1513.93 374.863 1513.93 375.071C1513.94 375.337 1513.94 375.604 1513.93 375.87V415.742C1516.28 413.43 1518.91 411.44 1521.76 409.822L1519.26 415.209C1517.15 415.86 1515.28 418.066 1513.93 420.123V438.549L1558.57 425.999V367.878C1554.56 370.438 1547.68 369.92 1541.32 366.161C1533.36 361.454 1529.27 353.432 1532.18 348.267C1535.09 343.102 1543.93 342.717 1551.88 347.438C1558.33 351.242 1562.23 357.192 1561.95 362.076V392.505C1564.47 389.715 1567.4 387.361 1570.63 385.534L1568.17 390.892C1565.54 391.706 1563.3 394.888 1561.95 397.241V406.906C1564.49 404.109 1567.44 401.755 1570.7 399.935Z" fill="#726099"/>
<path d="M1570.7 399.935L1568.24 405.293C1565.61 406.107 1563.37 409.289 1562.02 411.642V428.441L1513.97 441.924L1512.92 442.22L1465.86 455.407L1464.85 455.703H1462.49V395.169C1458.46 397.745 1451.58 397.212 1445.23 393.467C1437.26 388.761 1433.17 380.739 1436.09 375.574C1439.02 370.408 1447.84 370.024 1455.78 374.745C1462.02 378.43 1465.88 384.114 1465.88 388.894C1465.88 389.057 1465.88 389.22 1465.88 389.382V416.201C1468.59 412.427 1474.43 409.037 1474.88 408.801L1472.4 414.158C1469.54 415.046 1467.16 418.702 1465.88 421.085V431.578C1468.59 427.789 1474.43 424.4 1474.88 424.178L1472.4 429.551C1469.54 430.439 1467.16 434.094 1465.88 436.462V451.973L1510.53 439.422V381.361C1506.51 383.921 1499.63 383.388 1493.28 379.644C1487.44 376.195 1483.69 370.986 1483.3 366.398C1483.29 366.196 1483.29 365.993 1483.3 365.791C1483.29 364.482 1483.61 363.193 1484.24 362.061C1487.09 356.896 1495.99 356.511 1503.95 361.232C1509.79 364.681 1513.54 369.89 1513.93 374.464C1513.93 374.671 1513.93 374.863 1513.93 375.071C1513.94 375.337 1513.94 375.604 1513.93 375.87V415.742C1516.28 413.43 1518.91 411.44 1521.76 409.822L1519.26 415.209C1517.15 415.86 1515.28 418.066 1513.93 420.123V438.549L1558.57 425.999V367.878C1554.56 370.438 1547.68 369.92 1541.32 366.161C1533.36 361.454 1529.27 353.432 1532.18 348.267C1535.09 343.102 1543.93 342.717 1551.88 347.438C1558.33 351.242 1562.23 357.192 1561.95 362.076V392.505C1564.47 389.715 1567.4 387.361 1570.63 385.534L1568.17 390.892C1565.54 391.706 1563.3 394.888 1561.95 397.241V406.906C1564.49 404.109 1567.44 401.755 1570.7 399.935Z" fill="#AA8ADB"/>
<path d="M1570.7 399.935L1568.24 405.293C1565.61 406.107 1563.37 409.289 1562.02 411.642V428.441L1513.97 441.924L1512.92 442.22L1465.86 455.407L1464.85 455.703H1462.49V395.169C1458.46 397.745 1451.58 397.212 1445.23 393.467C1437.26 388.761 1433.17 380.739 1436.09 375.574C1439.02 370.408 1447.84 370.024 1455.78 374.745C1462.02 378.43 1465.88 384.114 1465.88 388.894C1465.88 389.057 1465.88 389.22 1465.88 389.382V416.201C1468.59 412.427 1474.43 409.037 1474.88 408.801L1472.4 414.158C1469.54 415.046 1467.16 418.702 1465.88 421.085V431.578C1468.59 427.789 1474.43 424.4 1474.88 424.178L1472.4 429.551C1469.54 430.439 1467.16 434.094 1465.88 436.462V451.973L1510.53 439.422V381.361C1506.51 383.921 1499.63 383.388 1493.28 379.644C1487.44 376.195 1483.69 370.986 1483.3 366.398C1483.29 366.196 1483.29 365.993 1483.3 365.791C1483.29 364.482 1483.61 363.193 1484.24 362.061C1487.09 356.896 1495.99 356.511 1503.95 361.232C1509.79 364.681 1513.54 369.89 1513.93 374.464C1513.93 374.671 1513.93 374.863 1513.93 375.071C1513.94 375.337 1513.94 375.604 1513.93 375.87V415.742C1516.28 413.43 1518.91 411.44 1521.76 409.822L1519.26 415.209C1517.15 415.86 1515.28 418.066 1513.93 420.123V438.549L1558.57 425.999V367.878C1554.56 370.438 1547.68 369.92 1541.32 366.161C1533.36 361.454 1529.27 353.432 1532.18 348.267C1535.09 343.102 1543.93 342.717 1551.88 347.438C1558.33 351.242 1562.23 357.192 1561.95 362.076V392.505C1564.47 389.715 1567.4 387.361 1570.63 385.534L1568.17 390.892C1565.54 391.706 1563.3 394.888 1561.95 397.241V406.906C1564.49 404.109 1567.44 401.755 1570.7 399.935Z" fill="#9A8ADB"/>
<path d="M147.835 389.131L145.368 394.488C142.745 395.302 140.506 398.484 139.152 400.838V417.636L91.1025 431.119L90.0474 431.415L42.9963 444.602L41.984 444.898H39.6742V384.335C35.6535 386.911 28.7669 386.378 22.4221 382.633C14.452 377.927 10.3599 369.905 13.2828 364.74C16.2057 359.574 25.0313 359.19 32.973 363.911C39.2037 367.596 43.0676 373.279 43.0676 378.06C43.0676 378.223 43.0676 378.386 43.0676 378.548V405.367C45.7766 401.593 51.6936 398.203 52.0644 397.966L49.5835 403.324C46.7319 404.212 44.3508 407.868 43.0676 410.251V420.744C45.7766 416.955 51.6936 413.566 52.0644 413.344L49.5835 418.717C46.7319 419.605 44.3508 423.26 43.0676 425.628V441.139L87.7234 428.588V370.556C83.7027 373.117 76.8161 372.584 70.4713 368.839C64.6256 365.391 60.8757 360.181 60.4908 355.519C60.4766 355.317 60.4766 355.114 60.4908 354.912C60.4738 353.604 60.799 352.315 61.4318 351.183C64.2834 346.017 73.1803 345.632 81.1362 350.354C86.982 353.802 90.7318 359.012 91.1168 363.585C91.1168 363.792 91.1168 363.985 91.1168 364.192C91.131 364.458 91.131 364.725 91.1168 364.991V404.937C93.4719 402.625 96.1025 400.636 98.9444 399.017L96.435 404.36C94.3248 405.011 92.457 407.217 91.1025 409.274V427.73L135.744 415.179V357.073C131.738 359.634 124.851 359.116 118.492 355.356C110.55 350.65 106.416 342.628 109.367 337.448C112.318 332.268 121.115 331.898 129.071 336.619C135.516 340.408 139.423 346.328 139.209 351.271V381.701C141.725 378.91 144.657 376.557 147.892 374.73L145.425 380.088C142.802 380.902 140.563 384.084 139.209 386.437V396.102C141.708 393.316 144.62 390.963 147.835 389.131Z" fill="#726099"/>
<path d="M147.835 389.131L145.368 394.488C142.745 395.302 140.506 398.484 139.152 400.838V417.636L91.1025 431.119L90.0474 431.415L42.9963 444.602L41.984 444.898H39.6742V384.335C35.6535 386.911 28.7669 386.378 22.4221 382.633C14.452 377.927 10.3599 369.905 13.2828 364.74C16.2057 359.574 25.0313 359.19 32.973 363.911C39.2037 367.596 43.0676 373.279 43.0676 378.06C43.0676 378.223 43.0676 378.386 43.0676 378.548V405.367C45.7766 401.593 51.6936 398.203 52.0644 397.966L49.5835 403.324C46.7319 404.212 44.3508 407.868 43.0676 410.251V420.744C45.7766 416.955 51.6936 413.566 52.0644 413.344L49.5835 418.717C46.7319 419.605 44.3508 423.26 43.0676 425.628V441.139L87.7234 428.588V370.556C83.7027 373.117 76.8161 372.584 70.4713 368.839C64.6256 365.391 60.8757 360.181 60.4908 355.519C60.4766 355.317 60.4766 355.114 60.4908 354.912C60.4738 353.604 60.799 352.315 61.4318 351.183C64.2834 346.017 73.1803 345.632 81.1362 350.354C86.982 353.802 90.7318 359.012 91.1168 363.585C91.1168 363.792 91.1168 363.985 91.1168 364.192C91.131 364.458 91.131 364.725 91.1168 364.991V404.937C93.4719 402.625 96.1025 400.636 98.9444 399.017L96.435 404.36C94.3248 405.011 92.457 407.217 91.1025 409.274V427.73L135.744 415.179V357.073C131.738 359.634 124.851 359.116 118.492 355.356C110.55 350.65 106.416 342.628 109.367 337.448C112.318 332.268 121.115 331.898 129.071 336.619C135.516 340.408 139.423 346.328 139.209 351.271V381.701C141.725 378.91 144.657 376.557 147.892 374.73L145.425 380.088C142.802 380.902 140.563 384.084 139.209 386.437V396.102C141.708 393.316 144.62 390.963 147.835 389.131Z" fill="#AA8ADB"/>
<path d="M147.835 389.131L145.368 394.488C142.745 395.302 140.506 398.484 139.152 400.838V417.636L91.1025 431.119L90.0474 431.415L42.9963 444.602L41.984 444.898H39.6742V384.335C35.6535 386.911 28.7669 386.378 22.4221 382.633C14.452 377.927 10.3599 369.905 13.2828 364.74C16.2057 359.574 25.0313 359.19 32.973 363.911C39.2037 367.596 43.0676 373.279 43.0676 378.06C43.0676 378.223 43.0676 378.386 43.0676 378.548V405.367C45.7766 401.593 51.6936 398.203 52.0644 397.966L49.5835 403.324C46.7319 404.212 44.3508 407.868 43.0676 410.251V420.744C45.7766 416.955 51.6936 413.566 52.0644 413.344L49.5835 418.717C46.7319 419.605 44.3508 423.26 43.0676 425.628V441.139L87.7234 428.588V370.556C83.7027 373.117 76.8161 372.584 70.4713 368.839C64.6256 365.391 60.8757 360.181 60.4908 355.519C60.4766 355.317 60.4766 355.114 60.4908 354.912C60.4738 353.604 60.799 352.315 61.4318 351.183C64.2834 346.017 73.1803 345.632 81.1362 350.354C86.982 353.802 90.7318 359.012 91.1168 363.585C91.1168 363.792 91.1168 363.985 91.1168 364.192C91.131 364.458 91.131 364.725 91.1168 364.991V404.937C93.4719 402.625 96.1025 400.636 98.9444 399.017L96.435 404.36C94.3248 405.011 92.457 407.217 91.1025 409.274V427.73L135.744 415.179V357.073C131.738 359.634 124.851 359.116 118.492 355.356C110.55 350.65 106.416 342.628 109.367 337.448C112.318 332.268 121.115 331.898 129.071 336.619C135.516 340.408 139.423 346.328 139.209 351.271V381.701C141.725 378.91 144.657 376.557 147.892 374.73L145.425 380.088C142.802 380.902 140.563 384.084 139.209 386.437V396.102C141.708 393.316 144.62 390.963 147.835 389.131Z" fill="#9A8ADB"/>
<path d="M409.481 265.726C408.056 260.383 399.501 258.207 390.575 260.856C381.65 263.506 375.476 269.973 376.945 275.316C378.413 280.659 386.925 282.85 395.865 280.186C404.805 277.522 410.95 271.069 409.481 265.726ZM395.024 277.107C388.893 278.928 383.118 277.433 382.12 273.792C381.122 270.151 385.286 265.741 391.417 263.92C397.547 262.1 403.322 263.609 404.249 267.25C405.175 270.891 401.14 275.287 395.024 277.107Z" fill="#726099"/>
<path d="M409.481 265.726C408.056 260.383 399.501 258.207 390.575 260.856C381.65 263.506 375.476 269.973 376.945 275.316C378.413 280.659 386.925 282.85 395.865 280.186C404.805 277.522 410.95 271.069 409.481 265.726ZM395.024 277.107C388.893 278.928 383.118 277.433 382.12 273.792C381.122 270.151 385.286 265.741 391.417 263.92C397.547 262.1 403.322 263.609 404.249 267.25C405.175 270.891 401.14 275.287 395.024 277.107Z" fill="#AA8ADB"/>
<path d="M409.481 265.726C408.056 260.383 399.501 258.207 390.575 260.856C381.65 263.506 375.476 269.973 376.945 275.316C378.413 280.659 386.925 282.85 395.865 280.186C404.805 277.522 410.95 271.069 409.481 265.726ZM395.024 277.107C388.893 278.928 383.118 277.433 382.12 273.792C381.122 270.151 385.286 265.741 391.417 263.92C397.547 262.1 403.322 263.609 404.249 267.25C405.175 270.891 401.14 275.287 395.024 277.107Z" fill="#9A8ADB"/>
<path d="M147.15 196.845C145.724 191.502 137.169 189.326 128.23 191.975C119.29 194.625 113.145 201.092 114.613 206.435C116.082 211.778 124.594 213.954 133.519 211.305C142.445 208.655 148.619 202.232 147.15 196.845ZM132.678 208.226C126.547 210.047 120.773 208.552 119.846 204.911C118.919 201.27 123.011 196.845 129.142 195.039C135.273 193.233 141.048 194.728 141.974 198.369C142.901 202.01 138.809 206.465 132.678 208.271V208.226Z" fill="#726099"/>
<path d="M147.15 196.845C145.724 191.502 137.169 189.326 128.23 191.975C119.29 194.625 113.145 201.092 114.613 206.435C116.082 211.778 124.594 213.954 133.519 211.305C142.445 208.655 148.619 202.232 147.15 196.845ZM132.678 208.226C126.547 210.047 120.773 208.552 119.846 204.911C118.919 201.27 123.011 196.845 129.142 195.039C135.273 193.233 141.048 194.728 141.974 198.369C142.901 202.01 138.809 206.465 132.678 208.271V208.226Z" fill="#AA8ADB"/>
<path d="M147.15 196.845C145.724 191.502 137.169 189.326 128.23 191.975C119.29 194.625 113.145 201.092 114.613 206.435C116.082 211.778 124.594 213.954 133.519 211.305C142.445 208.655 148.619 202.232 147.15 196.845ZM132.678 208.226C126.547 210.047 120.773 208.552 119.846 204.911C118.919 201.27 123.011 196.845 129.142 195.039C135.273 193.233 141.048 194.728 141.974 198.369C142.901 202.01 138.809 206.465 132.678 208.271V208.226Z" fill="#9A8ADB"/>
<path d="M33.6999 44.2382C32.2741 38.9101 23.7194 36.7197 14.7797 39.3837C5.83994 42.0478 -0.333736 48.5007 1.12057 53.8289C2.57488 59.157 11.1011 61.3622 20.0408 58.713C28.9805 56.0637 35.1257 49.596 33.6999 44.2382ZM19.2281 55.6345C13.0972 57.4402 7.32276 55.9601 6.396 52.3192C5.46924 48.6783 9.46145 44.253 15.5924 42.4474C21.7233 40.6418 27.4977 42.1366 28.4245 45.7775C29.3512 49.4184 25.3163 53.8289 19.1996 55.6345H19.2281Z" fill="#726099"/>
<path d="M33.6999 44.2382C32.2741 38.9101 23.7194 36.7197 14.7797 39.3837C5.83994 42.0478 -0.333736 48.5007 1.12057 53.8289C2.57488 59.157 11.1011 61.3622 20.0408 58.713C28.9805 56.0637 35.1257 49.596 33.6999 44.2382ZM19.2281 55.6345C13.0972 57.4402 7.32276 55.9601 6.396 52.3192C5.46924 48.6783 9.46145 44.253 15.5924 42.4474C21.7233 40.6418 27.4977 42.1366 28.4245 45.7775C29.3512 49.4184 25.3163 53.8289 19.1996 55.6345H19.2281Z" fill="#AA8ADB"/>
<path d="M33.6999 44.2382C32.2741 38.9101 23.7194 36.7197 14.7797 39.3837C5.83994 42.0478 -0.333736 48.5007 1.12057 53.8289C2.57488 59.157 11.1011 61.3622 20.0408 58.713C28.9805 56.0637 35.1257 49.596 33.6999 44.2382ZM19.2281 55.6345C13.0972 57.4402 7.32276 55.9601 6.396 52.3192C5.46924 48.6783 9.46145 44.253 15.5924 42.4474C21.7233 40.6418 27.4977 42.1366 28.4245 45.7775C29.3512 49.4184 25.3163 53.8289 19.1996 55.6345H19.2281Z" fill="#9A8ADB"/>
<path d="M465.045 29.1271C463.619 23.799 455.064 21.6085 446.139 24.2578C437.213 26.9071 431.04 33.3896 432.508 38.7177C433.977 44.0459 442.489 46.2511 451.428 43.6019C460.368 40.9526 466.513 34.47 465.045 29.1271ZM450.587 40.5234C444.456 42.329 438.682 40.8342 437.684 37.1933C436.686 33.5524 440.849 29.1419 446.98 27.3363C453.111 25.5306 458.885 27.0107 459.812 30.6515C460.739 34.2924 456.704 38.7029 450.587 40.5234Z" fill="#726099"/>
<path d="M465.045 29.1271C463.619 23.799 455.064 21.6085 446.139 24.2578C437.213 26.9071 431.04 33.3896 432.508 38.7177C433.977 44.0459 442.489 46.2511 451.428 43.6019C460.368 40.9526 466.513 34.47 465.045 29.1271ZM450.587 40.5234C444.456 42.329 438.682 40.8342 437.684 37.1933C436.686 33.5524 440.849 29.1419 446.98 27.3363C453.111 25.5306 458.885 27.0107 459.812 30.6515C460.739 34.2924 456.704 38.7029 450.587 40.5234Z" fill="#AA8ADB"/>
<path d="M465.045 29.1271C463.619 23.799 455.064 21.6085 446.139 24.2578C437.213 26.9071 431.04 33.3896 432.508 38.7177C433.977 44.0459 442.489 46.2511 451.428 43.6019C460.368 40.9526 466.513 34.47 465.045 29.1271ZM450.587 40.5234C444.456 42.329 438.682 40.8342 437.684 37.1933C436.686 33.5524 440.849 29.1419 446.98 27.3363C453.111 25.5306 458.885 27.0107 459.812 30.6515C460.739 34.2924 456.704 38.7029 450.587 40.5234Z" fill="#9A8ADB"/>
<path d="M751.173 258.355C749.747 253.027 741.192 250.836 732.267 253.5C723.341 256.164 717.168 262.617 718.636 267.946C720.105 273.274 728.617 275.479 737.556 272.83C746.496 270.18 752.641 263.713 751.173 258.355ZM736.715 269.751C730.584 271.557 724.81 270.077 723.812 266.436C722.814 262.795 726.977 258.37 733.108 256.564C739.239 254.758 745.013 256.253 745.94 259.894C746.867 263.535 742.832 267.886 736.715 269.751Z" fill="#726099"/>
<path d="M751.173 258.355C749.747 253.027 741.192 250.836 732.267 253.5C723.341 256.164 717.168 262.617 718.636 267.946C720.105 273.274 728.617 275.479 737.556 272.83C746.496 270.18 752.641 263.713 751.173 258.355ZM736.715 269.751C730.584 271.557 724.81 270.077 723.812 266.436C722.814 262.795 726.977 258.37 733.108 256.564C739.239 254.758 745.013 256.253 745.94 259.894C746.867 263.535 742.832 267.886 736.715 269.751Z" fill="#AA8ADB"/>
<path d="M751.173 258.355C749.747 253.027 741.192 250.836 732.267 253.5C723.341 256.164 717.168 262.617 718.636 267.946C720.105 273.274 728.617 275.479 737.556 272.83C746.496 270.18 752.641 263.713 751.173 258.355ZM736.715 269.751C730.584 271.557 724.81 270.077 723.812 266.436C722.814 262.795 726.977 258.37 733.108 256.564C739.239 254.758 745.013 256.253 745.94 259.894C746.867 263.535 742.832 267.886 736.715 269.751Z" fill="#9A8ADB"/>
<path d="M874.918 21.7715C873.492 16.4285 864.937 14.2529 856.012 16.9021C847.086 19.5514 840.913 26.0192 842.381 31.3621C843.85 36.705 852.362 38.8807 861.302 36.2314C870.241 33.5821 876.344 27.1144 874.918 21.7715ZM860.418 33.1529C854.287 34.9586 848.512 33.4785 847.5 29.8377C846.488 26.1968 850.679 21.7715 856.81 19.9658C862.941 18.1602 868.701 19.655 869.642 23.2959C870.583 26.9368 866.534 31.3473 860.418 33.1529Z" fill="#726099"/>
<path d="M874.918 21.7715C873.492 16.4285 864.937 14.2529 856.012 16.9021C847.086 19.5514 840.913 26.0192 842.381 31.3621C843.85 36.705 852.362 38.8807 861.302 36.2314C870.241 33.5821 876.344 27.1144 874.918 21.7715ZM860.418 33.1529C854.287 34.9586 848.512 33.4785 847.5 29.8377C846.488 26.1968 850.679 21.7715 856.81 19.9658C862.941 18.1602 868.701 19.655 869.642 23.2959C870.583 26.9368 866.534 31.3473 860.418 33.1529Z" fill="#AA8ADB"/>
<path d="M874.918 21.7715C873.492 16.4285 864.937 14.2529 856.012 16.9021C847.086 19.5514 840.913 26.0192 842.381 31.3621C843.85 36.705 852.362 38.8807 861.302 36.2314C870.241 33.5821 876.344 27.1144 874.918 21.7715ZM860.418 33.1529C854.287 34.9586 848.512 33.4785 847.5 29.8377C846.488 26.1968 850.679 21.7715 856.81 19.9658C862.941 18.1602 868.701 19.655 869.642 23.2959C870.583 26.9368 866.534 31.3473 860.418 33.1529Z" fill="#9A8ADB"/>
<path d="M993.158 254.921C991.732 249.593 983.178 247.403 974.252 250.052C965.327 252.701 959.153 259.184 960.621 264.512C962.09 269.84 970.602 272.045 979.542 269.396C988.481 266.747 994.684 260.264 993.158 254.921ZM978.701 266.318C972.57 268.123 966.795 266.643 965.868 263.002C964.942 259.361 969.034 254.936 975.165 253.13C981.295 251.325 987.07 252.82 987.997 256.461C988.923 260.101 984.817 264.497 978.701 266.318Z" fill="#726099"/>
<path d="M993.158 254.921C991.732 249.593 983.178 247.403 974.252 250.052C965.327 252.701 959.153 259.184 960.621 264.512C962.09 269.84 970.602 272.045 979.542 269.396C988.481 266.747 994.684 260.264 993.158 254.921ZM978.701 266.318C972.57 268.123 966.795 266.643 965.868 263.002C964.942 259.361 969.034 254.936 975.165 253.13C981.295 251.325 987.07 252.82 987.997 256.461C988.923 260.101 984.817 264.497 978.701 266.318Z" fill="#AA8ADB"/>
<path d="M993.158 254.921C991.732 249.593 983.178 247.403 974.252 250.052C965.327 252.701 959.153 259.184 960.621 264.512C962.09 269.84 970.602 272.045 979.542 269.396C988.481 266.747 994.684 260.264 993.158 254.921ZM978.701 266.318C972.57 268.123 966.795 266.643 965.868 263.002C964.942 259.361 969.034 254.936 975.165 253.13C981.295 251.325 987.07 252.82 987.997 256.461C988.923 260.101 984.817 264.497 978.701 266.318Z" fill="#9A8ADB"/>
<path d="M1253.88 180.416C1252.45 175.074 1243.9 172.898 1234.96 175.547C1226.02 178.196 1219.87 184.664 1221.34 190.007C1222.81 195.35 1231.32 197.526 1240.25 194.876C1249.17 192.227 1255.35 185.759 1253.88 180.416ZM1239.4 191.798C1233.27 193.604 1227.51 192.124 1226.57 188.483C1225.63 184.842 1229.74 180.416 1235.87 178.611C1242 176.805 1247.77 178.3 1248.7 181.941C1249.63 185.582 1245.54 189.992 1239.4 191.798Z" fill="#726099"/>
<path d="M1253.88 180.416C1252.45 175.074 1243.9 172.898 1234.96 175.547C1226.02 178.196 1219.87 184.664 1221.34 190.007C1222.81 195.35 1231.32 197.526 1240.25 194.876C1249.17 192.227 1255.35 185.759 1253.88 180.416ZM1239.4 191.798C1233.27 193.604 1227.51 192.124 1226.57 188.483C1225.63 184.842 1229.74 180.416 1235.87 178.611C1242 176.805 1247.77 178.3 1248.7 181.941C1249.63 185.582 1245.54 189.992 1239.4 191.798Z" fill="#AA8ADB"/>
<path d="M1253.88 180.416C1252.45 175.074 1243.9 172.898 1234.96 175.547C1226.02 178.196 1219.87 184.664 1221.34 190.007C1222.81 195.35 1231.32 197.526 1240.25 194.876C1249.17 192.227 1255.35 185.759 1253.88 180.416ZM1239.4 191.798C1233.27 193.604 1227.51 192.124 1226.57 188.483C1225.63 184.842 1229.74 180.416 1235.87 178.611C1242 176.805 1247.77 178.3 1248.7 181.941C1249.63 185.582 1245.54 189.992 1239.4 191.798Z" fill="#9A8ADB"/>
<path d="M1440.2 284.167C1438.77 278.839 1430.22 276.648 1421.29 279.297C1412.37 281.947 1406.19 288.429 1407.66 293.757C1409.13 299.086 1417.64 301.291 1426.58 298.642C1435.52 295.992 1441.67 289.554 1440.2 284.167ZM1425.74 295.563C1419.61 297.369 1413.84 295.889 1412.84 292.248C1411.84 288.607 1416 284.182 1422.14 282.376C1428.27 280.57 1434.04 282.065 1434.97 285.706C1435.89 289.347 1431.86 293.787 1425.74 295.593V295.563Z" fill="#726099"/>
<path d="M1440.2 284.167C1438.77 278.839 1430.22 276.648 1421.29 279.297C1412.37 281.947 1406.19 288.429 1407.66 293.757C1409.13 299.086 1417.64 301.291 1426.58 298.642C1435.52 295.992 1441.67 289.554 1440.2 284.167ZM1425.74 295.563C1419.61 297.369 1413.84 295.889 1412.84 292.248C1411.84 288.607 1416 284.182 1422.14 282.376C1428.27 280.57 1434.04 282.065 1434.97 285.706C1435.89 289.347 1431.86 293.787 1425.74 295.593V295.563Z" fill="#AA8ADB"/>
<path d="M1440.2 284.167C1438.77 278.839 1430.22 276.648 1421.29 279.297C1412.37 281.947 1406.19 288.429 1407.66 293.757C1409.13 299.086 1417.64 301.291 1426.58 298.642C1435.52 295.992 1441.67 289.554 1440.2 284.167ZM1425.74 295.563C1419.61 297.369 1413.84 295.889 1412.84 292.248C1411.84 288.607 1416 284.182 1422.14 282.376C1428.27 280.57 1434.04 282.065 1434.97 285.706C1435.89 289.347 1431.86 293.787 1425.74 295.593V295.563Z" fill="#9A8ADB"/>
<path d="M1456.64 47.0652C1455.21 41.7222 1446.66 39.5466 1437.72 42.1958C1428.78 44.8451 1422.63 51.3129 1424.09 56.6558C1425.54 61.9987 1434.07 64.1892 1443.01 61.5251C1451.95 58.861 1458.15 52.4081 1456.64 47.0652ZM1442.17 58.4466C1436.04 60.2671 1430.26 58.7722 1429.34 55.1314C1428.41 51.4905 1432.5 47.08 1438.63 45.2595C1444.76 43.4391 1450.54 44.9487 1451.46 48.5896C1452.39 52.2305 1448.36 56.641 1442.23 58.4466H1442.17Z" fill="#726099"/>
<path d="M1456.64 47.0652C1455.21 41.7222 1446.66 39.5466 1437.72 42.1958C1428.78 44.8451 1422.63 51.3129 1424.09 56.6558C1425.54 61.9987 1434.07 64.1892 1443.01 61.5251C1451.95 58.861 1458.15 52.4081 1456.64 47.0652ZM1442.17 58.4466C1436.04 60.2671 1430.26 58.7722 1429.34 55.1314C1428.41 51.4905 1432.5 47.08 1438.63 45.2595C1444.76 43.4391 1450.54 44.9487 1451.46 48.5896C1452.39 52.2305 1448.36 56.641 1442.23 58.4466H1442.17Z" fill="#AA8ADB"/>
<path d="M1456.64 47.0652C1455.21 41.7222 1446.66 39.5466 1437.72 42.1958C1428.78 44.8451 1422.63 51.3129 1424.09 56.6558C1425.54 61.9987 1434.07 64.1892 1443.01 61.5251C1451.95 58.861 1458.15 52.4081 1456.64 47.0652ZM1442.17 58.4466C1436.04 60.2671 1430.26 58.7722 1429.34 55.1314C1428.41 51.4905 1432.5 47.08 1438.63 45.2595C1444.76 43.4391 1450.54 44.9487 1451.46 48.5896C1452.39 52.2305 1448.36 56.641 1442.23 58.4466H1442.17Z" fill="#9A8ADB"/>
<path d="M1762.81 310.719C1761.39 305.376 1752.83 303.2 1743.89 305.849C1734.95 308.499 1728.81 314.966 1730.28 320.309C1731.75 325.652 1740.26 327.828 1749.2 325.179C1758.14 322.529 1764.28 316.062 1762.81 310.719ZM1748.36 322.1C1742.21 323.906 1736.45 322.426 1735.44 318.785C1734.43 315.144 1738.6 310.719 1744.75 308.913C1750.9 307.107 1756.64 308.602 1757.58 312.243C1758.52 315.884 1754.47 320.295 1748.36 322.1Z" fill="#726099"/>
<path d="M1762.81 310.719C1761.39 305.376 1752.83 303.2 1743.89 305.849C1734.95 308.499 1728.81 314.966 1730.28 320.309C1731.75 325.652 1740.26 327.828 1749.2 325.179C1758.14 322.529 1764.28 316.062 1762.81 310.719ZM1748.36 322.1C1742.21 323.906 1736.45 322.426 1735.44 318.785C1734.43 315.144 1738.6 310.719 1744.75 308.913C1750.9 307.107 1756.64 308.602 1757.58 312.243C1758.52 315.884 1754.47 320.295 1748.36 322.1Z" fill="#AA8ADB"/>
<path d="M1762.81 310.719C1761.39 305.376 1752.83 303.2 1743.89 305.849C1734.95 308.499 1728.81 314.966 1730.28 320.309C1731.75 325.652 1740.26 327.828 1749.2 325.179C1758.14 322.529 1764.28 316.062 1762.81 310.719ZM1748.36 322.1C1742.21 323.906 1736.45 322.426 1735.44 318.785C1734.43 315.144 1738.6 310.719 1744.75 308.913C1750.9 307.107 1756.64 308.602 1757.58 312.243C1758.52 315.884 1754.47 320.295 1748.36 322.1Z" fill="#9A8ADB"/>
<path d="M1660.3 419.634C1658.88 414.306 1650.32 412.116 1641.38 414.765C1632.44 417.414 1626.31 423.897 1627.74 429.21C1629.16 434.524 1637.72 436.744 1646.64 434.094C1655.57 431.445 1661.77 424.977 1660.3 419.634ZM1645.83 431.031C1639.7 432.836 1633.94 431.341 1633 427.715C1632.06 424.089 1636.16 419.649 1642.29 417.844C1648.42 416.038 1654.2 417.533 1655.13 421.159C1656.05 424.785 1651.97 429.21 1645.83 431.031Z" fill="#726099"/>
<path d="M1660.3 419.634C1658.88 414.306 1650.32 412.116 1641.38 414.765C1632.44 417.414 1626.31 423.897 1627.74 429.21C1629.16 434.524 1637.72 436.744 1646.64 434.094C1655.57 431.445 1661.77 424.977 1660.3 419.634ZM1645.83 431.031C1639.7 432.836 1633.94 431.341 1633 427.715C1632.06 424.089 1636.16 419.649 1642.29 417.844C1648.42 416.038 1654.2 417.533 1655.13 421.159C1656.05 424.785 1651.97 429.21 1645.83 431.031Z" fill="#AA8ADB"/>
<path d="M1660.3 419.634C1658.88 414.306 1650.32 412.116 1641.38 414.765C1632.44 417.414 1626.31 423.897 1627.74 429.21C1629.16 434.524 1637.72 436.744 1646.64 434.094C1655.57 431.445 1661.77 424.977 1660.3 419.634ZM1645.83 431.031C1639.7 432.836 1633.94 431.341 1633 427.715C1632.06 424.089 1636.16 419.649 1642.29 417.844C1648.42 416.038 1654.2 417.533 1655.13 421.159C1656.05 424.785 1651.97 429.21 1645.83 431.031Z" fill="#9A8ADB"/>
<path d="M1318.34 412.279C1316.91 406.936 1308.36 404.76 1299.42 407.409C1290.48 410.058 1284.33 416.526 1285.79 421.869C1287.24 427.212 1295.77 429.388 1304.71 426.738C1313.65 424.089 1319.85 417.621 1318.34 412.279ZM1303.87 423.66C1297.74 425.466 1291.96 423.986 1291.03 420.345C1290.11 416.704 1294.2 412.279 1300.33 410.473C1306.46 408.667 1312.24 410.162 1313.16 413.803C1314.09 417.444 1310.04 421.81 1303.92 423.66H1303.87Z" fill="#726099"/>
<path d="M1318.34 412.279C1316.91 406.936 1308.36 404.76 1299.42 407.409C1290.48 410.058 1284.33 416.526 1285.79 421.869C1287.24 427.212 1295.77 429.388 1304.71 426.738C1313.65 424.089 1319.85 417.621 1318.34 412.279ZM1303.87 423.66C1297.74 425.466 1291.96 423.986 1291.03 420.345C1290.11 416.704 1294.2 412.279 1300.33 410.473C1306.46 408.667 1312.24 410.162 1313.16 413.803C1314.09 417.444 1310.04 421.81 1303.92 423.66H1303.87Z" fill="#AA8ADB"/>
<path d="M1318.34 412.279C1316.91 406.936 1308.36 404.76 1299.42 407.409C1290.48 410.058 1284.33 416.526 1285.79 421.869C1287.24 427.212 1295.77 429.388 1304.71 426.738C1313.65 424.089 1319.85 417.621 1318.34 412.279ZM1303.87 423.66C1297.74 425.466 1291.96 423.986 1291.03 420.345C1290.11 416.704 1294.2 412.279 1300.33 410.473C1306.46 408.667 1312.24 410.162 1313.16 413.803C1314.09 417.444 1310.04 421.81 1303.92 423.66H1303.87Z" fill="#9A8ADB"/>
<path d="M1034.61 390.108C1033.18 384.78 1024.63 382.589 1015.69 385.238C1006.75 387.888 1000.6 394.37 1002.05 399.698C1003.51 405.026 1012.04 407.232 1020.98 404.582C1029.91 401.933 1036.1 395.451 1034.61 390.108ZM1020.13 401.504C1014 403.31 1008.23 401.815 1007.3 398.174C1006.38 394.533 1010.47 390.122 1016.6 388.317C1022.73 386.511 1028.5 387.991 1029.43 391.632C1030.36 395.273 1026.29 399.684 1020.16 401.504H1020.13Z" fill="#726099"/>
<path d="M1034.61 390.108C1033.18 384.78 1024.63 382.589 1015.69 385.238C1006.75 387.888 1000.6 394.37 1002.05 399.698C1003.51 405.026 1012.04 407.232 1020.98 404.582C1029.91 401.933 1036.1 395.451 1034.61 390.108ZM1020.13 401.504C1014 403.31 1008.23 401.815 1007.3 398.174C1006.38 394.533 1010.47 390.122 1016.6 388.317C1022.73 386.511 1028.5 387.991 1029.43 391.632C1030.36 395.273 1026.29 399.684 1020.16 401.504H1020.13Z" fill="#AA8ADB"/>
<path d="M1034.61 390.108C1033.18 384.78 1024.63 382.589 1015.69 385.238C1006.75 387.888 1000.6 394.37 1002.05 399.698C1003.51 405.026 1012.04 407.232 1020.98 404.582C1029.91 401.933 1036.1 395.451 1034.61 390.108ZM1020.13 401.504C1014 403.31 1008.23 401.815 1007.3 398.174C1006.38 394.533 1010.47 390.122 1016.6 388.317C1022.73 386.511 1028.5 387.991 1029.43 391.632C1030.36 395.273 1026.29 399.684 1020.16 401.504H1020.13Z" fill="#9A8ADB"/>
<path d="M609.507 395.169C608.081 389.841 599.526 387.651 590.586 390.3C581.647 392.949 575.501 399.373 576.927 404.701C578.353 410.029 586.908 412.234 595.847 409.585C604.787 406.936 610.961 400.453 609.507 395.169ZM595.035 406.566C588.904 408.371 583.129 406.891 582.131 403.25C581.133 399.609 585.297 395.184 591.428 393.379C597.558 391.573 603.333 393.068 604.26 396.709C605.186 400.349 601.166 404.686 595.035 406.506V406.566Z" fill="#726099"/>
<path d="M609.507 395.169C608.081 389.841 599.526 387.651 590.586 390.3C581.647 392.949 575.501 399.373 576.927 404.701C578.353 410.029 586.908 412.234 595.847 409.585C604.787 406.936 610.961 400.453 609.507 395.169ZM595.035 406.566C588.904 408.371 583.129 406.891 582.131 403.25C581.133 399.609 585.297 395.184 591.428 393.379C597.558 391.573 603.333 393.068 604.26 396.709C605.186 400.349 601.166 404.686 595.035 406.506V406.566Z" fill="#AA8ADB"/>
<path d="M609.507 395.169C608.081 389.841 599.526 387.651 590.586 390.3C581.647 392.949 575.501 399.373 576.927 404.701C578.353 410.029 586.908 412.234 595.847 409.585C604.787 406.936 610.961 400.453 609.507 395.169ZM595.035 406.566C588.904 408.371 583.129 406.891 582.131 403.25C581.133 399.609 585.297 395.184 591.428 393.379C597.558 391.573 603.333 393.068 604.26 396.709C605.186 400.349 601.166 404.686 595.035 406.506V406.566Z" fill="#9A8ADB"/>
<path d="M235.406 363.763C233.98 358.42 225.425 356.244 216.485 358.894C207.546 361.543 201.4 368.011 202.855 373.354C204.309 378.697 212.835 380.872 221.775 378.223C230.715 375.574 236.874 369.106 235.406 363.763ZM220.934 375.145C214.803 376.965 209.028 375.47 208.102 371.829C207.175 368.188 211.267 363.763 217.398 361.957C223.529 360.152 229.303 361.647 230.301 365.287C231.299 368.928 227.065 373.339 220.934 375.145Z" fill="#726099"/>
<path d="M235.406 363.763C233.98 358.42 225.425 356.244 216.485 358.894C207.546 361.543 201.4 368.011 202.855 373.354C204.309 378.697 212.835 380.872 221.775 378.223C230.715 375.574 236.874 369.106 235.406 363.763ZM220.934 375.145C214.803 376.965 209.028 375.47 208.102 371.829C207.175 368.188 211.267 363.763 217.398 361.957C223.529 360.152 229.303 361.647 230.301 365.287C231.299 368.928 227.065 373.339 220.934 375.145Z" fill="#AA8ADB"/>
<path d="M235.406 363.763C233.98 358.42 225.425 356.244 216.485 358.894C207.546 361.543 201.4 368.011 202.855 373.354C204.309 378.697 212.835 380.872 221.775 378.223C230.715 375.574 236.874 369.106 235.406 363.763ZM220.934 375.145C214.803 376.965 209.028 375.47 208.102 371.829C207.175 368.188 211.267 363.763 217.398 361.957C223.529 360.152 229.303 361.647 230.301 365.287C231.299 368.928 227.065 373.339 220.934 375.145Z" fill="#9A8ADB"/>
<path d="M1845.31 68.6588C1843.88 63.3159 1835.33 61.1402 1826.39 63.7895C1817.45 66.4387 1811.31 72.9065 1812.77 78.2494C1814.24 83.5923 1822.75 85.768 1831.69 83.1187C1840.63 80.4695 1846.78 74.0017 1845.31 68.6588ZM1830.84 80.0403C1824.71 81.8459 1818.95 80.3659 1818.01 76.725C1817.07 73.0841 1821.17 68.6588 1827.3 66.8531C1833.43 65.0475 1839.21 66.5423 1840.13 70.1832C1841.06 73.8241 1836.97 78.2346 1830.84 80.0403Z" fill="#726099"/>
<path d="M1845.31 68.6588C1843.88 63.3159 1835.33 61.1402 1826.39 63.7895C1817.45 66.4387 1811.31 72.9065 1812.77 78.2494C1814.24 83.5923 1822.75 85.768 1831.69 83.1187C1840.63 80.4695 1846.78 74.0017 1845.31 68.6588ZM1830.84 80.0403C1824.71 81.8459 1818.95 80.3659 1818.01 76.725C1817.07 73.0841 1821.17 68.6588 1827.3 66.8531C1833.43 65.0475 1839.21 66.5423 1840.13 70.1832C1841.06 73.8241 1836.97 78.2346 1830.84 80.0403Z" fill="#AA8ADB"/>
<path d="M1845.31 68.6588C1843.88 63.3159 1835.33 61.1402 1826.39 63.7895C1817.45 66.4387 1811.31 72.9065 1812.77 78.2494C1814.24 83.5923 1822.75 85.768 1831.69 83.1187C1840.63 80.4695 1846.78 74.0017 1845.31 68.6588ZM1830.84 80.0403C1824.71 81.8459 1818.95 80.3659 1818.01 76.725C1817.07 73.0841 1821.17 68.6588 1827.3 66.8531C1833.43 65.0475 1839.21 66.5423 1840.13 70.1832C1841.06 73.8241 1836.97 78.2346 1830.84 80.0403Z" fill="#9A8ADB"/>
<path d="M58.1666 194.403C58.1666 194.403 49.7972 189.696 48.186 185.093V246.352C48.4569 251.221 44.5502 257.171 38.1199 260.975C30.164 265.711 21.3241 265.326 18.4297 260.146C15.5354 254.966 19.5989 246.973 27.5548 242.267C33.9138 238.522 40.7862 237.99 44.7926 240.535V179.987H48.2003C48.2003 179.987 51.4511 187.683 55.757 189.015L58.1666 194.403Z" fill="#726099"/>
<path d="M58.1666 194.403C58.1666 194.403 49.7972 189.696 48.186 185.093V246.352C48.4569 251.221 44.5502 257.171 38.1199 260.975C30.164 265.711 21.3241 265.326 18.4297 260.146C15.5354 254.966 19.5989 246.973 27.5548 242.267C33.9138 238.522 40.7862 237.99 44.7926 240.535V179.987H48.2003C48.2003 179.987 51.4511 187.683 55.757 189.015L58.1666 194.403Z" fill="#AA8ADB"/>
<path d="M58.1666 194.403C58.1666 194.403 49.7972 189.696 48.186 185.093V246.352C48.4569 251.221 44.5502 257.171 38.1199 260.975C30.164 265.711 21.3241 265.326 18.4297 260.146C15.5354 254.966 19.5989 246.973 27.5548 242.267C33.9138 238.522 40.7862 237.99 44.7926 240.535V179.987H48.2003C48.2003 179.987 51.4511 187.683 55.757 189.015L58.1666 194.403Z" fill="#9A8ADB"/>
<path d="M335.013 372.17C335.013 372.17 326.643 367.463 325.032 362.875V424.119C325.303 429.003 321.396 434.953 314.952 438.756C306.996 443.478 298.17 443.093 295.262 437.928C292.353 432.762 296.431 424.74 304.387 420.034C310.746 416.289 317.632 415.757 321.639 418.317V357.769H325.046C325.046 357.769 328.297 365.465 332.603 366.797L335.013 372.17Z" fill="#726099"/>
<path d="M335.013 372.17C335.013 372.17 326.643 367.463 325.032 362.875V424.119C325.303 429.003 321.396 434.953 314.952 438.756C306.996 443.478 298.17 443.093 295.262 437.928C292.353 432.762 296.431 424.74 304.387 420.034C310.746 416.289 317.632 415.757 321.639 418.317V357.769H325.046C325.046 357.769 328.297 365.465 332.603 366.797L335.013 372.17Z" fill="#AA8ADB"/>
<path d="M335.013 372.17C335.013 372.17 326.643 367.463 325.032 362.875V424.119C325.303 429.003 321.396 434.953 314.952 438.756C306.996 443.478 298.17 443.093 295.262 437.928C292.353 432.762 296.431 424.74 304.387 420.034C310.746 416.289 317.632 415.757 321.639 418.317V357.769H325.046C325.046 357.769 328.297 365.465 332.603 366.797L335.013 372.17Z" fill="#9A8ADB"/>
<path d="M1790.4 164.284C1790.4 164.284 1782.03 159.577 1780.42 154.989V216.233C1780.69 221.102 1776.79 227.067 1770.34 230.871C1762.39 235.592 1753.56 235.207 1750.65 230.042C1747.74 224.876 1751.82 216.855 1759.78 212.148C1766.14 208.404 1773.02 207.871 1777.03 210.431V149.794H1780.44C1780.44 149.794 1783.67 157.49 1787.99 158.837L1790.4 164.284Z" fill="#726099"/>
<path d="M1790.4 164.284C1790.4 164.284 1782.03 159.577 1780.42 154.989V216.233C1780.69 221.102 1776.79 227.067 1770.34 230.871C1762.39 235.592 1753.56 235.207 1750.65 230.042C1747.74 224.876 1751.82 216.855 1759.78 212.148C1766.14 208.404 1773.02 207.871 1777.03 210.431V149.794H1780.44C1780.44 149.794 1783.67 157.49 1787.99 158.837L1790.4 164.284Z" fill="#AA8ADB"/>
<path d="M1790.4 164.284C1790.4 164.284 1782.03 159.577 1780.42 154.989V216.233C1780.69 221.102 1776.79 227.067 1770.34 230.871C1762.39 235.592 1753.56 235.207 1750.65 230.042C1747.74 224.876 1751.82 216.855 1759.78 212.148C1766.14 208.404 1773.02 207.871 1777.03 210.431V149.794H1780.44C1780.44 149.794 1783.67 157.49 1787.99 158.837L1790.4 164.284Z" fill="#9A8ADB"/>
<path d="M898.343 157.861V160.821L898.257 224.181C898.542 229.05 894.635 235.015 888.191 238.819C880.235 243.54 871.409 243.155 868.486 237.975C865.564 232.795 869.67 224.803 877.626 220.096C883.985 216.352 890.871 215.819 894.878 218.379V161.561L844.818 172.498V178.418C846.13 180.801 848.483 184.338 851.263 185.167L853.744 190.54C853.373 190.333 847.57 187.002 844.818 183.273V189.844C846.13 192.227 848.483 195.764 851.263 196.608L853.744 201.966C853.373 201.773 847.57 198.443 844.818 194.713V201.995C846.13 204.363 848.483 207.915 851.263 208.744L853.744 214.117C853.373 213.91 847.57 210.579 844.818 206.85V236.761C845.104 241.645 841.197 247.595 834.752 251.399C826.796 256.12 817.971 255.735 815.048 250.555C812.125 245.375 816.231 237.383 824.187 232.676C830.546 228.932 837.433 228.399 841.439 230.96V170.411L894.878 158.615L898.343 157.861Z" fill="#726099"/>
<path d="M898.343 157.861V160.821L898.257 224.181C898.542 229.05 894.635 235.015 888.191 238.819C880.235 243.54 871.409 243.155 868.486 237.975C865.564 232.795 869.67 224.803 877.626 220.096C883.985 216.352 890.871 215.819 894.878 218.379V161.561L844.818 172.498V178.418C846.13 180.801 848.483 184.338 851.263 185.167L853.744 190.54C853.373 190.333 847.57 187.002 844.818 183.273V189.844C846.13 192.227 848.483 195.764 851.263 196.608L853.744 201.966C853.373 201.773 847.57 198.443 844.818 194.713V201.995C846.13 204.363 848.483 207.915 851.263 208.744L853.744 214.117C853.373 213.91 847.57 210.579 844.818 206.85V236.761C845.104 241.645 841.197 247.595 834.752 251.399C826.796 256.12 817.971 255.735 815.048 250.555C812.125 245.375 816.231 237.383 824.187 232.676C830.546 228.932 837.433 228.399 841.439 230.96V170.411L894.878 158.615L898.343 157.861Z" fill="#AA8ADB"/>
<path d="M898.343 157.861V160.821L898.257 224.181C898.542 229.05 894.635 235.015 888.191 238.819C880.235 243.54 871.409 243.155 868.486 237.975C865.564 232.795 869.67 224.803 877.626 220.096C883.985 216.352 890.871 215.819 894.878 218.379V161.561L844.818 172.498V178.418C846.13 180.801 848.483 184.338 851.263 185.167L853.744 190.54C853.373 190.333 847.57 187.002 844.818 183.273V189.844C846.13 192.227 848.483 195.764 851.263 196.608L853.744 201.966C853.373 201.773 847.57 198.443 844.818 194.713V201.995C846.13 204.363 848.483 207.915 851.263 208.744L853.744 214.117C853.373 213.91 847.57 210.579 844.818 206.85V236.761C845.104 241.645 841.197 247.595 834.752 251.399C826.796 256.12 817.971 255.735 815.048 250.555C812.125 245.375 816.231 237.383 824.187 232.676C830.546 228.932 837.433 228.399 841.439 230.96V170.411L894.878 158.615L898.343 157.861Z" fill="#9A8ADB"/>
<path d="M1842.06 358.42V361.38L1841.97 424.74C1842.26 429.61 1838.35 435.574 1831.91 439.378C1823.95 444.099 1815.13 443.714 1812.2 438.534C1809.28 433.354 1813.39 425.362 1821.34 420.656C1827.7 416.911 1834.59 416.378 1838.59 418.939V362.12L1788.54 373.058V378.889C1789.85 381.272 1792.2 384.809 1794.98 385.638L1797.46 391.01C1797.09 390.803 1791.29 387.473 1788.54 383.743V390.315C1789.85 392.698 1792.2 396.235 1794.98 397.079L1797.46 402.436C1797.09 402.244 1791.29 398.914 1788.54 395.184V402.466C1789.85 404.834 1792.2 408.386 1794.98 409.215L1797.46 414.587C1797.09 414.38 1791.29 411.05 1788.54 407.32V437.232C1788.82 442.116 1784.91 448.066 1778.47 451.869C1770.51 456.591 1761.69 456.206 1758.76 451.026C1755.84 445.846 1759.95 437.854 1767.9 433.147C1774.26 429.403 1781.15 428.87 1785.16 431.43V370.882L1838.58 359.16L1842.06 358.42Z" fill="#726099"/>
<path d="M1842.06 358.42V361.38L1841.97 424.74C1842.26 429.61 1838.35 435.574 1831.91 439.378C1823.95 444.099 1815.13 443.714 1812.2 438.534C1809.28 433.354 1813.39 425.362 1821.34 420.656C1827.7 416.911 1834.59 416.378 1838.59 418.939V362.12L1788.54 373.058V378.889C1789.85 381.272 1792.2 384.809 1794.98 385.638L1797.46 391.01C1797.09 390.803 1791.29 387.473 1788.54 383.743V390.315C1789.85 392.698 1792.2 396.235 1794.98 397.079L1797.46 402.436C1797.09 402.244 1791.29 398.914 1788.54 395.184V402.466C1789.85 404.834 1792.2 408.386 1794.98 409.215L1797.46 414.587C1797.09 414.38 1791.29 411.05 1788.54 407.32V437.232C1788.82 442.116 1784.91 448.066 1778.47 451.869C1770.51 456.591 1761.69 456.206 1758.76 451.026C1755.84 445.846 1759.95 437.854 1767.9 433.147C1774.26 429.403 1781.15 428.87 1785.16 431.43V370.882L1838.58 359.16L1842.06 358.42Z" fill="#AA8ADB"/>
<path d="M1842.06 358.42V361.38L1841.97 424.74C1842.26 429.61 1838.35 435.574 1831.91 439.378C1823.95 444.099 1815.13 443.714 1812.2 438.534C1809.28 433.354 1813.39 425.362 1821.34 420.656C1827.7 416.911 1834.59 416.378 1838.59 418.939V362.12L1788.54 373.058V378.889C1789.85 381.272 1792.2 384.809 1794.98 385.638L1797.46 391.01C1797.09 390.803 1791.29 387.473 1788.54 383.743V390.315C1789.85 392.698 1792.2 396.235 1794.98 397.079L1797.46 402.436C1797.09 402.244 1791.29 398.914 1788.54 395.184V402.466C1789.85 404.834 1792.2 408.386 1794.98 409.215L1797.46 414.587C1797.09 414.38 1791.29 411.05 1788.54 407.32V437.232C1788.82 442.116 1784.91 448.066 1778.47 451.869C1770.51 456.591 1761.69 456.206 1758.76 451.026C1755.84 445.846 1759.95 437.854 1767.9 433.147C1774.26 429.403 1781.15 428.87 1785.16 431.43V370.882L1838.58 359.16L1842.06 358.42Z" fill="#9A8ADB"/>
<path d="M206.876 92.4875V99.3401C208.104 101.501 209.961 103.201 212.18 104.195L214.66 109.523C211.833 107.902 209.217 105.913 206.876 103.603V129.044C207.161 133.929 203.24 139.878 196.809 143.682C188.854 148.403 180.028 148.018 177.105 142.853C174.182 137.688 178.274 129.666 186.244 124.959C192.589 121.2 199.476 120.682 203.496 123.243V65.1217L158.855 52.571V60.2819C160.167 62.6648 162.505 66.1133 165.257 66.9717L167.723 72.3738C167.367 72.1814 161.621 68.881 158.855 65.1809V115.25C158.862 115.354 158.862 115.458 158.855 115.561C158.862 115.665 158.862 115.769 158.855 115.872C158.855 120.608 154.948 126.232 148.775 129.888C140.819 134.595 131.993 134.225 129.07 129.059C128.956 128.865 128.856 128.662 128.771 128.452C128.685 128.287 128.613 128.113 128.557 127.934C128.549 127.856 128.549 127.776 128.557 127.698C128.557 127.535 128.457 127.372 128.414 127.209C128.358 126.985 128.315 126.758 128.286 126.528C128.286 126.218 128.286 125.922 128.2 125.611V125.522C128.2 120.756 132.093 115.162 138.281 111.476C144.469 107.791 151.512 107.199 155.533 109.76V51.6829L110.806 39.1174V52.8226C111.932 55.0574 114.57 59.5863 117.764 60.578L120.244 65.9357C119.831 65.6989 113.23 61.91 110.806 57.8695V65.2697C111.932 67.5045 114.57 72.0334 117.764 73.0251L120.244 78.3828C119.831 78.146 113.23 74.3571 110.806 70.3166V101.753C111.091 106.637 107.184 112.601 100.74 116.405C92.7837 121.111 83.9581 120.741 81.0352 115.576C78.1123 110.411 82.1758 102.374 90.1603 97.6824C96.5193 93.9231 103.392 93.3903 107.412 95.9656V35.4174H109.779L110.806 35.6986L157.743 48.8413L158.769 49.1225L206.804 62.6204V76.1775C208.032 78.3381 209.889 80.038 212.108 81.032L214.589 86.4046C211.761 84.784 209.145 82.7945 206.804 80.4844V88.1214C208.032 90.282 209.889 91.9818 212.108 92.9759L214.589 98.3484C211.79 96.741 209.198 94.7717 206.876 92.4875Z" fill="#726099"/>
<path d="M206.876 92.4875V99.3401C208.104 101.501 209.961 103.201 212.18 104.195L214.66 109.523C211.833 107.902 209.217 105.913 206.876 103.603V129.044C207.161 133.929 203.24 139.878 196.809 143.682C188.854 148.403 180.028 148.018 177.105 142.853C174.182 137.688 178.274 129.666 186.244 124.959C192.589 121.2 199.476 120.682 203.496 123.243V65.1217L158.855 52.571V60.2819C160.167 62.6648 162.505 66.1133 165.257 66.9717L167.723 72.3738C167.367 72.1814 161.621 68.881 158.855 65.1809V115.25C158.862 115.354 158.862 115.458 158.855 115.561C158.862 115.665 158.862 115.769 158.855 115.872C158.855 120.608 154.948 126.232 148.775 129.888C140.819 134.595 131.993 134.225 129.07 129.059C128.956 128.865 128.856 128.662 128.771 128.452C128.685 128.287 128.613 128.113 128.557 127.934C128.549 127.856 128.549 127.776 128.557 127.698C128.557 127.535 128.457 127.372 128.414 127.209C128.358 126.985 128.315 126.758 128.286 126.528C128.286 126.218 128.286 125.922 128.2 125.611V125.522C128.2 120.756 132.093 115.162 138.281 111.476C144.469 107.791 151.512 107.199 155.533 109.76V51.6829L110.806 39.1174V52.8226C111.932 55.0574 114.57 59.5863 117.764 60.578L120.244 65.9357C119.831 65.6989 113.23 61.91 110.806 57.8695V65.2697C111.932 67.5045 114.57 72.0334 117.764 73.0251L120.244 78.3828C119.831 78.146 113.23 74.3571 110.806 70.3166V101.753C111.091 106.637 107.184 112.601 100.74 116.405C92.7837 121.111 83.9581 120.741 81.0352 115.576C78.1123 110.411 82.1758 102.374 90.1603 97.6824C96.5193 93.9231 103.392 93.3903 107.412 95.9656V35.4174H109.779L110.806 35.6986L157.743 48.8413L158.769 49.1225L206.804 62.6204V76.1775C208.032 78.3381 209.889 80.038 212.108 81.032L214.589 86.4046C211.761 84.784 209.145 82.7945 206.804 80.4844V88.1214C208.032 90.282 209.889 91.9818 212.108 92.9759L214.589 98.3484C211.79 96.741 209.198 94.7717 206.876 92.4875Z" fill="#AA8ADB"/>
<path d="M206.876 92.4875V99.3401C208.104 101.501 209.961 103.201 212.18 104.195L214.66 109.523C211.833 107.902 209.217 105.913 206.876 103.603V129.044C207.161 133.929 203.24 139.878 196.809 143.682C188.854 148.403 180.028 148.018 177.105 142.853C174.182 137.688 178.274 129.666 186.244 124.959C192.589 121.2 199.476 120.682 203.496 123.243V65.1217L158.855 52.571V60.2819C160.167 62.6648 162.505 66.1133 165.257 66.9717L167.723 72.3738C167.367 72.1814 161.621 68.881 158.855 65.1809V115.25C158.862 115.354 158.862 115.458 158.855 115.561C158.862 115.665 158.862 115.769 158.855 115.872C158.855 120.608 154.948 126.232 148.775 129.888C140.819 134.595 131.993 134.225 129.07 129.059C128.956 128.865 128.856 128.662 128.771 128.452C128.685 128.287 128.613 128.113 128.557 127.934C128.549 127.856 128.549 127.776 128.557 127.698C128.557 127.535 128.457 127.372 128.414 127.209C128.358 126.985 128.315 126.758 128.286 126.528C128.286 126.218 128.286 125.922 128.2 125.611V125.522C128.2 120.756 132.093 115.162 138.281 111.476C144.469 107.791 151.512 107.199 155.533 109.76V51.6829L110.806 39.1174V52.8226C111.932 55.0574 114.57 59.5863 117.764 60.578L120.244 65.9357C119.831 65.6989 113.23 61.91 110.806 57.8695V65.2697C111.932 67.5045 114.57 72.0334 117.764 73.0251L120.244 78.3828C119.831 78.146 113.23 74.3571 110.806 70.3166V101.753C111.091 106.637 107.184 112.601 100.74 116.405C92.7837 121.111 83.9581 120.741 81.0352 115.576C78.1123 110.411 82.1758 102.374 90.1603 97.6824C96.5193 93.9231 103.392 93.3903 107.412 95.9656V35.4174H109.779L110.806 35.6986L157.743 48.8413L158.769 49.1225L206.804 62.6204V76.1775C208.032 78.3381 209.889 80.038 212.108 81.032L214.589 86.4046C211.761 84.784 209.145 82.7945 206.804 80.4844V88.1214C208.032 90.282 209.889 91.9818 212.108 92.9759L214.589 98.3484C211.79 96.741 209.198 94.7717 206.876 92.4875Z" fill="#9A8ADB"/>
<path d="M1678.59 261.019V267.886C1679.82 270.047 1681.68 271.747 1683.9 272.741L1686.38 278.113C1683.55 276.493 1680.93 274.503 1678.59 272.193V297.591C1678.88 302.475 1674.96 308.424 1668.53 312.228C1660.57 316.949 1651.75 316.565 1648.82 311.399C1645.9 306.234 1649.99 298.212 1657.96 293.506C1664.31 289.746 1671.19 289.228 1675.21 291.789V233.697L1630.59 221.147V228.858C1631.9 231.241 1634.24 234.689 1636.99 235.547L1639.45 240.905C1639.1 240.713 1633.35 237.412 1630.59 233.712V283.782C1630.59 283.885 1630.59 283.989 1630.59 284.093C1630.59 284.196 1630.59 284.3 1630.59 284.403C1630.59 289.14 1626.68 294.764 1620.51 298.419C1612.55 303.126 1603.72 302.756 1600.8 297.591C1600.69 297.396 1600.59 297.193 1600.5 296.984C1600.42 296.818 1600.34 296.645 1600.29 296.466C1600.28 296.387 1600.28 296.308 1600.29 296.229C1600.29 296.066 1600.19 295.903 1600.15 295.741C1600.09 295.517 1600.05 295.289 1600.02 295.06C1600.02 294.749 1600.02 294.453 1599.93 294.142V294.053C1599.93 289.288 1603.82 283.693 1610.01 280.008C1616.2 276.322 1623.24 275.73 1627.26 278.291V220.214L1582.62 207.649V221.354C1583.75 223.589 1586.39 228.118 1589.58 229.109L1592.06 234.467C1591.65 234.23 1585.05 230.441 1582.62 226.401V233.801C1583.75 236.036 1586.39 240.565 1589.58 241.556L1592.06 246.914C1591.65 246.677 1585.05 242.888 1582.62 238.848V270.314C1582.91 275.198 1579 281.162 1572.56 284.966C1564.6 289.672 1555.78 289.302 1552.85 284.137C1549.93 278.972 1554.02 270.935 1561.99 266.243C1568.35 262.484 1575.22 261.951 1579.24 264.527V203.949H1581.61L1582.64 204.23L1629.69 217.432L1630.71 217.713L1678.75 231.211V244.768C1679.98 246.929 1681.83 248.629 1684.05 249.623L1686.53 254.995C1683.71 253.375 1681.09 251.385 1678.75 249.075V256.712C1679.98 258.873 1681.83 260.572 1684.05 261.566L1686.53 266.939C1683.65 265.33 1680.98 263.34 1678.59 261.019Z" fill="#726099"/>
<path d="M1678.59 261.019V267.886C1679.82 270.047 1681.68 271.747 1683.9 272.741L1686.38 278.113C1683.55 276.493 1680.93 274.503 1678.59 272.193V297.591C1678.88 302.475 1674.96 308.424 1668.53 312.228C1660.57 316.949 1651.75 316.565 1648.82 311.399C1645.9 306.234 1649.99 298.212 1657.96 293.506C1664.31 289.746 1671.19 289.228 1675.21 291.789V233.697L1630.59 221.147V228.858C1631.9 231.241 1634.24 234.689 1636.99 235.547L1639.45 240.905C1639.1 240.713 1633.35 237.412 1630.59 233.712V283.782C1630.59 283.885 1630.59 283.989 1630.59 284.093C1630.59 284.196 1630.59 284.3 1630.59 284.403C1630.59 289.14 1626.68 294.764 1620.51 298.419C1612.55 303.126 1603.72 302.756 1600.8 297.591C1600.69 297.396 1600.59 297.193 1600.5 296.984C1600.42 296.818 1600.34 296.645 1600.29 296.466C1600.28 296.387 1600.28 296.308 1600.29 296.229C1600.29 296.066 1600.19 295.903 1600.15 295.741C1600.09 295.517 1600.05 295.289 1600.02 295.06C1600.02 294.749 1600.02 294.453 1599.93 294.142V294.053C1599.93 289.288 1603.82 283.693 1610.01 280.008C1616.2 276.322 1623.24 275.73 1627.26 278.291V220.214L1582.62 207.649V221.354C1583.75 223.589 1586.39 228.118 1589.58 229.109L1592.06 234.467C1591.65 234.23 1585.05 230.441 1582.62 226.401V233.801C1583.75 236.036 1586.39 240.565 1589.58 241.556L1592.06 246.914C1591.65 246.677 1585.05 242.888 1582.62 238.848V270.314C1582.91 275.198 1579 281.162 1572.56 284.966C1564.6 289.672 1555.78 289.302 1552.85 284.137C1549.93 278.972 1554.02 270.935 1561.99 266.243C1568.35 262.484 1575.22 261.951 1579.24 264.527V203.949H1581.61L1582.64 204.23L1629.69 217.432L1630.71 217.713L1678.75 231.211V244.768C1679.98 246.929 1681.83 248.629 1684.05 249.623L1686.53 254.995C1683.71 253.375 1681.09 251.385 1678.75 249.075V256.712C1679.98 258.873 1681.83 260.572 1684.05 261.566L1686.53 266.939C1683.65 265.33 1680.98 263.34 1678.59 261.019Z" fill="#AA8ADB"/>
<path d="M1678.59 261.019V267.886C1679.82 270.047 1681.68 271.747 1683.9 272.741L1686.38 278.113C1683.55 276.493 1680.93 274.503 1678.59 272.193V297.591C1678.88 302.475 1674.96 308.424 1668.53 312.228C1660.57 316.949 1651.75 316.565 1648.82 311.399C1645.9 306.234 1649.99 298.212 1657.96 293.506C1664.31 289.746 1671.19 289.228 1675.21 291.789V233.697L1630.59 221.147V228.858C1631.9 231.241 1634.24 234.689 1636.99 235.547L1639.45 240.905C1639.1 240.713 1633.35 237.412 1630.59 233.712V283.782C1630.59 283.885 1630.59 283.989 1630.59 284.093C1630.59 284.196 1630.59 284.3 1630.59 284.403C1630.59 289.14 1626.68 294.764 1620.51 298.419C1612.55 303.126 1603.72 302.756 1600.8 297.591C1600.69 297.396 1600.59 297.193 1600.5 296.984C1600.42 296.818 1600.34 296.645 1600.29 296.466C1600.28 296.387 1600.28 296.308 1600.29 296.229C1600.29 296.066 1600.19 295.903 1600.15 295.741C1600.09 295.517 1600.05 295.289 1600.02 295.06C1600.02 294.749 1600.02 294.453 1599.93 294.142V294.053C1599.93 289.288 1603.82 283.693 1610.01 280.008C1616.2 276.322 1623.24 275.73 1627.26 278.291V220.214L1582.62 207.649V221.354C1583.75 223.589 1586.39 228.118 1589.58 229.109L1592.06 234.467C1591.65 234.23 1585.05 230.441 1582.62 226.401V233.801C1583.75 236.036 1586.39 240.565 1589.58 241.556L1592.06 246.914C1591.65 246.677 1585.05 242.888 1582.62 238.848V270.314C1582.91 275.198 1579 281.162 1572.56 284.966C1564.6 289.672 1555.78 289.302 1552.85 284.137C1549.93 278.972 1554.02 270.935 1561.99 266.243C1568.35 262.484 1575.22 261.951 1579.24 264.527V203.949H1581.61L1582.64 204.23L1629.69 217.432L1630.71 217.713L1678.75 231.211V244.768C1679.98 246.929 1681.83 248.629 1684.05 249.623L1686.53 254.995C1683.71 253.375 1681.09 251.385 1678.75 249.075V256.712C1679.98 258.873 1681.83 260.572 1684.05 261.566L1686.53 266.939C1683.65 265.33 1680.98 263.34 1678.59 261.019Z" fill="#9A8ADB"/>
<path d="M608.678 50.4248L611.145 55.7825C607.962 53.9818 605.075 51.6689 602.59 48.93V80.1439C602.875 85.028 598.968 90.9778 592.524 94.7815C584.568 99.5028 575.742 99.118 572.834 93.9526C569.925 88.7873 574.003 80.7507 581.973 76.059C588.318 72.2997 595.204 71.7817 599.225 74.3422V16.2804L554.512 3.71489V15.9548C555.852 18.308 558.077 21.4457 560.686 22.2597L563.167 27.6175C559.947 25.8099 557.026 23.4818 554.512 20.7205V66.3352C554.512 66.498 554.512 66.6608 554.512 66.8236C554.512 71.6041 550.648 77.3022 544.417 80.9875C536.462 85.694 527.636 85.324 524.727 80.1587C521.819 74.9934 525.896 66.9716 533.867 62.2651C540.211 58.5058 547.098 57.973 551.119 60.5482V0H553.485L554.498 0.281207L602.59 13.7791V29.8227C603.944 32.1612 606.154 35.2248 608.721 36.0241L611.145 41.441C607.962 39.6403 605.075 37.3274 602.59 34.5884V44.2827C603.901 46.5619 606.111 49.6256 608.678 50.4248Z" fill="#726099"/>
<path d="M608.678 50.4248L611.145 55.7825C607.962 53.9818 605.075 51.6689 602.59 48.93V80.1439C602.875 85.028 598.968 90.9778 592.524 94.7815C584.568 99.5028 575.742 99.118 572.834 93.9526C569.925 88.7873 574.003 80.7507 581.973 76.059C588.318 72.2997 595.204 71.7817 599.225 74.3422V16.2804L554.512 3.71489V15.9548C555.852 18.308 558.077 21.4457 560.686 22.2597L563.167 27.6175C559.947 25.8099 557.026 23.4818 554.512 20.7205V66.3352C554.512 66.498 554.512 66.6608 554.512 66.8236C554.512 71.6041 550.648 77.3022 544.417 80.9875C536.462 85.694 527.636 85.324 524.727 80.1587C521.819 74.9934 525.896 66.9716 533.867 62.2651C540.211 58.5058 547.098 57.973 551.119 60.5482V0H553.485L554.498 0.281207L602.59 13.7791V29.8227C603.944 32.1612 606.154 35.2248 608.721 36.0241L611.145 41.441C607.962 39.6403 605.075 37.3274 602.59 34.5884V44.2827C603.901 46.5619 606.111 49.6256 608.678 50.4248Z" fill="#AA8ADB"/>
<path d="M608.678 50.4248L611.145 55.7825C607.962 53.9818 605.075 51.6689 602.59 48.93V80.1439C602.875 85.028 598.968 90.9778 592.524 94.7815C584.568 99.5028 575.742 99.118 572.834 93.9526C569.925 88.7873 574.003 80.7507 581.973 76.059C588.318 72.2997 595.204 71.7817 599.225 74.3422V16.2804L554.512 3.71489V15.9548C555.852 18.308 558.077 21.4457 560.686 22.2597L563.167 27.6175C559.947 25.8099 557.026 23.4818 554.512 20.7205V66.3352C554.512 66.498 554.512 66.6608 554.512 66.8236C554.512 71.6041 550.648 77.3022 544.417 80.9875C536.462 85.694 527.636 85.324 524.727 80.1587C521.819 74.9934 525.896 66.9716 533.867 62.2651C540.211 58.5058 547.098 57.973 551.119 60.5482V0H553.485L554.498 0.281207L602.59 13.7791V29.8227C603.944 32.1612 606.154 35.2248 608.721 36.0241L611.145 41.441C607.962 39.6403 605.075 37.3274 602.59 34.5884V44.2827C603.901 46.5619 606.111 49.6256 608.678 50.4248Z" fill="#9A8ADB"/>
<path d="M1727.54 88.2545L1730.02 93.6122C1726.84 91.8115 1723.95 89.4986 1721.47 86.7597V117.974C1721.75 122.858 1717.85 128.807 1711.4 132.611C1703.45 137.332 1694.62 136.948 1691.71 131.782C1688.8 126.617 1692.88 118.58 1700.85 113.889C1707.2 110.129 1714.08 109.611 1718.1 112.172V54.0953L1673.36 41.5446V53.7845C1674.7 56.1377 1676.93 59.2754 1679.54 60.0894L1682.02 65.4472C1678.79 63.6261 1675.87 61.2829 1673.36 58.5058V104.165C1673.36 104.328 1673.36 104.49 1673.36 104.653C1673.36 109.434 1669.5 115.132 1663.27 118.817C1655.31 123.524 1646.49 123.154 1643.58 117.988C1640.67 112.823 1644.75 104.801 1652.72 100.095C1659.06 96.3355 1665.95 95.8027 1669.97 98.378V37.8297H1672.34L1673.35 38.1109L1721.4 51.6088V67.6524C1722.82 69.9909 1724.96 73.0546 1727.53 73.8538L1730.01 79.2115C1726.83 77.4108 1723.94 75.0979 1721.45 72.3589V82.0532C1722.81 84.362 1725.02 87.4553 1727.54 88.2545Z" fill="#726099"/>
<path d="M1727.54 88.2545L1730.02 93.6122C1726.84 91.8115 1723.95 89.4986 1721.47 86.7597V117.974C1721.75 122.858 1717.85 128.807 1711.4 132.611C1703.45 137.332 1694.62 136.948 1691.71 131.782C1688.8 126.617 1692.88 118.58 1700.85 113.889C1707.2 110.129 1714.08 109.611 1718.1 112.172V54.0953L1673.36 41.5446V53.7845C1674.7 56.1377 1676.93 59.2754 1679.54 60.0894L1682.02 65.4472C1678.79 63.6261 1675.87 61.2829 1673.36 58.5058V104.165C1673.36 104.328 1673.36 104.49 1673.36 104.653C1673.36 109.434 1669.5 115.132 1663.27 118.817C1655.31 123.524 1646.49 123.154 1643.58 117.988C1640.67 112.823 1644.75 104.801 1652.72 100.095C1659.06 96.3355 1665.95 95.8027 1669.97 98.378V37.8297H1672.34L1673.35 38.1109L1721.4 51.6088V67.6524C1722.82 69.9909 1724.96 73.0546 1727.53 73.8538L1730.01 79.2115C1726.83 77.4108 1723.94 75.0979 1721.45 72.3589V82.0532C1722.81 84.362 1725.02 87.4553 1727.54 88.2545Z" fill="#AA8ADB"/>
<path d="M1727.54 88.2545L1730.02 93.6122C1726.84 91.8115 1723.95 89.4986 1721.47 86.7597V117.974C1721.75 122.858 1717.85 128.807 1711.4 132.611C1703.45 137.332 1694.62 136.948 1691.71 131.782C1688.8 126.617 1692.88 118.58 1700.85 113.889C1707.2 110.129 1714.08 109.611 1718.1 112.172V54.0953L1673.36 41.5446V53.7845C1674.7 56.1377 1676.93 59.2754 1679.54 60.0894L1682.02 65.4472C1678.79 63.6261 1675.87 61.2829 1673.36 58.5058V104.165C1673.36 104.328 1673.36 104.49 1673.36 104.653C1673.36 109.434 1669.5 115.132 1663.27 118.817C1655.31 123.524 1646.49 123.154 1643.58 117.988C1640.67 112.823 1644.75 104.801 1652.72 100.095C1659.06 96.3355 1665.95 95.8027 1669.97 98.378V37.8297H1672.34L1673.35 38.1109L1721.4 51.6088V67.6524C1722.82 69.9909 1724.96 73.0546 1727.53 73.8538L1730.01 79.2115C1726.83 77.4108 1723.94 75.0979 1721.45 72.3589V82.0532C1722.81 84.362 1725.02 87.4553 1727.54 88.2545Z" fill="#9A8ADB"/>
<path d="M1188.36 408.194L1190.84 413.551C1187.66 411.751 1184.77 409.438 1182.29 406.699V437.913C1182.57 442.797 1178.67 448.747 1172.22 452.55C1164.27 457.272 1155.44 456.887 1152.53 451.721C1149.62 446.556 1153.7 438.52 1161.67 433.828C1168.02 430.069 1174.9 429.55 1178.92 432.111V374.034L1134.27 361.484V373.724C1135.61 376.077 1137.83 379.214 1140.44 380.029L1142.92 385.386C1139.7 383.565 1136.78 381.222 1134.27 378.445V424.104C1134.27 424.267 1134.27 424.43 1134.27 424.592C1134.27 429.373 1130.4 435.071 1124.17 438.756C1116.22 443.463 1107.39 443.093 1104.48 437.928C1101.57 432.762 1105.65 424.74 1113.62 420.034C1119.97 416.275 1126.85 415.742 1130.87 418.317V357.769H1133.24L1134.25 358.05L1182.3 371.548V387.592C1183.73 389.93 1185.87 392.994 1188.43 393.793L1190.91 399.151C1187.73 397.35 1184.84 395.037 1182.36 392.298V401.992C1183.59 404.331 1185.74 407.394 1188.36 408.194Z" fill="#726099"/>
<path d="M1188.36 408.194L1190.84 413.551C1187.66 411.751 1184.77 409.438 1182.29 406.699V437.913C1182.57 442.797 1178.67 448.747 1172.22 452.55C1164.27 457.272 1155.44 456.887 1152.53 451.721C1149.62 446.556 1153.7 438.52 1161.67 433.828C1168.02 430.069 1174.9 429.55 1178.92 432.111V374.034L1134.27 361.484V373.724C1135.61 376.077 1137.83 379.214 1140.44 380.029L1142.92 385.386C1139.7 383.565 1136.78 381.222 1134.27 378.445V424.104C1134.27 424.267 1134.27 424.43 1134.27 424.592C1134.27 429.373 1130.4 435.071 1124.17 438.756C1116.22 443.463 1107.39 443.093 1104.48 437.928C1101.57 432.762 1105.65 424.74 1113.62 420.034C1119.97 416.275 1126.85 415.742 1130.87 418.317V357.769H1133.24L1134.25 358.05L1182.3 371.548V387.592C1183.73 389.93 1185.87 392.994 1188.43 393.793L1190.91 399.151C1187.73 397.35 1184.84 395.037 1182.36 392.298V401.992C1183.59 404.331 1185.74 407.394 1188.36 408.194Z" fill="#AA8ADB"/>
<path d="M1188.36 408.194L1190.84 413.551C1187.66 411.751 1184.77 409.438 1182.29 406.699V437.913C1182.57 442.797 1178.67 448.747 1172.22 452.55C1164.27 457.272 1155.44 456.887 1152.53 451.721C1149.62 446.556 1153.7 438.52 1161.67 433.828C1168.02 430.069 1174.9 429.55 1178.92 432.111V374.034L1134.27 361.484V373.724C1135.61 376.077 1137.83 379.214 1140.44 380.029L1142.92 385.386C1139.7 383.565 1136.78 381.222 1134.27 378.445V424.104C1134.27 424.267 1134.27 424.43 1134.27 424.592C1134.27 429.373 1130.4 435.071 1124.17 438.756C1116.22 443.463 1107.39 443.093 1104.48 437.928C1101.57 432.762 1105.65 424.74 1113.62 420.034C1119.97 416.275 1126.85 415.742 1130.87 418.317V357.769H1133.24L1134.25 358.05L1182.3 371.548V387.592C1183.73 389.93 1185.87 392.994 1188.43 393.793L1190.91 399.151C1187.73 397.35 1184.84 395.037 1182.36 392.298V401.992C1183.59 404.331 1185.74 407.394 1188.36 408.194Z" fill="#9A8ADB"/>
<path d="M585.381 232.957L587.862 238.33C587.862 238.33 579.493 233.638 577.882 229.05V278.839C578.153 283.708 574.246 289.672 567.801 293.476C559.846 298.197 551.02 297.813 548.111 292.647C545.203 287.482 549.28 279.46 557.236 274.754C563.595 271.009 570.482 270.476 574.488 273.037V212.474H577.896C577.896 212.474 581.133 220.17 585.453 221.517L587.934 226.889C587.934 226.889 579.564 222.183 577.953 217.595V223.929C577.953 223.929 581.061 231.625 585.381 232.957Z" fill="#726099"/>
<path d="M585.381 232.957L587.862 238.33C587.862 238.33 579.493 233.638 577.882 229.05V278.839C578.153 283.708 574.246 289.672 567.801 293.476C559.846 298.197 551.02 297.813 548.111 292.647C545.203 287.482 549.28 279.46 557.236 274.754C563.595 271.009 570.482 270.476 574.488 273.037V212.474H577.896C577.896 212.474 581.133 220.17 585.453 221.517L587.934 226.889C587.934 226.889 579.564 222.183 577.953 217.595V223.929C577.953 223.929 581.061 231.625 585.381 232.957Z" fill="#AA8ADB"/>
<path d="M585.381 232.957L587.862 238.33C587.862 238.33 579.493 233.638 577.882 229.05V278.839C578.153 283.708 574.246 289.672 567.801 293.476C559.846 298.197 551.02 297.813 548.111 292.647C545.203 287.482 549.28 279.46 557.236 274.754C563.595 271.009 570.482 270.476 574.488 273.037V212.474H577.896C577.896 212.474 581.133 220.17 585.453 221.517L587.934 226.889C587.934 226.889 579.564 222.183 577.953 217.595V223.929C577.953 223.929 581.061 231.625 585.381 232.957Z" fill="#9A8ADB"/>
<path d="M1562.88 69.5618L1565.37 74.9491C1565.37 74.9491 1557 70.2574 1555.39 65.6545V115.443C1555.66 120.312 1551.75 126.277 1545.32 130.08C1537.37 134.802 1528.53 134.417 1525.63 129.237C1522.74 124.057 1526.8 116.064 1534.76 111.358C1541.12 107.613 1547.99 107.081 1552 109.626V49.0485H1555.4C1555.4 49.0485 1558.66 56.7446 1562.96 58.0767L1565.46 63.464C1565.46 63.464 1557.09 58.7575 1555.48 54.1546V60.5039C1555.48 60.5039 1558.57 68.2001 1562.88 69.5618Z" fill="#726099"/>
<path d="M1562.88 69.5618L1565.37 74.9491C1565.37 74.9491 1557 70.2574 1555.39 65.6545V115.443C1555.66 120.312 1551.75 126.277 1545.32 130.08C1537.37 134.802 1528.53 134.417 1525.63 129.237C1522.74 124.057 1526.8 116.064 1534.76 111.358C1541.12 107.613 1547.99 107.081 1552 109.626V49.0485H1555.4C1555.4 49.0485 1558.66 56.7446 1562.96 58.0767L1565.46 63.464C1565.46 63.464 1557.09 58.7575 1555.48 54.1546V60.5039C1555.48 60.5039 1558.57 68.2001 1562.88 69.5618Z" fill="#AA8ADB"/>
<path d="M1562.88 69.5618L1565.37 74.9491C1565.37 74.9491 1557 70.2574 1555.39 65.6545V115.443C1555.66 120.312 1551.75 126.277 1545.32 130.08C1537.37 134.802 1528.53 134.417 1525.63 129.237C1522.74 124.057 1526.8 116.064 1534.76 111.358C1541.12 107.613 1547.99 107.081 1552 109.626V49.0485H1555.4C1555.4 49.0485 1558.66 56.7446 1562.96 58.0767L1565.46 63.464C1565.46 63.464 1557.09 58.7575 1555.48 54.1546V60.5039C1555.48 60.5039 1558.57 68.2001 1562.88 69.5618Z" fill="#9A8ADB"/>
</svg>
