<svg width="32" height="32" viewBox="0 0 32 32" fill="none" xmlns="http://www.w3.org/2000/svg">
<path d="M29.9827 13.3242H27.9194C27.6252 12.085 27.1347 10.9008 26.4663 9.81665L27.9194 8.35466C28.0604 8.21394 28.1722 8.04682 28.2485 7.86284C28.3248 7.67887 28.364 7.48165 28.364 7.28249C28.364 7.08332 28.3248 6.88611 28.2485 6.70213C28.1722 6.51815 28.0604 6.35103 27.9194 6.21031L26.1258 4.41082C25.8412 4.12688 25.4556 3.96742 25.0536 3.96742C24.6516 3.96742 24.266 4.12688 23.9815 4.41082L22.5195 5.87281C21.4364 5.20302 20.2525 4.71187 19.0133 4.41819V2.3549C19.0135 2.15582 18.9745 1.95865 18.8984 1.77466C18.8224 1.59068 18.7108 1.42349 18.5701 1.28265C18.4294 1.14181 18.2623 1.03008 18.0784 0.953846C17.8945 0.877615 17.6974 0.838379 17.4983 0.838379L14.9501 0.838379C14.5484 0.838769 14.1633 0.998515 13.8793 1.28256C13.5952 1.5666 13.4355 1.95173 13.4351 2.35343V4.41672C12.1961 4.71105 11.0124 5.20216 9.92896 5.87134L8.4655 4.41082C8.18117 4.12697 7.79583 3.96755 7.39406 3.96755C6.9923 3.96755 6.60695 4.12697 6.32262 4.41082L4.52314 6.21178C4.38219 6.3525 4.27037 6.51963 4.19408 6.7036C4.11778 6.88758 4.07851 7.08479 4.07851 7.28396C4.07851 7.48313 4.11778 7.68034 4.19408 7.86431C4.27037 8.04829 4.38219 8.21542 4.52314 8.35613L5.98513 9.81665C5.31558 10.9004 4.82445 12.0847 4.53051 13.3242H2.46721C2.26806 13.3241 2.07082 13.3631 1.88675 13.4391C1.70269 13.5152 1.5354 13.6267 1.39444 13.7674C1.25348 13.9081 1.14161 14.0751 1.06522 14.2591C0.98883 14.443 0.949412 14.6401 0.949219 14.8393L0.949219 17.386C0.949219 17.7882 1.10899 18.1739 1.3934 18.4583C1.6778 18.7427 2.06353 18.9025 2.46574 18.9025H4.52903C4.82337 20.1415 5.31447 21.3252 5.98365 22.4086L4.52166 23.8706C4.38076 24.0112 4.26897 24.1782 4.1927 24.3621C4.11643 24.5459 4.07717 24.743 4.07717 24.9421C4.07717 25.1411 4.11643 25.3382 4.1927 25.5221C4.26897 25.7059 4.38076 25.8729 4.52166 26.0135L6.3241 27.8086C6.46466 27.9492 6.63157 28.0608 6.81529 28.137C6.99901 28.2131 7.19593 28.2523 7.3948 28.2523C7.59367 28.2523 7.79059 28.2131 7.97431 28.137C8.15803 28.0608 8.32494 27.9492 8.4655 27.8086L9.92749 26.3466C11.0109 27.0185 12.1952 27.5121 13.4351 27.8086V29.8719C13.4351 30.2738 13.5947 30.6593 13.8787 30.9437C14.1628 31.228 14.5482 31.388 14.9501 31.3884H17.4968C17.899 31.3884 18.2848 31.2286 18.5692 30.9442C18.8536 30.6598 19.0133 30.2741 19.0133 29.8719V27.8086C20.2525 27.5149 21.4364 27.0237 22.5195 26.3539L23.9815 27.8159C24.1222 27.9569 24.2893 28.0687 24.4733 28.145C24.6573 28.2213 24.8545 28.2606 25.0536 28.2606C25.2528 28.2606 25.45 28.2213 25.634 28.145C25.818 28.0687 25.9851 27.9569 26.1258 27.8159L27.9194 26.0135C28.0603 25.8729 28.1721 25.7059 28.2484 25.5221C28.3246 25.3382 28.3639 25.1411 28.3639 24.9421C28.3639 24.743 28.3246 24.5459 28.2484 24.3621C28.1721 24.1782 28.0603 24.0112 27.9194 23.8706L26.4574 22.4086C27.1292 21.3257 27.6228 20.1419 27.9194 18.9025H29.9827C30.3846 18.9021 30.77 18.7422 31.0541 18.4578C31.3382 18.1735 31.4977 17.7879 31.4977 17.386V14.8393C31.4977 14.6403 31.4586 14.4433 31.3824 14.2595C31.3063 14.0757 31.1947 13.9087 31.054 13.768C30.9133 13.6273 30.7463 13.5157 30.5625 13.4396C30.3787 13.3634 30.1817 13.3242 29.9827 13.3242ZM20.9145 20.8052C19.685 22.0642 18.0058 22.7832 16.2462 22.804C14.4865 22.8249 12.7907 22.1459 11.5317 20.9164C10.2727 19.6869 9.55369 18.0077 9.53282 16.2481C9.51195 14.4884 10.1909 12.7926 11.4204 11.5336L11.5324 11.4201C12.777 10.1758 14.4648 9.4768 16.2247 9.47694C17.9846 9.47708 19.6724 10.1763 20.9167 11.4209C22.1611 12.6654 22.8601 14.3533 22.8599 16.1132C22.8598 17.8731 22.1605 19.5608 20.916 20.8052H20.9145Z" fill="#FFF6F0"/>
</svg>
