<svg width="497" height="676" viewBox="0 0 497 676" fill="none" xmlns="http://www.w3.org/2000/svg">
<path d="M472.772 675.4H58.1618C58.1618 675.4 21.4218 644.62 39.7918 610.63C58.1618 576.64 44.2818 508.89 34.6518 440.05C25.0218 371.21 -6.13817 298.38 26.9618 279.09C60.0618 259.8 79.3118 226.74 90.3318 206.53C101.352 186.32 127.072 161.53 127.072 146.84C127.072 132.15 138.962 109.18 138.962 100.91C138.962 92.64 149.962 36.91 157.342 32.96C166.482 28.01 236.232 -31.75 306.122 22.85C394.292 91.73 425.522 65.1 468.692 176.22C505.462 270.91 462.512 383.22 442.692 555.12C435.222 620.43 472.772 675.4 472.772 675.4Z" fill="#36323F"/>
<path d="M472.772 675.4H58.1618C58.1618 675.4 21.4218 644.62 39.7918 610.63C58.1618 576.64 44.2818 508.89 34.6518 440.05C25.0218 371.21 -6.13817 298.38 26.9618 279.09C60.0618 259.8 79.3118 226.74 90.3318 206.53C101.352 186.32 127.072 161.53 127.072 146.84C127.072 132.15 138.962 109.18 138.962 100.91C138.962 92.64 149.962 36.91 157.342 32.96C166.482 28.01 236.232 -31.75 306.122 22.85C394.292 91.73 425.522 65.1 468.692 176.22C505.462 270.91 462.512 383.22 442.692 555.12C435.222 620.43 472.772 675.4 472.772 675.4Z" fill="#403B4A"/>
<path d="M144.962 675.4C144.962 675.4 144.552 612.27 128.222 577.98C111.892 543.69 105.362 543.69 58.8317 523.69C12.3017 503.69 -1.53825 491.45 1.32175 475.53C4.18175 459.61 12.7517 447.83 12.7517 440C12.7517 432.17 8.46175 420.22 11.9617 416.75C15.4617 413.28 17.2717 400.83 18.9017 399.2C20.5317 397.57 20.5317 383.28 22.5717 377.15C24.6117 371.02 38.0817 344.09 38.0817 341.64C38.0817 339.19 23.8017 321.11 23.8017 315.05C23.8017 308.99 27.4417 302.46 50.3017 289C73.1617 275.54 81.7317 267.36 78.8717 253.08C76.0117 238.8 71.9617 235.92 76.0117 231.84C80.0617 227.76 111.582 197.2 121.372 184.49C131.162 171.78 155.202 148.49 163.772 144.08C172.342 139.67 177.862 133.67 181.682 135.82C185.502 137.97 224.082 158.82 223.012 164.9C221.942 170.98 205.712 201.79 223.012 212.66C240.312 223.53 255.462 224.75 258.682 238.52C261.902 252.29 250.872 291.33 250.872 298.52C250.872 305.71 264.192 319.34 266.792 333.88C269.392 348.42 267.042 377.14 260.112 384.08C253.182 391.02 227.452 410.21 220.512 424.49C213.572 438.77 205.412 471.43 209.512 484.49C213.612 497.55 240.742 543.88 231.512 553.06C222.282 562.24 167.842 597.55 177.632 620.82C187.422 644.09 215.932 669.19 222.122 675.38L144.962 675.4Z" fill="#645486"/>
<path d="M144.962 675.4C144.962 675.4 144.552 612.27 128.222 577.98C111.892 543.69 105.362 543.69 58.8317 523.69C12.3017 503.69 -1.53825 491.45 1.32175 475.53C4.18175 459.61 12.7517 447.83 12.7517 440C12.7517 432.17 8.46175 420.22 11.9617 416.75C15.4617 413.28 17.2717 400.83 18.9017 399.2C20.5317 397.57 20.5317 383.28 22.5717 377.15C24.6117 371.02 38.0817 344.09 38.0817 341.64C38.0817 339.19 23.8017 321.11 23.8017 315.05C23.8017 308.99 27.4417 302.46 50.3017 289C73.1617 275.54 81.7317 267.36 78.8717 253.08C76.0117 238.8 71.9617 235.92 76.0117 231.84C80.0617 227.76 111.582 197.2 121.372 184.49C131.162 171.78 155.202 148.49 163.772 144.08C172.342 139.67 177.862 133.67 181.682 135.82C185.502 137.97 224.082 158.82 223.012 164.9C221.942 170.98 205.712 201.79 223.012 212.66C240.312 223.53 255.462 224.75 258.682 238.52C261.902 252.29 250.872 291.33 250.872 298.52C250.872 305.71 264.192 319.34 266.792 333.88C269.392 348.42 267.042 377.14 260.112 384.08C253.182 391.02 227.452 410.21 220.512 424.49C213.572 438.77 205.412 471.43 209.512 484.49C213.612 497.55 240.742 543.88 231.512 553.06C222.282 562.24 167.842 597.55 177.632 620.82C187.422 644.09 215.932 669.19 222.122 675.38L144.962 675.4Z" fill="#9478BF"/>
<path d="M144.962 675.4C144.962 675.4 144.552 612.27 128.222 577.98C111.892 543.69 105.362 543.69 58.8317 523.69C12.3017 503.69 -1.53825 491.45 1.32175 475.53C4.18175 459.61 12.7517 447.83 12.7517 440C12.7517 432.17 8.46175 420.22 11.9617 416.75C15.4617 413.28 17.2717 400.83 18.9017 399.2C20.5317 397.57 20.5317 383.28 22.5717 377.15C24.6117 371.02 38.0817 344.09 38.0817 341.64C38.0817 339.19 23.8017 321.11 23.8017 315.05C23.8017 308.99 27.4417 302.46 50.3017 289C73.1617 275.54 81.7317 267.36 78.8717 253.08C76.0117 238.8 71.9617 235.92 76.0117 231.84C80.0617 227.76 111.582 197.2 121.372 184.49C131.162 171.78 155.202 148.49 163.772 144.08C172.342 139.67 177.862 133.67 181.682 135.82C185.502 137.97 224.082 158.82 223.012 164.9C221.942 170.98 205.712 201.79 223.012 212.66C240.312 223.53 255.462 224.75 258.682 238.52C261.902 252.29 250.872 291.33 250.872 298.52C250.872 305.71 264.192 319.34 266.792 333.88C269.392 348.42 267.042 377.14 260.112 384.08C253.182 391.02 227.452 410.21 220.512 424.49C213.572 438.77 205.412 471.43 209.512 484.49C213.612 497.55 240.742 543.88 231.512 553.06C222.282 562.24 167.842 597.55 177.632 620.82C187.422 644.09 215.932 669.19 222.122 675.38L144.962 675.4Z" fill="#8779BF"/>
<path d="M79.7417 421.44C79.7417 421.44 59.5317 391.59 52.1917 382.72C44.8517 373.85 45.7617 369.86 41.9617 370.93C38.1617 372 30.7617 369.7 30.7617 369.7C30.7617 369.7 19.4317 382.56 24.4817 397C24.4817 397 25.3317 401.82 23.1817 401.13C21.0317 400.44 13.4617 404.65 14.5317 410.32C15.6017 415.99 25.0917 430.68 49.1317 428.38C73.1717 426.08 79.7417 421.44 79.7417 421.44Z" fill="#36323F"/>
<path d="M79.7417 421.44C79.7417 421.44 59.5317 391.59 52.1917 382.72C44.8517 373.85 45.7617 369.86 41.9617 370.93C38.1617 372 30.7617 369.7 30.7617 369.7C30.7617 369.7 19.4317 382.56 24.4817 397C24.4817 397 25.3317 401.82 23.1817 401.13C21.0317 400.44 13.4617 404.65 14.5317 410.32C15.6017 415.99 25.0917 430.68 49.1317 428.38C73.1717 426.08 79.7417 421.44 79.7417 421.44Z" fill="#403B4A"/>
<path d="M131.021 291C131.021 291 185.201 309.37 189.801 316.41C194.401 323.45 191.801 302.48 188.271 298.96C184.741 295.44 147.551 279.06 144.791 279.06C142.031 279.06 131.021 291 131.021 291Z" fill="#36323F"/>
<path d="M131.021 291C131.021 291 185.201 309.37 189.801 316.41C194.401 323.45 191.801 302.48 188.271 298.96C184.741 295.44 147.551 279.06 144.791 279.06C142.031 279.06 131.021 291 131.021 291Z" fill="#403B4A"/>
<path d="M82.6521 272.05L93.3621 266.23L79.7421 263.17L72.6221 270.29L82.6521 272.05Z" fill="#36323F"/>
<path d="M82.6521 272.05L93.3621 266.23L79.7421 263.17L72.6221 270.29L82.6521 272.05Z" fill="#403B4A"/>
<path d="M357.442 358.6C357.442 358.6 392.342 214.91 350.712 144.08C350.712 144.08 373.062 156.22 394.952 162.97C394.952 162.97 420.582 255.31 397.592 350.8L357.442 358.6Z" fill="#454251"/>
<path d="M357.442 358.6C357.442 358.6 392.342 214.91 350.712 144.08C350.712 144.08 373.062 156.22 394.952 162.97C394.952 162.97 420.582 255.31 397.592 350.8L357.442 358.6Z" fill="#575366"/>
<path d="M434.346 491.481C468.696 458.598 470.368 404.6 438.081 370.873C405.794 337.146 351.775 336.461 317.425 369.344C283.075 402.226 281.403 456.224 313.69 489.951C345.977 523.679 399.996 524.363 434.346 491.481Z" fill="#3C3846"/>
<path d="M434.346 491.481C468.696 458.598 470.368 404.6 438.081 370.873C405.794 337.146 351.775 336.461 317.425 369.344C283.075 402.226 281.403 456.224 313.69 489.951C345.977 523.679 399.996 524.363 434.346 491.481Z" fill="#464152"/>
<path d="M434.346 491.481C468.696 458.598 470.368 404.6 438.081 370.873C405.794 337.146 351.775 336.461 317.425 369.344C283.075 402.226 281.403 456.224 313.69 489.951C345.977 523.679 399.996 524.363 434.346 491.481Z" fill="#464152"/>
<path d="M435.594 492.798C467.407 462.344 470.576 414.028 442.674 384.881C414.771 355.733 366.363 356.792 334.551 387.246C302.738 417.7 299.569 466.016 327.471 495.163C355.374 524.31 403.782 523.251 435.594 492.798Z" fill="#454251"/>
<path d="M435.594 492.798C467.407 462.344 470.576 414.028 442.674 384.881C414.771 355.733 366.363 356.792 334.551 387.246C302.738 417.7 299.569 466.016 327.471 495.163C355.374 524.31 403.782 523.251 435.594 492.798Z" fill="#575366"/>
</svg>
